<svg width="40" height="40" viewBox="0 0 40 40" fill="none" xmlns="http://www.w3.org/2000/svg">
<path d="M19.9997 3.3335C10.7997 3.3335 3.33301 10.8002 3.33301 20.0002C3.33301 29.2002 10.7997 36.6668 19.9997 36.6668C29.1997 36.6668 36.6663 29.2002 36.6663 20.0002C36.6663 10.8002 29.1997 3.3335 19.9997 3.3335ZM11.783 30.4668C12.4997 28.9668 16.8663 27.5002 19.9997 27.5002C23.133 27.5002 27.5163 28.9668 28.2163 30.4668C25.9497 32.2668 23.0997 33.3335 19.9997 33.3335C16.8997 33.3335 14.0497 32.2668 11.783 30.4668ZM30.5997 28.0502C28.2163 25.1502 22.433 24.1668 19.9997 24.1668C17.5663 24.1668 11.783 25.1502 9.39967 28.0502C7.69967 25.8168 6.66634 23.0335 6.66634 20.0002C6.66634 12.6502 12.6497 6.66683 19.9997 6.66683C27.3497 6.66683 33.333 12.6502 33.333 20.0002C33.333 23.0335 32.2997 25.8168 30.5997 28.0502ZM19.9997 10.0002C16.7663 10.0002 14.1663 12.6002 14.1663 15.8335C14.1663 19.0668 16.7663 21.6668 19.9997 21.6668C23.233 21.6668 25.833 19.0668 25.833 15.8335C25.833 12.6002 23.233 10.0002 19.9997 10.0002ZM19.9997 18.3335C18.6163 18.3335 17.4997 17.2168 17.4997 15.8335C17.4997 14.4502 18.6163 13.3335 19.9997 13.3335C21.383 13.3335 22.4997 14.4502 22.4997 15.8335C22.4997 17.2168 21.383 18.3335 19.9997 18.3335Z" fill="#161351"/>
</svg>
