<svg width="236" height="140" viewBox="0 0 236 140" fill="none" xmlns="http://www.w3.org/2000/svg">
<circle cx="140" cy="91.5" r="40.5" fill="#F8F4FF"/>
<circle cx="86.5" cy="48" r="40" fill="#FFF4E8"/>
<path d="M178.737 29.3853H64.4187V58.9276H178.737V29.3853Z" fill="#FF981F"/>
<path opacity="0.6" d="M178.737 29.3853H64.4187V58.9276H178.737V29.3853Z" fill="#FAFAFA"/>
<path d="M176.159 32.1348H61.8408V61.6771H176.159V32.1348Z" fill="#FF981F"/>
<path opacity="0.3" d="M176.159 32.1348H61.8408V61.6771H176.159V32.1348Z" fill="black"/>
<path d="M173.581 34.8843H59.2627V64.4266H173.581V34.8843Z" fill="#FF981F"/>
<path opacity="0.1" d="M173.581 34.8843H59.2627V64.4266H173.581V34.8843Z" fill="#FAFAFA"/>
<path d="M168.127 58.6096V40.7012L64.7168 40.7012V58.6096L168.127 58.6096Z" fill="#FF981F"/>
<path opacity="0.9" d="M168.127 58.6096V40.7012L64.7168 40.7012V58.6096L168.127 58.6096Z" fill="#FAFAFA"/>
<path d="M150.732 40.7014V58.6099H151.339V40.7014H150.732Z" fill="#FF981F"/>
<path opacity="0.6" d="M150.732 40.7014V58.6099H151.339V40.7014H150.732Z" fill="#FAFAFA"/>
<path d="M67.2949 43.1713V56.1392H67.9021V43.1713H67.2949Z" fill="#FF981F"/>
<path opacity="0.6" d="M67.2949 43.1713V56.1392H67.9021V43.1713H67.2949Z" fill="#FAFAFA"/>
<path d="M159.153 51.9163C158.712 51.9161 158.277 51.7998 157.888 51.5779C157.499 51.3559 157.168 51.0351 156.923 50.6438C156.678 50.2524 156.527 49.8027 156.484 49.3344C156.44 48.8661 156.506 48.3937 156.675 47.9589C156.844 47.5242 157.111 47.1406 157.452 46.8421C157.793 46.5435 158.198 46.3393 158.63 46.2474C159.063 46.1556 159.51 46.1789 159.933 46.3154C160.355 46.4519 160.739 46.6974 161.051 47.03C161.427 47.4303 161.682 47.9403 161.786 48.4957C161.89 49.051 161.836 49.6266 161.633 50.1497C161.43 50.6728 161.086 51.1199 160.644 51.4343C160.203 51.7488 159.684 51.9165 159.153 51.9163ZM159.153 46.9719C158.7 46.972 158.262 47.1396 157.912 47.446C157.562 47.7525 157.323 48.1788 157.235 48.6524C157.147 49.126 157.215 49.6174 157.429 50.0431C157.643 50.4687 157.988 50.8021 158.407 50.9864C158.825 51.1708 159.29 51.1947 159.723 51.0541C160.156 50.9134 160.53 50.617 160.781 50.2152C161.032 49.8135 161.145 49.3313 161.1 48.8509C161.055 48.3705 160.855 47.9216 160.535 47.5807C160.355 47.3832 160.141 47.2259 159.903 47.118C159.666 47.0101 159.411 46.9539 159.153 46.9525V46.9719Z" fill="#FF981F"/>
<path d="M162.633 53.134C162.585 53.1338 162.537 53.1234 162.493 53.1034C162.449 53.0835 162.408 53.0543 162.375 53.0177L160.538 51.0593C160.5 51.0245 160.469 50.9818 160.448 50.9336C160.426 50.8855 160.414 50.8331 160.412 50.7797C160.41 50.7263 160.418 50.6731 160.436 50.6233C160.455 50.5735 160.482 50.5283 160.518 50.4905C160.553 50.4527 160.596 50.4232 160.642 50.4037C160.689 50.3842 160.739 50.3752 160.789 50.3772C160.839 50.3793 160.888 50.3924 160.933 50.4157C160.978 50.4389 161.019 50.4719 161.051 50.5125L162.887 52.4709C162.955 52.5435 162.993 52.6418 162.993 52.7443C162.993 52.8467 162.955 52.945 162.887 53.0177C162.82 53.0907 162.729 53.1326 162.633 53.134Z" fill="#FF981F"/>
<g opacity="0.6">
<path opacity="0.6" d="M159.153 51.9163C158.712 51.9161 158.277 51.7998 157.888 51.5779C157.499 51.3559 157.168 51.0351 156.923 50.6438C156.678 50.2524 156.527 49.8027 156.484 49.3344C156.44 48.8661 156.506 48.3937 156.675 47.9589C156.844 47.5242 157.111 47.1406 157.452 46.8421C157.793 46.5435 158.198 46.3393 158.63 46.2474C159.063 46.1556 159.51 46.1789 159.933 46.3154C160.355 46.4519 160.739 46.6974 161.051 47.03C161.427 47.4303 161.682 47.9403 161.786 48.4957C161.89 49.051 161.836 49.6266 161.633 50.1497C161.43 50.6728 161.086 51.1199 160.644 51.4343C160.203 51.7488 159.684 51.9165 159.153 51.9163ZM159.153 46.9719C158.7 46.972 158.262 47.1396 157.912 47.446C157.562 47.7525 157.323 48.1788 157.235 48.6524C157.147 49.126 157.215 49.6174 157.429 50.0431C157.643 50.4687 157.988 50.8021 158.407 50.9864C158.825 51.1708 159.29 51.1947 159.723 51.0541C160.156 50.9134 160.53 50.617 160.781 50.2152C161.032 49.8135 161.145 49.3313 161.1 48.8509C161.055 48.3705 160.855 47.9216 160.535 47.5807C160.355 47.3832 160.141 47.2259 159.903 47.118C159.666 47.0101 159.411 46.9539 159.153 46.9525V46.9719Z" fill="#FAFAFA"/>
<path opacity="0.6" d="M162.633 53.134C162.585 53.1338 162.537 53.1234 162.493 53.1034C162.449 53.0835 162.408 53.0543 162.375 53.0177L160.538 51.0593C160.5 51.0245 160.469 50.9818 160.448 50.9336C160.426 50.8855 160.414 50.8331 160.412 50.7797C160.41 50.7263 160.418 50.6731 160.436 50.6233C160.455 50.5735 160.482 50.5283 160.518 50.4905C160.553 50.4527 160.596 50.4232 160.642 50.4037C160.689 50.3842 160.739 50.3752 160.789 50.3772C160.839 50.3793 160.888 50.3924 160.933 50.4157C160.978 50.4389 161.019 50.4719 161.051 50.5125L162.887 52.4709C162.955 52.5435 162.993 52.6418 162.993 52.7443C162.993 52.8467 162.955 52.945 162.887 53.0177C162.82 53.0907 162.729 53.1325 162.633 53.134Z" fill="#FAFAFA"/>
</g>
<path d="M165.763 73.683H175.054L159.193 56.1392L165.763 73.683Z" fill="#FF981F"/>
<g opacity="0.1">
<path opacity="0.1" d="M165.763 73.683H175.054L159.193 56.1392L165.763 73.683Z" fill="black"/>
</g>
<g style="mix-blend-mode:multiply">
<path d="M156.833 64.4225L159.193 56.1392L160.531 64.4225H156.833Z" fill="#FF981F"/>
</g>
<path d="M159.193 56.1392V80.6867L160.837 78.9377L165.763 73.6831L159.193 56.1392Z" fill="#FF981F"/>
<path opacity="0.3" d="M159.193 56.1392V80.6867L160.837 78.9377L165.763 73.6831L159.193 56.1392Z" fill="#FAFAFA"/>
<path d="M143.776 39.0342C142.907 36.4864 141.579 34.1442 139.868 32.1392H110.957C109.246 34.1442 107.918 36.4864 107.048 39.0342L111.048 60.2699C114.108 63.8075 118.222 66.1063 122.69 66.7758C127.159 67.4453 131.708 66.4441 135.563 63.9424C139.418 61.4407 142.342 57.5927 143.839 53.0521C145.336 48.5115 145.312 43.5584 143.773 39.0342H143.776Z" fill="#FF981F"/>
<path opacity="0.1" d="M143.776 39.0342C142.907 36.4864 141.579 34.1442 139.868 32.1392H110.957C109.246 34.1442 107.918 36.4864 107.048 39.0342L111.048 60.2699C114.108 63.8075 118.222 66.1063 122.69 66.7758C127.159 67.4453 131.708 66.4441 135.563 63.9424C139.418 61.4407 142.342 57.5927 143.839 53.0521C145.336 48.5115 145.312 43.5584 143.773 39.0342H143.776Z" fill="#FAFAFA"/>
<path d="M144.929 47.112C144.722 52.0086 142.899 56.6694 139.78 60.2699H111.055C108.63 57.4596 106.975 53.9933 106.27 50.2488C105.564 46.5044 105.836 42.6253 107.056 39.0342H143.78C144.662 41.6187 145.053 44.3647 144.929 47.112Z" fill="#FF981F"/>
<path opacity="0.9" d="M144.929 47.112C144.722 52.0086 142.899 56.6694 139.78 60.2699H111.055C108.63 57.4596 106.975 53.9933 106.27 50.2488C105.564 46.5044 105.836 42.6253 107.056 39.0342H143.78C144.662 41.6187 145.053 44.3647 144.929 47.112Z" fill="#FAFAFA"/>
<path opacity="0.3" d="M144.929 47.1119C144.703 52.2647 142.689 57.1437 139.278 60.801C135.867 64.4583 131.303 66.6326 126.473 66.9014C121.643 67.1701 116.891 65.5142 113.142 62.2553C109.393 58.9965 106.914 54.3674 106.186 49.2677C105.458 44.168 106.534 38.962 109.205 34.6611C111.875 30.3603 115.95 27.2719 120.636 25.996C125.322 24.7202 130.286 25.3481 134.563 27.7576C138.839 30.1672 142.123 34.1864 143.776 39.0341C144.658 41.6187 145.05 44.3645 144.929 47.1119Z" fill="white"/>
<path opacity="0.4" d="M136.424 28.9435L108.332 56.2676C108.191 55.991 108.053 55.7118 107.917 55.43C107.058 53.596 106.461 51.6353 106.146 49.613L130.41 26.0117C132.557 26.6152 134.591 27.6068 136.424 28.9435Z" fill="white"/>
<path opacity="0.4" d="M143.94 39.5341L117.546 65.2217C114.808 63.9334 112.384 61.9909 110.463 59.5444L139.304 31.4912C141.406 33.7587 142.992 36.5103 143.94 39.5341Z" fill="white"/>
<path d="M144.922 34.1361C142.693 30.0155 139.369 26.6924 135.37 24.5873C131.37 22.4821 126.875 21.6895 122.453 22.3098C118.031 22.93 113.881 24.9353 110.528 28.0717C107.175 31.2082 104.769 35.335 103.616 39.9299C102.463 44.5248 102.613 49.3814 104.048 53.8851C105.484 58.3888 108.139 62.3373 111.679 65.2309C115.219 68.1245 119.484 69.8332 123.935 70.1409C128.385 70.4485 132.822 69.3413 136.682 66.9592C141.853 63.7687 145.625 58.5201 147.17 52.3658C148.714 46.2116 147.906 39.6551 144.922 34.1361ZM110.015 55.6355C108.257 52.3883 107.442 48.6579 107.671 44.9162C107.901 41.1745 109.166 37.5895 111.306 34.6145C113.446 31.6395 116.365 29.4081 119.695 28.2025C123.024 26.997 126.613 26.8713 130.01 27.8415C133.406 28.8117 136.456 30.8341 138.774 33.653C141.093 36.472 142.575 39.9608 143.035 43.6784C143.494 47.396 142.909 51.1754 141.355 54.5386C139.8 57.9019 137.345 60.6979 134.301 62.5732C132.279 63.8184 130.048 64.6267 127.733 64.9519C125.419 65.2772 123.067 65.113 120.812 64.4687C118.557 63.8245 116.444 62.7128 114.592 61.1972C112.74 59.6816 111.186 57.7917 110.019 55.6355H110.015Z" fill="#8B54FF"/>
<path d="M73.5709 70.876L76.3561 71.5663L74.0472 73.4044C74.0472 73.4044 72.3928 72.6055 72.3164 71.353L73.5709 70.876Z" fill="#E4897B"/>
<path d="M77.8468 73.5442L75.8397 74.9713L74.0471 73.4046L76.356 71.5703L77.8468 73.5442Z" fill="#E4897B"/>
<path d="M109.354 58.8117C106.394 61.1385 103.358 63.3489 100.307 65.509C97.2563 67.669 94.1656 69.7747 91.0604 71.8417C87.9552 73.9086 84.8209 75.9329 81.6757 77.8991C80.1049 78.8996 78.5196 79.8691 76.9488 80.8541C76.1685 81.3839 75.3178 81.7852 74.4253 82.0446C73.9492 82.1793 73.4623 82.2663 72.9709 82.3044C72.4254 82.3519 71.8764 82.3219 71.3383 82.2152C70.9538 82.1341 70.588 81.9729 70.2619 81.7408C69.9358 81.5088 69.6559 81.2104 69.438 80.8628C69.2202 80.5152 69.0688 80.1252 68.9924 79.7152C68.9161 79.3051 68.9163 78.883 68.993 78.473C69.0179 78.3412 69.052 78.2116 69.0948 78.0852C69.2704 77.5355 69.515 77.0136 69.8221 76.534C70.096 76.1028 70.4076 75.7003 70.7529 75.3319C71.4105 74.6374 72.1618 74.0519 72.9818 73.5945C74.5708 72.6289 76.1488 71.6555 77.7487 70.6977C80.9339 68.7781 84.1482 66.9089 87.3698 65.063C90.5914 63.2171 93.8529 61.4294 97.1327 59.6843C100.412 57.9392 103.718 56.2406 107.092 54.6739C107.601 54.4338 108.176 54.4028 108.705 54.5869C109.234 54.7709 109.681 55.1571 109.96 55.6712C110.239 56.1853 110.329 56.791 110.215 57.3721C110.1 57.9532 109.788 58.4687 109.339 58.8195L109.354 58.8117Z" fill="#8B54FF"/>
<path d="M77.607 52.5061C77.4252 52.8203 77.2179 53.2003 77.0216 53.5571C76.8252 53.9138 76.6325 54.2861 76.4507 54.6623C76.0871 55.403 75.7235 56.1553 75.3599 56.9193C74.9963 57.6832 74.7018 58.4704 74.4036 59.246C74.2582 59.6338 74.1054 60.0216 73.9709 60.4094L73.7673 61.0028C73.7273 61.1152 73.72 61.1618 73.6946 61.2432C73.6691 61.3246 73.6582 61.4022 73.6364 61.4797C73.4945 62.2461 73.4226 63.0254 73.4219 63.8065C73.4037 64.6403 73.4219 65.4896 73.4655 66.3466C73.5091 67.2036 73.5528 68.0645 73.6255 68.9254C73.6982 69.7863 73.7709 70.6628 73.8473 71.5159L72.4437 71.8223C72.1965 70.9575 72.0038 70.0966 71.8111 69.224C71.6184 68.3515 71.4729 67.4751 71.3311 66.5831C71.1893 65.6912 71.0948 64.7954 71.0329 63.8686C70.9573 62.898 70.9805 61.9215 71.102 60.9562C71.1238 60.8205 71.142 60.6925 71.1748 60.5684C71.2075 60.4443 71.2402 60.2698 71.2693 60.1806L71.4475 59.5214C71.5638 59.0832 71.6984 58.6488 71.8365 58.2184C72.1165 57.3536 72.4219 56.5043 72.7637 55.6667C73.1055 54.829 73.4691 54.0108 73.8545 53.2042C74.0545 52.8164 74.2654 52.4014 74.48 52.002C74.6945 51.6026 74.909 51.2264 75.1781 50.8037L77.607 52.5061Z" fill="#E4897B"/>
<path d="M76.0543 132.578C75.809 132.57 75.5652 132.534 75.3271 132.47C75.3144 132.468 75.3026 132.461 75.2935 132.451C75.2843 132.442 75.2783 132.429 75.2762 132.416C75.2739 132.402 75.2754 132.387 75.2806 132.374C75.2857 132.361 75.2943 132.35 75.3053 132.342C75.4035 132.272 76.2616 131.683 76.5925 131.842C76.6292 131.86 76.6608 131.888 76.6838 131.923C76.7069 131.959 76.7205 132 76.7234 132.043C76.7404 132.112 76.7393 132.185 76.72 132.254C76.7008 132.322 76.6642 132.383 76.6143 132.431C76.4505 132.551 76.2515 132.603 76.0543 132.578ZM75.498 132.369C75.9925 132.474 76.3634 132.454 76.5052 132.315C76.5364 132.283 76.5591 132.243 76.5713 132.198C76.5834 132.154 76.5844 132.107 76.5743 132.063C76.5738 132.043 76.5681 132.024 76.5578 132.007C76.5475 131.991 76.5331 131.978 76.5161 131.97C76.3452 131.888 75.8471 132.144 75.498 132.369Z" fill="#FF981F"/>
<path d="M75.3234 132.474C75.3127 132.477 75.3013 132.477 75.2906 132.474C75.2802 132.468 75.2716 132.459 75.2658 132.448C75.2599 132.437 75.2572 132.424 75.2579 132.411C75.2579 132.377 75.2579 131.508 75.567 131.217C75.6052 131.18 75.6502 131.153 75.6991 131.136C75.7479 131.119 75.7996 131.114 75.8506 131.12C75.9042 131.121 75.9559 131.141 75.997 131.178C76.0381 131.215 76.066 131.266 76.076 131.322C76.1415 131.659 75.6252 132.311 75.3488 132.485C75.3396 132.484 75.3309 132.48 75.3234 132.474ZM75.807 131.248C75.7518 131.249 75.6988 131.271 75.6579 131.31C75.4791 131.591 75.3875 131.925 75.3961 132.264C75.6652 132.031 75.9851 131.543 75.9451 131.337C75.9451 131.302 75.9197 131.264 75.8361 131.252L75.807 131.248Z" fill="#FF981F"/>
<path d="M88.9334 132.578C88.6338 132.573 88.3354 132.537 88.0426 132.47C88.0286 132.468 88.0156 132.461 88.0057 132.451C87.9958 132.44 87.9896 132.426 87.988 132.411C87.9864 132.397 87.989 132.382 87.9955 132.369C88.002 132.355 88.0121 132.345 88.0244 132.338C88.1516 132.268 89.2788 131.655 89.6243 131.857C89.6575 131.875 89.6857 131.902 89.7061 131.935C89.7265 131.969 89.7384 132.007 89.7406 132.047C89.7485 132.111 89.7414 132.176 89.7198 132.236C89.6982 132.297 89.6629 132.35 89.617 132.392C89.4159 132.536 89.1745 132.602 88.9334 132.578ZM88.2644 132.369C88.8934 132.481 89.3552 132.45 89.5297 132.287C89.5587 132.259 89.5808 132.223 89.5941 132.183C89.6074 132.143 89.6115 132.1 89.6061 132.059C89.6059 132.043 89.6018 132.027 89.5942 132.013C89.5865 132 89.5755 131.989 89.5624 131.981C89.3734 131.872 88.7261 132.132 88.2644 132.369Z" fill="#FF981F"/>
<path d="M88.0533 132.473C88.0476 132.476 88.0414 132.477 88.0352 132.477C88.0289 132.477 88.0227 132.476 88.017 132.473C88.0065 132.468 87.9981 132.459 87.9928 132.447C87.9876 132.436 87.9859 132.424 87.9879 132.411C87.9879 132.376 88.057 131.562 88.4097 131.248C88.511 131.157 88.6415 131.113 88.7733 131.124C88.9587 131.143 89.0096 131.244 89.0242 131.325C89.0751 131.667 88.4097 132.318 88.0715 132.489L88.0533 132.473ZM88.7296 131.248C88.6442 131.249 88.5618 131.282 88.4969 131.341C88.2884 131.604 88.1613 131.929 88.1333 132.272C88.4751 132.051 88.9296 131.539 88.8969 131.333C88.8969 131.333 88.8969 131.263 88.766 131.252L88.7296 131.248Z" fill="#FF981F"/>
<path d="M81.9119 40.8604C82.1337 42.6714 82.6392 46.3438 81.4102 47.4529C81.4102 47.4529 81.7738 49.2988 84.8717 49.5121C88.2969 49.7486 86.617 47.8135 86.617 47.8135C84.7772 47.2086 84.9153 45.7311 85.3262 44.366L81.9119 40.8604Z" fill="#E4897B"/>
<path d="M84.9409 132.4H87.7734L87.9625 125.412H85.13L84.9409 132.4Z" fill="#E4897B"/>
<path d="M72.0801 132.4H74.9126L75.8216 125.412H72.9927L72.0801 132.4Z" fill="#E4897B"/>
<path d="M75.0872 132.051H71.9056C71.8511 132.05 71.7982 132.071 71.7568 132.108C71.7153 132.146 71.6881 132.199 71.6802 132.256L71.3166 134.94C71.3094 135.008 71.3157 135.076 71.3351 135.141C71.3545 135.206 71.3865 135.266 71.4291 135.317C71.4716 135.368 71.5237 135.408 71.5821 135.436C71.6404 135.464 71.7035 135.479 71.7675 135.479C72.8583 135.46 73.411 135.39 74.8109 135.39C75.669 135.39 76.927 135.483 78.116 135.483C79.305 135.483 79.3669 134.23 78.8723 134.118C76.6543 133.61 76.3053 132.908 75.5562 132.237C75.4255 132.118 75.2593 132.052 75.0872 132.051Z" fill="#161351"/>
<path d="M87.8678 132.051H84.6899C84.6351 132.049 84.5818 132.07 84.5402 132.108C84.4986 132.145 84.4716 132.198 84.4644 132.256L84.1008 134.94C84.0942 135.008 84.101 135.077 84.1209 135.142C84.1407 135.206 84.173 135.266 84.2159 135.317C84.2587 135.368 84.311 135.409 84.3695 135.436C84.428 135.464 84.4913 135.479 84.5553 135.479C85.6462 135.46 86.1989 135.39 87.5951 135.39C88.4569 135.39 90.2349 135.483 91.4239 135.483C92.6129 135.483 92.6747 134.23 92.1802 134.118C89.9622 133.61 89.0895 132.908 88.3405 132.237C88.2088 132.117 88.0411 132.051 87.8678 132.051Z" fill="#161351"/>
<path d="M87.9588 125.412L87.8642 129.014H85.0317L85.1299 125.412H87.9588Z" fill="#CE6F64"/>
<path d="M72.9891 125.412H75.8216L75.3525 129.014H72.52L72.9891 125.412Z" fill="#CE6F64"/>
<path d="M78.8142 52.9714C78.2766 53.8671 77.654 54.7014 76.9561 55.461L76.6325 55.2322L73.0474 52.6922C73.0474 52.6922 75.0036 48.0386 76.4762 47.8021C77.8833 47.5616 78.9087 49.1128 79.385 50.7726C79.5669 51.3737 79.2651 52.188 78.8142 52.9714Z" fill="white"/>
<path d="M78.814 52.9715C78.2764 53.8672 77.6538 54.7015 76.9559 55.4612L76.6323 55.2324C76.7923 53.8363 77.3014 52.4519 77.8831 52.0137C78.2395 52.0525 78.5558 52.4558 78.814 52.9715Z" fill="#001A69"/>
<path d="M91.0786 55.2945C90.9077 56.4579 90.6859 57.8268 90.3877 59.4517C90.0241 61.5302 89.5151 64.0238 88.8715 67.0059L77.3996 66.2303C77.8941 61.2627 78.0869 58.1913 76.4761 47.8178C78.1047 47.5752 79.7477 47.4598 81.3921 47.4726C83.1335 47.4605 84.8736 47.581 86.5989 47.8333C88.8242 48.2211 91.3258 48.9346 91.3258 48.9346C91.3258 48.9346 91.9658 49.2022 91.0786 55.2945Z" fill="white"/>
<path d="M91.0786 55.2944C90.9077 56.4578 90.6859 57.8267 90.3877 59.4515C89.7568 58.0203 89.2327 56.5382 88.8206 55.019H90.9513L91.0786 55.2944Z" fill="#001A69"/>
<path d="M81.2867 38.3127C81.7194 41.2715 81.8467 42.5358 83.392 43.9202C85.7155 46.0065 89.0279 44.7888 89.4315 41.7485C89.7952 39.0146 89.0243 34.6325 86.1845 33.725C85.5599 33.5206 84.8966 33.4901 84.2578 33.6364C83.6189 33.7827 83.0258 34.1009 82.5349 34.5607C82.044 35.0205 81.6715 35.6067 81.4531 36.2635C81.2346 36.9202 81.1773 37.6256 81.2867 38.3127Z" fill="#E4897B"/>
<path d="M85.839 66.7964C85.839 66.7964 85.6572 72.1829 85.2208 78.9771C84.8572 84.6777 84.3082 91.3633 83.541 96.6916L83.5191 96.839C82.1411 106.27 76.0361 128.313 76.0361 128.313H72.1746C72.1746 128.313 75.3561 107.022 76.0543 97.6766C77.825 74.0715 73.389 71.3995 77.3996 66.1953L85.839 66.7964Z" fill="#2C197D"/>
<path d="M85.221 78.9772C84.8573 84.6778 84.3083 91.3634 83.5411 96.6917C82.2357 89.7695 80.0904 79.6597 82.9702 73.0361C83.6574 74.9169 84.4574 77.0421 85.221 78.9772Z" fill="#161351"/>
<path d="M88.8715 67.0094C88.8715 67.0094 92.144 87.6945 91.9476 96.9007C91.7549 106.479 88.4643 128.312 88.4643 128.312H84.6391C84.6391 128.312 85.2427 107.034 84.9045 97.6298C84.5409 87.3765 80.4685 66.4238 80.4685 66.4238L88.8715 67.0094Z" fill="#2C197D"/>
<path d="M83.9845 128.506H89.1151L89.515 126.672L83.8027 126.715L83.9845 128.506Z" fill="#161351"/>
<path d="M71.6147 128.506H76.7453L77.1452 126.672L71.6511 126.715L71.6147 128.506Z" fill="#161351"/>
<path d="M77.2688 65.4894L76.687 66.552C76.6397 66.6334 76.7306 66.7265 76.8615 66.7342L88.8933 67.568C88.9951 67.568 89.086 67.5292 89.0969 67.4594L89.2678 66.3697C89.2678 66.296 89.1915 66.2262 89.0788 66.2185L77.4433 65.4119C77.4106 65.4103 77.3781 65.4164 77.3479 65.4298C77.3177 65.4432 77.2907 65.4636 77.2688 65.4894Z" fill="#161351"/>
<path d="M78.7451 66.9785L78.436 66.9552C78.3742 66.9552 78.327 66.9126 78.3342 66.8738L78.5669 65.4583C78.5669 65.4196 78.6288 65.3885 78.6906 65.3924L79.0033 65.4118C79.0651 65.4118 79.1087 65.4545 79.1051 65.4971L78.8724 66.9087C78.8651 66.9514 78.8069 66.9824 78.7451 66.9785Z" fill="#662635"/>
<path d="M86.2754 67.4981L85.9663 67.4787C85.9045 67.4787 85.8572 67.4361 85.8645 67.3934L86.0972 65.9818C86.0972 65.9392 86.159 65.912 86.2245 65.9159L86.5335 65.9353C86.5954 65.9353 86.6426 65.9779 86.6354 66.0206L86.4026 67.4322C86.4063 67.4748 86.3481 67.502 86.2754 67.4981Z" fill="#662635"/>
<path d="M91.9767 52.0366C92.4131 53.5878 92.8276 55.1584 93.2312 56.7251L94.4493 61.4135L94.602 61.9952L94.642 62.1387L94.6602 62.2124V62.2512C94.6732 62.3025 94.689 62.353 94.7074 62.4024C94.7967 62.6381 94.9193 62.8579 95.071 63.0539C95.5052 63.5426 96.0082 63.9561 96.5618 64.2794C97.8303 65.0115 99.172 65.5891 100.562 66.0012L100.351 67.5136C98.7201 67.424 97.114 67.0534 95.5946 66.4161C94.7539 66.0647 93.9792 65.5551 93.3075 64.9115C92.9228 64.5311 92.6029 64.0823 92.3622 63.5852C92.2971 63.4508 92.2401 63.3122 92.1913 63.1703L92.1513 63.0656L92.1258 62.9919L92.0785 62.8484L91.8858 62.2628C91.3768 60.7116 90.9041 59.1604 90.4568 57.586C90.0096 56.0115 89.5696 54.4603 89.1697 52.8781L91.9767 52.0366Z" fill="#E4897B"/>
<path d="M91.3259 48.9188C92.7803 49.4268 94.3075 54.4992 94.3075 54.4992L89.057 56.9113C89.057 56.9113 86.8753 51.2184 87.8425 49.931C88.8097 48.6435 89.6569 48.3371 91.3259 48.9188Z" fill="white"/>
<path d="M88.5188 33.5543C87.5916 32.3328 80.4285 31.4602 80.0467 34.7875C77.5014 36.6877 79.9158 41.5972 80.2794 42.8459C78.5232 43.3656 72.8654 45.4287 77.0069 49.4385C81.1484 53.4483 87.3589 52.7658 88.5733 48.6163C89.4241 45.7156 86.7225 40.8604 86.7807 39.1619C86.8389 37.4633 90.1077 35.629 88.5188 33.5543Z" fill="#001447"/>
<path d="M80.7811 43.4585C80.7678 43.459 80.7546 43.4561 80.7426 43.45C80.7306 43.4439 80.7201 43.4349 80.712 43.4236C80.0539 42.5705 77.7632 38.0876 78.5668 35.9547C78.6914 35.6238 78.9027 35.3381 79.1754 35.1318C79.4481 34.9255 79.7708 34.8073 80.1048 34.7913C80.1166 34.7897 80.1285 34.7906 80.1399 34.7941C80.1513 34.7976 80.1619 34.8035 80.1711 34.8114C80.1803 34.8194 80.1878 34.8293 80.1933 34.8405C80.1988 34.8517 80.2021 34.864 80.203 34.8766C80.2061 34.9018 80.1999 34.9272 80.1856 34.9475C80.1713 34.9678 80.1501 34.9813 80.1266 34.9852C79.8263 34.997 79.5355 35.1005 79.2886 35.2833C79.0418 35.4662 78.8493 35.7207 78.734 36.0167C77.9595 38.0798 80.2066 42.458 80.8502 43.2957C80.8617 43.3093 80.8691 43.3263 80.8716 43.3445C80.8741 43.3626 80.8715 43.3812 80.8641 43.3978C80.8567 43.4143 80.8449 43.4282 80.8301 43.4376C80.8154 43.4471 80.7983 43.4516 80.7811 43.4508V43.4585Z" fill="#263238"/>
<path d="M86.2134 38.9798C86.2945 39.5461 86.5505 40.0674 86.9406 40.4612C87.457 40.9886 87.9442 40.628 87.9915 39.9571C88.0351 39.356 87.8169 38.3594 87.2061 38.0801C86.5952 37.8009 86.137 38.3089 86.2134 38.9798Z" fill="#E4897B"/>
<path d="M98.78 65.5824L100.845 64.834L100.522 67.4826C100.522 67.4826 99.7072 67.8704 98.6527 66.8932L97.6455 66.2068L98.4382 65.7453C98.5469 65.6793 98.6613 65.6247 98.78 65.5824Z" fill="#E4897B"/>
<path d="M102.289 64.8262L101.656 67.1413L100.521 67.4787L100.845 64.8339L102.289 64.8262Z" fill="#E4897B"/>
</svg>
