<svg width="236" height="140" viewBox="0 0 236 140" fill="none" xmlns="http://www.w3.org/2000/svg">
<circle cx="148.5" cy="82" r="47" fill="#FFF4E8"/>
<circle cx="89" cy="48.5" r="44.5" fill="#F8F4FF"/>
<path d="M138.474 127H90.9322C90.0529 127.008 89.1814 126.833 88.3726 126.486C87.5637 126.14 86.835 125.628 86.2324 124.985C85.6297 124.342 85.166 123.58 84.8705 122.747C84.5751 121.915 84.4542 121.03 84.5155 120.149L90.2931 20.8511C90.4249 19.008 91.2399 17.2816 92.5771 16.0132C93.9143 14.7447 95.6763 14.0264 97.515 14.0003H145.068C145.947 13.9921 146.819 14.1669 147.627 14.5136C148.436 14.8604 149.165 15.3715 149.768 16.015C150.37 16.6585 150.834 17.4203 151.129 18.2526C151.425 19.0849 151.546 19.9696 151.484 20.8511L145.689 120.149C145.557 121.991 144.743 123.716 143.408 124.984C142.072 126.253 140.312 126.972 138.474 127V127Z" fill="#421EA8"/>
<path d="M138.192 125.011H91.9721C91.3543 125.017 90.7419 124.895 90.1735 124.651C89.6051 124.408 89.093 124.049 88.6694 123.597C88.2458 123.145 87.9198 122.61 87.712 122.025C87.5042 121.441 87.4191 120.819 87.462 120.2L93.2395 21.3339C93.3321 20.0421 93.9022 18.8318 94.8376 17.9408C95.773 17.0498 97.0062 16.5426 98.2949 16.5187H144.515C145.133 16.5132 145.746 16.6362 146.314 16.88C146.882 17.1238 147.394 17.4831 147.818 17.9353C148.242 18.3875 148.568 18.9229 148.775 19.5078C148.983 20.0927 149.068 20.7144 149.025 21.3339L143.248 120.2C143.155 121.491 142.585 122.701 141.649 123.592C140.714 124.482 139.481 124.988 138.192 125.011V125.011Z" fill="#421EA8"/>
<path d="M137.694 124.481H91.474C90.856 124.487 90.2436 124.364 89.6752 124.12C89.1068 123.876 88.5948 123.517 88.1712 123.065C87.7476 122.613 87.4217 122.077 87.214 121.492C87.0062 120.907 86.9211 120.286 86.9639 119.666L92.7415 20.8002C92.8341 19.5084 93.4041 18.2981 94.3395 17.4071C95.275 16.5161 96.5082 16.0089 97.7968 15.985H144.017C144.635 15.9795 145.248 16.1026 145.816 16.3463C146.384 16.5901 146.896 16.9494 147.32 17.4016C147.744 17.8539 148.069 18.3892 148.277 18.9741C148.485 19.559 148.57 20.1807 148.527 20.8002L142.75 119.666C142.657 120.958 142.087 122.168 141.152 123.059C140.216 123.95 138.983 124.458 137.694 124.481V124.481Z" fill="white"/>
<path opacity="0.1" d="M136.344 120.806H93.2396C92.8577 120.809 92.4792 120.733 92.1279 120.583C91.7767 120.432 91.4602 120.21 91.1984 119.931C90.9366 119.651 90.7351 119.32 90.6067 118.959C90.4782 118.597 90.4255 118.213 90.4519 117.83L92.8785 76.5908C92.9354 75.7906 93.2889 75.0409 93.8693 74.49C94.4496 73.939 95.2145 73.6269 96.0128 73.6153H139.099C139.481 73.6119 139.859 73.6879 140.211 73.8385C140.562 73.9892 140.878 74.2112 141.14 74.4906C141.402 74.77 141.603 75.1009 141.732 75.4623C141.86 75.8237 141.913 76.208 141.887 76.5908L139.478 117.83C139.421 118.631 139.068 119.38 138.487 119.931C137.907 120.482 137.142 120.794 136.344 120.806V120.806Z" fill="#421EA8"/>
<path opacity="0.1" d="M126.771 23.3188H114.208C114.071 23.3201 113.936 23.293 113.811 23.2393C113.685 23.1855 113.572 23.1062 113.478 23.0063C113.385 22.9065 113.313 22.7882 113.267 22.659C113.221 22.5298 113.202 22.3925 113.211 22.2556V22.2556C113.231 21.9686 113.358 21.6997 113.566 21.5021C113.774 21.3045 114.048 21.1926 114.334 21.1888H126.893C127.031 21.1854 127.169 21.211 127.296 21.2641C127.424 21.3172 127.539 21.3966 127.634 21.497C127.729 21.5975 127.803 21.7169 127.849 21.8476C127.896 21.9782 127.915 22.1172 127.904 22.2556V22.2556C127.884 22.5441 127.756 22.8142 127.546 23.0115C127.335 23.2088 127.058 23.3186 126.771 23.3188Z" fill="#421EA8"/>
<path opacity="0.1" d="M131.769 63.1208C139.504 55.5718 140.033 43.5094 132.948 36.1786C125.864 28.8478 113.85 29.0246 106.114 36.5736C98.3785 44.1226 97.8504 56.185 104.935 63.5158C112.019 70.8466 124.033 70.6697 131.769 63.1208Z" fill="#421EA8"/>
<path d="M105.661 62.4678C104.08 60.7768 102.864 58.7757 102.089 56.5903C101.314 54.4048 100.997 52.082 101.158 49.7676H101.519C101.362 52.0323 101.673 54.305 102.431 56.4436C103.189 58.5821 104.378 60.5403 105.924 62.1957L105.661 62.4678Z" fill="#421EA8"/>
<path d="M136.722 49.9238L136.361 49.9021C136.46 48.3036 136.338 46.6991 136 45.134L136.361 45.0542C136.706 46.6526 136.828 48.2916 136.722 49.9238V49.9238Z" fill="#421EA8"/>
<path d="M134.953 41.9769C134.069 40.0066 132.805 38.2322 131.233 36.7566C129.662 35.281 127.815 34.1335 125.799 33.3806L125.925 33.0396C127.987 33.8078 129.877 34.9809 131.483 36.4904C133.089 37.9999 134.38 39.8157 135.281 41.8317L134.953 41.9769Z" fill="#421EA8"/>
<path d="M130.119 61.413C136.86 54.8344 137.321 44.3231 131.148 37.9354C124.976 31.5478 114.506 31.7026 107.765 38.2812C101.024 44.8598 100.563 55.3711 106.736 61.7588C112.908 68.1465 123.377 67.9917 130.119 61.413Z" fill="#5824D4"/>
<path d="M117.105 52.1011C117.899 51.9233 118.271 51.2411 118.441 50.4646C118.459 50.3811 118.474 50.3013 118.488 50.2215V50.1489C118.531 49.8252 118.555 49.4993 118.56 49.1728C117.791 49.0963 117.077 48.7382 116.554 48.1668C116.03 47.5954 115.734 46.8505 115.722 46.0739C115.682 44.5341 116.022 43.0083 116.711 41.6325C116.534 41.6558 116.984 41.2615 116.843 41.3712C116.826 41.375 117.568 40.885 116.852 41.3712C116.872 41.3962 116.821 41.3658 116.852 41.3712C116.833 41.3439 116.838 41.4043 116.843 41.3712C116.847 41.3381 116.826 41.392 116.852 41.3712C116.906 41.2841 116.957 41.1934 117.011 41.11C116.78 41.11 116.556 41.11 116.339 41.11C116.578 39.4335 119.788 38.0256 121.976 39.2956C122.951 39.4916 124.562 40.8922 124.562 40.8922C124.594 41.7844 124.569 42.6777 124.486 43.5665C124.341 45.0833 123.984 46.865 123.114 47.8592C123.33 47.3506 123.41 46.7938 123.345 46.2445C123.136 46.4517 122.877 46.6006 122.594 46.6763C122.491 46.8987 122.37 47.1122 122.233 47.3149C121.893 48.8716 121.651 50.9436 122.168 52.1374C122.633 52.1664 123.085 52.21 123.514 52.2571L123.619 52.2753C123.903 52.1079 124.175 51.9225 124.435 51.7201C127.685 49.18 124.237 46.1973 125.049 43.4649C125.862 40.7326 125.175 39.6948 122.955 39.6077C123.876 38.1308 118.026 35.7722 115.455 40.3552C113.126 44.51 112.375 46.5856 113.212 49.8332C113.527 50.8946 114.241 51.7913 115.202 52.3333C115.366 52.2883 115.532 52.2544 115.7 52.2317C116.159 52.1882 116.636 52.1374 117.105 52.1011Z" fill="#161351"/>
<path d="M112.053 58.4874C111.92 58.2518 111.8 58.0096 111.692 57.7617C111.446 58.4874 111.204 59.2132 110.969 59.9389C110.745 60.5921 110.532 61.2452 110.309 61.8693L109.973 62.7511L109.828 63.114C109.778 63.2119 109.828 63.1539 109.828 63.1829C109.674 63.3631 109.504 63.5283 109.319 63.6764C109.279 63.7163 109.229 63.7526 109.186 63.7889C110.185 64.4661 111.26 65.0227 112.388 65.4472C112.414 63.7889 112.616 62.0653 112.833 61.6044C111.533 60.6973 111.728 59.7212 112.053 58.4874Z" fill="#FFB7B7"/>
<path d="M113.317 53.5923L113.227 53.7195C113.256 53.6759 113.288 53.6359 113.321 53.5959L113.317 53.5923Z" fill="#161351"/>
<path d="M112.482 56.0238C112.477 55.225 112.718 54.4442 113.172 53.7886C112.479 54.883 111.91 56.0514 111.475 57.2721C111.475 57.2721 111.54 57.4644 111.677 57.7656C111.785 58.0135 111.905 58.2557 112.038 58.4913C112.295 57.6925 112.445 56.8626 112.482 56.0238V56.0238Z" fill="#FF981F"/>
<path d="M125.07 61.2888C124.642 60.6567 124.262 59.9932 123.933 59.3039C123.824 59.362 123.712 59.42 123.597 59.4708C122.513 58.3206 121.589 57.3916 121.589 57.3916C120.239 54.5613 121.073 52.9502 123.633 52.2934C124.03 52.3756 124.409 52.5292 124.752 52.747C124.415 52.5084 124.026 52.3519 123.618 52.2898L123.514 52.2716C123.084 52.2244 122.633 52.1809 122.167 52.1519C122.268 52.4168 119.95 55.7805 118.494 56.3139C117.899 54.8044 116.227 54.7028 116.227 54.7028C116.227 54.7028 114.667 54.3799 114.183 55.3668C114.501 53.3276 116.454 52.2535 117.104 52.1011C116.635 52.141 116.158 52.1918 115.7 52.2498C115.531 52.2725 115.365 52.3065 115.201 52.3515C114.458 52.5563 113.799 52.9935 113.32 53.5997C113.287 53.6396 113.255 53.6795 113.226 53.7231L113.172 53.792C112.718 54.4477 112.477 55.2285 112.482 56.0273C112.449 56.8642 112.305 57.6928 112.052 58.4911C111.727 59.7103 111.532 60.7009 112.807 61.6081C112.59 62.0689 112.388 63.7853 112.363 65.4508C114.158 66.1194 116.057 66.4586 117.971 66.4523C120.421 66.4486 122.843 65.9153 125.07 64.8884C125.008 63.5377 125.019 62.1847 125.102 60.8352V60.8352C125.092 60.9804 125.077 61.14 125.07 61.2888Z" fill="#FF981F"/>
<path d="M116.227 54.7028C116.227 54.7028 117.898 54.8044 118.494 56.3139C119.939 55.7624 122.268 52.4167 122.167 52.1519C122.167 52.1519 118.877 53.7557 116.227 54.7028Z" fill="white"/>
<path d="M117.111 52.1011C116.461 52.2571 114.507 53.3312 114.189 55.3669C114.673 54.3799 116.233 54.7028 116.233 54.7028C115.728 52.7941 117.111 52.1011 117.111 52.1011Z" fill="white"/>
<path d="M122.232 47.3291C121.918 47.7866 121.521 48.1806 121.062 48.4903C120.869 48.6299 120.663 48.7514 120.448 48.8531C119.975 49.6161 119.269 50.2053 118.436 50.5332V50.4715C118.267 51.248 117.895 51.923 117.1 52.108C117.1 52.108 115.717 52.8047 116.216 54.7134C118.87 53.7663 122.156 52.1733 122.156 52.1733C121.65 50.9614 121.892 48.8858 122.232 47.3291Z" fill="#FFB7B7"/>
<path d="M118.447 50.4612C118.465 50.3776 118.48 50.2977 118.494 50.2178C118.48 50.2868 118.465 50.3776 118.447 50.4612Z" fill="#161351"/>
<path opacity="0.2" d="M118.447 50.4612C118.465 50.3776 118.48 50.2977 118.494 50.2178C118.48 50.2868 118.465 50.3776 118.447 50.4612Z" fill="#161351"/>
<path d="M118.578 49.1689C118.573 49.4955 118.549 49.8214 118.506 50.1451C118.551 49.8216 118.575 49.4955 118.578 49.1689V49.1689Z" fill="#161351"/>
<path opacity="0.2" d="M118.578 49.1689C118.573 49.4955 118.549 49.8214 118.506 50.1451C118.551 49.8216 118.575 49.4955 118.578 49.1689V49.1689Z" fill="#161351"/>
<path d="M120.449 48.8354C119.867 49.1155 119.22 49.2285 118.578 49.162C118.575 49.4886 118.551 49.8147 118.506 50.1381V50.2107C118.506 50.2905 118.477 50.3704 118.459 50.4538V50.5155C119.284 50.1836 119.981 49.5948 120.449 48.8354V48.8354Z" fill="#FFB7B7"/>
<path opacity="0.2" d="M120.449 48.8354C119.867 49.1155 119.22 49.2285 118.578 49.162C118.575 49.4886 118.551 49.8147 118.506 50.1381V50.2107C118.506 50.2905 118.477 50.3704 118.459 50.4538V50.5155C119.284 50.1836 119.981 49.5948 120.449 48.8354V48.8354Z" fill="#161351"/>
<path d="M120.321 48.9189C120.537 48.8171 121.043 48.654 121.224 48.4725C121.766 48.1097 121.813 48.0229 122.127 47.5654C122.329 47.3731 122.565 46.8806 122.668 46.6582C122.6 46.6582 122.372 46.651 122.307 46.6582C121.704 46.7127 121.672 46.1792 121.946 45.5696C122.039 45.3635 122.117 45.081 122.264 44.9092C122.106 44.3912 122.261 43.8836 122.488 43.3924C121.939 42.2603 121.278 41.0665 121.224 40.3081C119.873 40.7278 118.413 41.0772 116.999 41.1126C116.945 41.196 116.584 41.6725 116.53 41.7596C116.518 41.7485 116.545 41.7652 116.53 41.7596C116.523 41.7447 116.542 41.7707 116.53 41.7596C116.529 41.7433 116.536 41.7744 116.53 41.7596C116.536 41.7443 116.53 41.7759 116.53 41.7596C116.559 41.7453 116.518 41.7905 116.53 41.7596C116.561 41.7701 116.5 41.7738 116.53 41.7596C115.85 43.1365 115.587 44.5992 115.634 46.1357C115.646 46.9122 115.942 47.6571 116.466 48.2286C116.989 48.8 117.703 49.1581 118.472 49.2346C119.106 49.3003 119.745 49.1912 120.321 48.9189Z" fill="#FFB7B7"/>
<path d="M122.85 44.4807C122.699 44.1178 122.525 43.7296 122.348 43.3667C122.121 43.8579 122.082 44.4162 122.24 44.9343C122.4 44.7317 122.611 44.5753 122.85 44.4807V44.4807Z" fill="#161351"/>
<path d="M122.849 44.481C122.609 44.5755 122.399 44.732 122.239 44.9345C122.092 45.1063 121.97 45.2981 121.877 45.5042C121.603 46.1138 121.773 46.796 122.376 46.7416C122.441 46.7416 122.509 46.7126 122.578 46.6981C122.862 46.6224 123.12 46.4735 123.329 46.2662C123.254 45.6514 123.092 45.0503 122.849 44.481Z" fill="#FFB7B7"/>
<path d="M121.247 39.8798C121.268 39.3573 121.564 39.2303 121.969 39.3101C119.78 38.0256 116.57 39.4335 116.332 41.1244C116.549 41.1244 116.773 41.1244 117.004 41.1244C118.417 41.0891 119.82 40.8583 121.171 40.4386C121.15 40.2489 121.176 40.0569 121.247 39.8798V39.8798Z" fill="#161351"/>
<path d="M121.246 39.8797C121.177 40.0524 121.151 40.2391 121.17 40.424C121.224 41.1933 121.805 42.2383 122.354 43.3596C122.531 43.7224 122.715 44.0853 122.856 44.4735C123.099 45.0429 123.261 45.644 123.336 46.2588C123.402 46.8081 123.322 47.365 123.105 47.8736C123.976 46.8793 124.333 45.0977 124.478 43.5809C124.56 42.6921 124.586 41.7987 124.553 40.9066C124.553 40.9066 122.943 39.5059 121.968 39.31C121.563 39.2302 121.267 39.3572 121.246 39.8797Z" fill="#161351"/>
<path d="M125.071 61.2887C125.071 61.1399 125.093 60.9802 125.1 60.8278C124.898 60.5049 124.692 60.1783 124.479 59.8554L124.064 59.2349L123.934 59.3038C124.263 59.9931 124.643 60.6566 125.071 61.2887V61.2887Z" fill="#161351"/>
<path opacity="0.2" d="M125.071 61.2887C125.071 61.1399 125.093 60.9802 125.1 60.8278C124.898 60.5049 124.692 60.1783 124.479 59.8554L124.064 59.2349L123.934 59.3038C124.263 59.9931 124.643 60.6566 125.071 61.2887V61.2887Z" fill="#CC7C20"/>
<path d="M126.143 64.2933V64.3514C127.584 63.5693 128.91 62.5926 130.086 61.4484C129.889 60.8631 129.658 60.29 129.393 59.7321C129.043 58.9733 128.654 58.2333 128.227 57.515C127.866 56.8909 127.483 56.2958 127.089 55.7007C126.728 56.4591 125.703 58.2843 124.074 59.2241L124.489 59.8446C124.703 60.1675 124.908 60.4941 125.111 60.8171C125.288 61.1001 125.472 61.3868 125.62 61.6698C125.898 62.1597 126.158 62.6532 126.342 63.1212L126.306 63.368C126.262 63.6692 126.208 63.9776 126.143 64.2933Z" fill="#FFB7B7"/>
<path d="M121.59 57.3917C121.59 57.3917 122.514 58.3206 123.597 59.4709C123.713 59.4201 123.825 59.362 123.933 59.304L124.063 59.235C125.692 58.2952 126.71 56.47 127.078 55.7116C127.183 55.4975 127.237 55.3669 127.237 55.3669C127.237 55.3669 126.19 53.6252 124.753 52.747C124.41 52.5293 124.031 52.3756 123.633 52.2935C121.073 52.9502 120.239 54.5614 121.59 57.3917Z" fill="#FF981F"/>
<path d="M138.903 20.9927H143.991C144.13 20.9903 144.263 20.9357 144.364 20.8397C144.465 20.7436 144.526 20.6131 144.536 20.4738V20.4738C144.541 20.4074 144.531 20.3408 144.509 20.2782C144.487 20.2156 144.452 20.1583 144.406 20.1099C144.361 20.0615 144.306 20.0231 144.245 19.997C144.184 19.971 144.118 19.9579 144.052 19.9585H138.961C138.822 19.9608 138.69 20.0149 138.589 20.1102C138.488 20.2055 138.426 20.3351 138.415 20.4738V20.4738C138.41 20.5408 138.419 20.6081 138.442 20.6714C138.464 20.7347 138.499 20.7926 138.545 20.8414C138.591 20.8903 138.647 20.929 138.708 20.955C138.77 20.9811 138.836 20.9939 138.903 20.9927V20.9927Z" fill="#421EA8"/>
<path d="M138.799 22.7741H143.887C144.026 22.7718 144.159 22.7172 144.26 22.6212C144.361 22.5251 144.422 22.3946 144.432 22.2552V22.2552C144.437 22.1886 144.428 22.1216 144.406 22.0585C144.384 21.9955 144.349 21.9377 144.304 21.8889C144.258 21.8402 144.203 21.8014 144.142 21.7751C144.081 21.7489 144.015 21.7357 143.948 21.7364H138.86C138.721 21.7378 138.587 21.792 138.485 21.8881C138.383 21.9843 138.321 22.1153 138.311 22.2552C138.307 22.322 138.317 22.3888 138.34 22.4516C138.363 22.5145 138.398 22.572 138.444 22.6206C138.489 22.6692 138.544 22.7079 138.605 22.7343C138.667 22.7607 138.732 22.7743 138.799 22.7741Z" fill="#421EA8"/>
<path d="M97.6373 22.7741H102.725C102.865 22.7719 102.998 22.7174 103.1 22.6214C103.201 22.5255 103.263 22.3949 103.274 22.2552V22.2552C103.279 22.1884 103.269 22.1213 103.247 22.0583C103.224 21.9952 103.189 21.9375 103.143 21.8888C103.097 21.8401 103.042 21.8014 102.981 21.7751C102.919 21.7489 102.853 21.7357 102.787 21.7364H97.6987C97.5595 21.7379 97.4259 21.7922 97.3248 21.8884C97.2237 21.9846 97.1625 22.1156 97.1534 22.2552C97.149 22.3218 97.1582 22.3885 97.1805 22.4514C97.2028 22.5142 97.2378 22.5717 97.2831 22.6204C97.3285 22.669 97.3834 22.7078 97.4443 22.7343C97.5052 22.7607 97.5709 22.7743 97.6373 22.7741Z" fill="#421EA8"/>
<path d="M138.694 24.5524H143.792C143.932 24.551 144.066 24.4968 144.168 24.4007C144.269 24.3045 144.331 24.1735 144.341 24.0335C144.345 23.9668 144.335 23.9 144.313 23.8372C144.29 23.7743 144.255 23.7168 144.209 23.6682C144.163 23.6196 144.108 23.5809 144.047 23.5545C143.986 23.5281 143.92 23.5145 143.854 23.5146H138.755C138.616 23.5169 138.482 23.5714 138.381 23.6674C138.279 23.7633 138.217 23.8939 138.206 24.0335V24.0335C138.202 24.1004 138.211 24.1675 138.234 24.2305C138.256 24.2936 138.291 24.3513 138.337 24.4C138.383 24.4487 138.438 24.4874 138.5 24.5137C138.561 24.5399 138.627 24.5531 138.694 24.5524Z" fill="#421EA8"/>
<path d="M132.007 89.6539H101.227C100.653 89.6593 100.083 89.5451 99.5541 89.3186C99.0253 89.092 98.5489 88.7579 98.1548 88.3373C97.7607 87.9168 97.4575 87.4188 97.2642 86.8748C97.0709 86.3308 96.9916 85.7524 97.0315 85.1762C97.1181 83.9718 97.6509 82.8438 98.5246 82.0148C99.3983 81.1859 100.55 80.7162 101.751 80.6984H132.531C133.106 80.693 133.675 80.8072 134.204 81.0338C134.733 81.2604 135.209 81.5944 135.604 82.015C135.998 82.4356 136.301 82.9335 136.494 83.4775C136.688 84.0215 136.767 84.5999 136.727 85.1762C136.64 86.3805 136.108 87.5085 135.234 88.3375C134.36 89.1665 133.209 89.6362 132.007 89.6539V89.6539Z" fill="white"/>
<path d="M131.306 101.69H100.522C99.9473 101.694 99.3777 101.579 98.8492 101.352C98.3206 101.125 97.8445 100.791 97.4505 100.37C97.0566 99.9492 96.7534 99.4513 96.5599 98.9073C96.3665 98.3633 96.2869 97.7851 96.3262 97.2087V97.2087C96.4154 96.0063 96.9492 94.881 97.8227 94.0543C98.6962 93.2276 99.8459 92.7594 101.046 92.7419H131.829C132.404 92.7365 132.974 92.8507 133.503 93.0772C134.031 93.3038 134.508 93.6379 134.902 94.0584C135.296 94.479 135.599 94.977 135.792 95.521C135.986 96.065 136.065 96.6433 136.025 97.2196C135.936 98.4224 135.402 99.5481 134.529 100.375C133.655 101.203 132.506 101.672 131.306 101.69Z" fill="white"/>
<path d="M130.603 113.722H99.8232C99.2483 113.728 98.6786 113.614 98.1498 113.387C97.621 113.16 97.1446 112.826 96.7505 112.406C96.3564 111.985 96.0532 111.487 95.8599 110.943C95.6666 110.399 95.5873 109.821 95.6272 109.245V109.245C95.7138 108.04 96.2464 106.912 97.12 106.082C97.9937 105.252 99.1449 104.782 100.347 104.763H131.127C131.702 104.758 132.271 104.873 132.8 105.1C133.329 105.327 133.805 105.661 134.199 106.082C134.593 106.503 134.897 107.001 135.09 107.546C135.283 108.09 135.362 108.668 135.323 109.245V109.245C135.236 110.449 134.703 111.577 133.829 112.406C132.956 113.235 131.805 113.705 130.603 113.722V113.722Z" fill="white"/>
<path d="M103.617 86.7806C104.555 85.8662 104.619 84.4057 103.762 83.5187C102.905 82.6316 101.45 82.6538 100.513 83.5683C99.5761 84.4828 99.5113 85.9432 100.369 86.8303C101.226 87.7173 102.68 87.6951 103.617 86.7806Z" fill="#421EA8"/>
<path d="M101.794 95.028L102.098 96.1783C102.115 96.2415 102.153 96.2971 102.205 96.3365C102.257 96.3759 102.321 96.3968 102.386 96.396H103.589C103.657 96.3967 103.722 96.4196 103.776 96.4613C103.83 96.503 103.868 96.5612 103.886 96.6271C103.903 96.6929 103.899 96.7627 103.874 96.8258C103.848 96.8889 103.802 96.9419 103.744 96.9766L102.729 97.7023C102.672 97.7409 102.628 97.7966 102.603 97.8617C102.578 97.9267 102.575 97.9979 102.592 98.0652L102.896 99.2155C102.914 99.2815 102.911 99.3515 102.888 99.416C102.865 99.4805 102.823 99.5363 102.767 99.5759C102.712 99.6155 102.645 99.637 102.577 99.6374C102.509 99.6379 102.442 99.6172 102.386 99.5783L101.455 98.8526C101.402 98.8153 101.339 98.7953 101.274 98.7953C101.21 98.7953 101.147 98.8153 101.094 98.8526L100.079 99.5783C100.026 99.6209 99.96 99.6442 99.892 99.6446C99.8241 99.6451 99.758 99.6226 99.7043 99.5807C99.6505 99.5389 99.6124 99.4802 99.5959 99.4139C99.5793 99.3477 99.5854 99.2778 99.6132 99.2155L100.05 98.0652C100.077 98.0028 100.082 97.9333 100.065 97.8675C100.048 97.8018 100.01 97.7436 99.9562 97.7023L99.0246 96.9766C98.9733 96.9323 98.9369 96.8732 98.9202 96.8073C98.9036 96.7414 98.9076 96.672 98.9317 96.6085C98.9558 96.545 98.9988 96.4905 99.0548 96.4525C99.1109 96.4145 99.1772 96.3948 99.2449 96.396H100.447C100.515 96.3961 100.582 96.3752 100.638 96.3363C100.694 96.2975 100.737 96.2423 100.761 96.1783L101.184 95.028C101.203 94.9616 101.243 94.9033 101.298 94.8618C101.353 94.8203 101.42 94.7979 101.489 94.7979C101.558 94.7979 101.625 94.8203 101.68 94.8618C101.735 94.9033 101.775 94.9616 101.794 95.028V95.028Z" fill="#421EA8"/>
<path d="M102.628 108.025L102.437 111.255C102.428 111.39 102.368 111.517 102.269 111.61C102.171 111.703 102.041 111.755 101.906 111.756H99.093C99.0308 111.752 98.97 111.736 98.9141 111.708C98.8582 111.68 98.8084 111.642 98.7677 111.594C98.7269 111.547 98.6961 111.492 98.6769 111.432C98.6577 111.373 98.6506 111.31 98.6561 111.248L98.8908 107.227C98.899 107.092 98.9579 106.964 99.0557 106.871C99.1535 106.777 99.2829 106.724 99.418 106.723H101.44L102.628 108.025Z" fill="#421EA8"/>
<path d="M101.422 106.73L102.639 108.026H101.848C101.784 108.026 101.72 108.014 101.661 107.988C101.602 107.963 101.548 107.926 101.504 107.879C101.46 107.832 101.426 107.776 101.405 107.715C101.383 107.654 101.374 107.589 101.379 107.525L101.422 106.73ZM101.101 105.841L101.05 106.709L101.003 107.503C100.997 107.619 101.014 107.735 101.053 107.844C101.092 107.953 101.152 108.053 101.231 108.138C101.31 108.222 101.406 108.289 101.512 108.335C101.618 108.381 101.733 108.404 101.848 108.403H103.502L102.91 107.768L101.697 106.473L101.101 105.841V105.841Z" fill="white"/>
<path opacity="0.2" d="M130.974 84.7005H107.94C107.846 84.7012 107.754 84.6826 107.668 84.6458C107.583 84.6091 107.505 84.555 107.441 84.4869C107.377 84.4188 107.328 84.3382 107.296 84.2501C107.265 84.162 107.251 84.0683 107.257 83.9748V83.9748C107.273 83.7793 107.36 83.5966 107.502 83.4623C107.644 83.3281 107.831 83.2521 108.026 83.249H131.057C131.15 83.2484 131.243 83.267 131.328 83.3037C131.414 83.3405 131.491 83.3946 131.556 83.4627C131.62 83.5307 131.669 83.6114 131.701 83.6995C131.732 83.7876 131.746 83.8813 131.74 83.9748V83.9748C131.725 84.1699 131.639 84.3526 131.497 84.4869C131.355 84.6212 131.169 84.6974 130.974 84.7005V84.7005Z" fill="#421EA8"/>
<path opacity="0.2" d="M126.608 87.1102H107.802C107.709 87.1109 107.617 87.0922 107.531 87.0555C107.445 87.0188 107.367 86.9648 107.303 86.8968C107.239 86.8287 107.189 86.7482 107.157 86.6601C107.125 86.5719 107.111 86.4781 107.116 86.3845V86.3845C107.132 86.189 107.219 86.0063 107.361 85.872C107.503 85.7378 107.69 85.6618 107.886 85.6587H126.691C126.785 85.6576 126.878 85.6758 126.964 85.7123C127.05 85.7488 127.128 85.8029 127.192 85.871C127.257 85.9392 127.306 86.0199 127.338 86.1083C127.37 86.1966 127.384 86.2907 127.378 86.3845V86.3845C127.361 86.5797 127.274 86.7619 127.132 86.896C126.99 87.03 126.803 87.1064 126.608 87.1102Z" fill="#421EA8"/>
<path opacity="0.2" d="M130.216 97.6841H123.86C123.665 97.6863 123.478 97.7621 123.335 97.8965C123.193 98.0308 123.106 98.214 123.091 98.4098C123.085 98.5033 123.099 98.597 123.13 98.6851C123.162 98.7732 123.211 98.8539 123.275 98.9219C123.339 98.99 123.417 99.0441 123.502 99.0809C123.588 99.1176 123.68 99.1362 123.774 99.1356H130.129C130.324 99.1334 130.512 99.0576 130.654 98.9232C130.797 98.7888 130.884 98.6056 130.898 98.4098V98.4098C130.904 98.3163 130.891 98.2226 130.859 98.1345C130.827 98.0464 130.778 97.9658 130.714 97.8977C130.65 97.8296 130.573 97.7755 130.487 97.7388C130.401 97.702 130.309 97.6834 130.216 97.6841V97.6841Z" fill="#421EA8"/>
<path opacity="0.2" d="M120.145 97.6841H107.185C106.989 97.6863 106.802 97.7621 106.66 97.8965C106.517 98.0309 106.43 98.2141 106.416 98.4099V98.4099C106.409 98.5035 106.422 98.5974 106.454 98.6858C106.485 98.7741 106.534 98.855 106.599 98.9232C106.663 98.9914 106.74 99.0455 106.826 99.082C106.912 99.1186 107.005 99.1368 107.098 99.1356H120.062C120.257 99.1326 120.444 99.0565 120.586 98.9223C120.728 98.7881 120.815 98.6053 120.831 98.4099V98.4099C120.837 98.3161 120.823 98.2221 120.791 98.1337C120.76 98.0453 120.71 97.9645 120.645 97.8964C120.581 97.8283 120.503 97.7742 120.417 97.7377C120.331 97.7012 120.238 97.6829 120.145 97.6841V97.6841Z" fill="#421EA8"/>
<path opacity="0.2" d="M126.133 95.2817H107.323C107.128 95.2839 106.94 95.3597 106.798 95.4941C106.656 95.6285 106.569 95.8117 106.554 96.0075V96.0075C106.548 96.101 106.561 96.1947 106.593 96.2828C106.625 96.3709 106.674 96.4515 106.738 96.5196C106.802 96.5877 106.88 96.6418 106.965 96.6785C107.051 96.7153 107.143 96.7339 107.237 96.7332H126.043C126.238 96.7302 126.425 96.6541 126.567 96.5199C126.709 96.3857 126.796 96.203 126.812 96.0075C126.818 95.9143 126.804 95.8209 126.773 95.733C126.741 95.6452 126.692 95.5647 126.629 95.4967C126.565 95.4287 126.488 95.3745 126.403 95.3375C126.318 95.3005 126.226 95.2815 126.133 95.2817V95.2817Z" fill="#421EA8"/>
<path opacity="0.2" d="M129.512 109.716H106.481C106.287 109.72 106.1 109.796 105.958 109.931C105.816 110.065 105.728 110.247 105.712 110.442C105.706 110.536 105.72 110.63 105.752 110.718C105.783 110.807 105.833 110.887 105.898 110.956C105.962 111.024 106.04 111.078 106.126 111.114C106.212 111.151 106.305 111.169 106.398 111.168H129.429C129.624 111.165 129.81 111.089 129.952 110.954C130.094 110.82 130.18 110.637 130.195 110.442V110.442C130.201 110.349 130.187 110.255 130.156 110.167C130.124 110.079 130.075 109.998 130.011 109.93C129.947 109.862 129.869 109.808 129.784 109.771C129.698 109.734 129.605 109.716 129.512 109.716V109.716Z" fill="#421EA8"/>
<path opacity="0.2" d="M125.428 107.311H106.622C106.427 107.314 106.24 107.39 106.098 107.524C105.956 107.658 105.868 107.841 105.853 108.036V108.036C105.847 108.13 105.86 108.224 105.892 108.312C105.924 108.4 105.973 108.48 106.037 108.548C106.101 108.616 106.178 108.671 106.264 108.707C106.35 108.744 106.442 108.763 106.535 108.762H125.345C125.54 108.759 125.726 108.683 125.868 108.548C126.01 108.414 126.096 108.231 126.11 108.036V108.036C126.116 107.943 126.103 107.849 126.071 107.761C126.04 107.673 125.99 107.592 125.926 107.524C125.862 107.456 125.785 107.402 125.699 107.365C125.614 107.328 125.521 107.31 125.428 107.311V107.311Z" fill="#421EA8"/>
</svg>
