<svg width="24" height="48" viewBox="0 0 24 48" fill="none" xmlns="http://www.w3.org/2000/svg">
<path d="M18 35C18 35.67 18 36.33 18 37C19.2 37 20.76 37 22 37C22 36.33 22 35.67 22 35C20.76 35 19.2 35 18 35Z" fill="#3C4043"/>
<path d="M16 41.61C16.96 42.32 18.21 43.26 19.2 44C19.6 43.47 20 42.93 20.4 42.4C19.41 41.66 18.16 40.72 17.2 40C16.8 40.54 16.4 41.08 16 41.61Z" fill="#3C4043"/>
<path d="M20.4 29.6C20 29.07 19.6 28.53 19.2 28C18.21 28.74 16.96 29.68 16 30.4C16.4 30.93 16.8 31.47 17.2 32C18.16 31.28 19.41 30.35 20.4 29.6Z" fill="#3C4043"/>
<path d="M4 33C2.9 33 2 33.9 2 35V37C2 38.1 2.9 39 4 39H5V43H7V39H8L13 42V30L8 33H4ZM9.03 34.71L11 33.53V38.47L9.03 37.29L8.55 37H4V35H8.55L9.03 34.71Z" fill="#3C4043"/>
<path d="M15.5 36C15.5 34.67 14.92 33.47 14 32.65V39.34C14.92 38.53 15.5 37.33 15.5 36Z" fill="#3C4043"/>
</svg>
