<svg width="41" height="40" viewBox="0 0 41 40" fill="none" xmlns="http://www.w3.org/2000/svg">
<path d="M30.4997 18.3334C30.4997 19.4501 30.4997 20.5501 30.4997 21.6667C32.4997 21.6667 35.0997 21.6667 37.1663 21.6667C37.1663 20.5501 37.1663 19.4501 37.1663 18.3334C35.0997 18.3334 32.4997 18.3334 30.4997 18.3334Z" fill="#161351"/>
<path d="M27.1663 29.3501C28.7663 30.5334 30.8497 32.1001 32.4997 33.3334C33.1663 32.4501 33.833 31.5501 34.4997 30.6667C32.8497 29.4334 30.7663 27.8667 29.1663 26.6667C28.4997 27.5667 27.833 28.4667 27.1663 29.3501Z" fill="#161351"/>
<path d="M34.4997 9.33341C33.833 8.45008 33.1663 7.55008 32.4997 6.66675C30.8497 7.90008 28.7663 9.46675 27.1663 10.6667C27.833 11.5501 28.4997 12.4501 29.1663 13.3334C30.7663 12.1334 32.8497 10.5834 34.4997 9.33341Z" fill="#161351"/>
<path d="M7.16634 15.0001C5.33301 15.0001 3.83301 16.5001 3.83301 18.3334V21.6667C3.83301 23.5001 5.33301 25.0001 7.16634 25.0001H8.83301V31.6667H12.1663V25.0001H13.833L22.1663 30.0001V10.0001L13.833 15.0001H7.16634ZM15.5497 17.8501L18.833 15.8834V24.1167L15.5497 22.1501L14.7497 21.6667H7.16634V18.3334H14.7497L15.5497 17.8501Z" fill="#161351"/>
<path d="M26.333 20.0001C26.333 17.7834 25.3663 15.7834 23.833 14.4167V25.5667C25.3663 24.2167 26.333 22.2167 26.333 20.0001Z" fill="#161351"/>
</svg>
