<svg width="40" height="40" viewBox="0 0 40 40" fill="none" xmlns="http://www.w3.org/2000/svg">
<path d="M35.0003 5H5.00033C3.16699 5 1.66699 6.5 1.66699 8.33333V28.3333C1.66699 30.1667 3.16699 31.6667 5.00033 31.6667H13.3337V35H26.667V31.6667H35.0003C36.8337 31.6667 38.3337 30.1667 38.3337 28.3333V8.33333C38.3337 6.5 36.8337 5 35.0003 5ZM35.0003 28.3333H5.00033V8.33333H35.0003V28.3333ZM31.667 13.3333H13.3337V16.6667H31.667V13.3333ZM31.667 20H13.3337V23.3333H31.667V20ZM11.667 13.3333H8.33366V16.6667H11.667V13.3333ZM11.667 20H8.33366V23.3333H11.667V20Z" fill="#161351"/>
</svg>
