<svg width="24" height="48" viewBox="0 0 24 48" fill="none" xmlns="http://www.w3.org/2000/svg">
<path d="M10.5 26C10.78 26 11 26.22 11 26.5V28.5H17V34.5H19C19.28 34.5 19.5 34.72 19.5 35C19.5 35.28 19.28 35.5 19 35.5H17V41.5H14.88C14.2 39.75 12.49 38.5 10.5 38.5C8.51 38.5 6.8 39.75 6.12 41.5H4V39.38C5.75 38.7 7 36.99 7 35C7 33.01 5.76 31.3 4.01 30.62L4 28.5H10V26.5C10 26.22 10.22 26 10.5 26ZM10.5 24C9.12 24 8 25.12 8 26.5H4C2.9 26.5 2.01 27.4 2.01 28.5V32.3H2.3C3.79 32.3 5 33.51 5 35C5 36.49 3.79 37.7 2.3 37.7H2V41.5C2 42.6 2.9 43.5 4 43.5H7.8V43.2C7.8 41.71 9.01 40.5 10.5 40.5C11.99 40.5 13.2 41.71 13.2 43.2V43.5H17C18.1 43.5 19 42.6 19 41.5V37.5C20.38 37.5 21.5 36.38 21.5 35C21.5 33.62 20.38 32.5 19 32.5V28.5C19 27.4 18.1 26.5 17 26.5H13C13 25.12 11.88 24 10.5 24Z" fill="#161351"/>
</svg>
