<svg width="236" height="140" viewBox="0 0 236 140" fill="none" xmlns="http://www.w3.org/2000/svg">
<circle cx="148.5" cy="82" r="47" fill="#F8F4FF"/>
<circle cx="89" cy="48.5" r="44.5" fill="#FFF4E8"/>
<path d="M127.164 44.0918L127.393 44.2882C127.478 44.3632 127.573 44.4346 127.664 44.506C127.848 44.6524 128.017 44.7989 128.228 44.9382C128.609 45.2203 129.014 45.4774 129.419 45.7346C130.237 46.2452 131.094 46.6883 131.981 47.0595C132.865 47.4412 133.776 47.7564 134.705 48.0024C134.938 48.0666 135.178 48.1095 135.41 48.1631L135.763 48.2416C135.837 48.2416 135.763 48.2416 135.763 48.2595C135.715 48.2709 135.669 48.2915 135.629 48.3202C135.597 48.3523 135.597 48.3523 135.611 48.3452C135.681 48.2405 135.735 48.1262 135.773 48.0059C135.898 47.5939 135.975 47.1683 136.002 46.7381C136.045 46.2703 136.059 45.7774 136.055 45.281C136.055 44.2846 135.978 43.2668 135.9 42.2454C135.823 41.224 135.699 40.199 135.569 39.1705C135.438 38.1419 135.294 37.1134 135.142 36.0991L136.467 35.792C137.051 37.8303 137.522 39.9002 137.877 41.9918C138.062 43.0555 138.19 44.1284 138.261 45.206C138.303 45.7621 138.316 46.3199 138.3 46.8774C138.295 47.4927 138.218 48.1053 138.071 48.7023C137.971 49.0841 137.809 49.4463 137.592 49.7737C137.439 49.997 137.25 50.1916 137.031 50.3487C136.781 50.5303 136.493 50.6523 136.189 50.7058C135.928 50.7505 135.661 50.7505 135.4 50.7058L134.994 50.638C134.723 50.5916 134.448 50.5558 134.18 50.4951C133.1 50.2777 132.039 49.9695 131.009 49.5737C129.979 49.1733 128.983 48.6884 128.031 48.1238C127.555 47.8345 127.09 47.5309 126.639 47.1988C126.413 47.0345 126.191 46.8417 125.969 46.6845C125.86 46.5917 125.751 46.5024 125.641 46.4024C125.532 46.3024 125.43 46.2203 125.289 46.0845L127.164 44.0918Z" fill="#FFB7B7"/>
<path d="M123.333 42.467C127.21 41.9349 130.325 45.1026 130.325 45.1026L126.78 50.6453C126.78 50.6453 122.981 48.1811 122.311 46.5026C121.621 44.7562 121.349 42.7277 123.333 42.467Z" fill="#FF981F"/>
<path d="M135.175 36.5813L133.889 33.967L137.261 33.9385C137.261 33.9385 137.328 35.7634 136.475 36.7955L135.175 36.5813Z" fill="#FFB7B7"/>
<path d="M134.488 31.1562L136.997 31.6098L137.261 33.9383L133.889 33.9669L134.488 31.1562Z" fill="#FFB7B7"/>
<path d="M109.625 128.75L112.783 129.057L114.968 121.543L111.81 121.232L109.625 128.75Z" fill="#FFB7B7"/>
<path d="M89.5488 117.636L91.8888 119.865L96.9424 114.236L94.6024 112.008L89.5488 117.636Z" fill="#FFB7B7"/>
<path d="M92.9705 118.797L91.2085 115.583C91.1785 115.528 91.1299 115.485 91.0716 115.464C91.0134 115.442 90.9493 115.442 90.8913 115.465L88.1813 116.508C88.1142 116.537 88.0539 116.58 88.0042 116.634C87.9546 116.689 87.9168 116.753 87.8932 116.823C87.8696 116.893 87.8608 116.967 87.8673 117.041C87.8738 117.114 87.8956 117.186 87.9311 117.251C88.5619 118.358 88.9249 118.861 89.6931 120.272C90.1689 121.143 91.1027 123.129 91.7547 124.336C92.4067 125.543 93.6154 124.94 93.4498 124.383C92.6956 121.883 92.8401 120.479 93.0516 119.383C93.094 119.184 93.0652 118.976 92.9705 118.797V118.797Z" fill="#161351"/>
<path d="M113.153 128.082H109.326C109.257 128.083 109.191 128.106 109.137 128.149C109.083 128.191 109.044 128.251 109.026 128.318L108.191 131.386C108.171 131.458 108.169 131.534 108.183 131.608C108.197 131.682 108.228 131.752 108.274 131.811C108.319 131.871 108.378 131.919 108.445 131.952C108.512 131.984 108.585 132.001 108.66 132C110.009 132 110.647 132 112.332 132H117.473C118.883 132 119.165 130.571 118.587 130.436C115.993 129.857 114.496 129.053 113.696 128.293C113.547 128.156 113.353 128.081 113.153 128.082V128.082Z" fill="#161351"/>
<path d="M114.967 121.543L113.839 125.418H110.59L111.806 121.236L114.967 121.543Z" fill="#FF9393"/>
<path d="M94.5984 112.011L96.942 114.236L94.3341 117.136L91.9941 114.911L94.5984 112.011Z" fill="#FF9393"/>
<path d="M127.153 40.2489C127.128 37.6526 124.809 36.7455 124.809 36.7455C124.809 36.7455 127.71 31.1814 126.219 27.4886C124.728 23.7959 119.816 23.1459 118.258 24.8708C115.52 24.753 114.649 28.7386 114.649 28.7386C114.649 28.7386 112.359 29.1278 111.742 30.8171C111.125 32.5063 113.004 34.4098 113.004 34.4098C113.004 34.4098 110.389 34.767 109.427 36.8062C108.465 38.8454 109.057 41.5525 111.946 43.8881C116.147 47.2809 123.868 43.0239 123.868 43.0239C123.868 43.0239 127.181 43.2346 127.153 40.2489Z" fill="#161351"/>
<path d="M126.656 42.8312C126.656 42.8312 128.066 43.4562 123.358 62.302L110.319 61.1556C110.995 55.7987 111.288 52.4702 109.691 41.1991C111.552 40.9761 113.426 40.8914 115.298 40.9455C117.284 40.9758 119.264 41.1489 121.226 41.4634C123.057 41.8271 124.87 42.2836 126.656 42.8312V42.8312Z" fill="#FF981F"/>
<path d="M123.276 41.9099C122.6 41.7456 121.867 41.5885 121.197 41.4635C119.236 41.1478 117.255 40.9736 115.27 40.9421C114.589 40.9171 113.909 40.9171 113.271 40.9421L113.708 41.7849C113.786 41.9349 115.647 45.4527 119.181 47.449L120.154 47.999L121.06 47.3455C123.343 45.6919 123.682 43.542 123.276 41.9099Z" fill="white"/>
<path d="M116.436 34.2314C116.644 36.1992 116.715 39.7741 115.273 40.9455C115.273 40.9455 116.923 44.1204 120.045 45.8811C122.808 43.8883 121.201 41.4634 121.201 41.4634C119.118 40.7491 119.309 39.1706 119.791 37.6992L116.436 34.2314Z" fill="#FFB7B7"/>
<path d="M117.808 35.6455L119.803 37.699C119.681 38.0403 119.589 38.3916 119.528 38.749C118.728 38.5597 117.565 37.7133 117.551 36.8419C117.567 36.4309 117.654 36.026 117.808 35.6455V35.6455Z" fill="#FF9393"/>
<path d="M116.352 29.7672C115.967 32.9814 115.738 34.3421 117.032 36.2742C118.977 39.1741 122.966 38.9455 124.288 35.917C125.479 33.1814 125.905 28.3744 123.054 26.5352C122.429 26.1274 121.712 25.8882 120.97 25.8401C120.228 25.792 119.486 25.9366 118.815 26.2603C118.144 26.584 117.565 27.076 117.134 27.6897C116.703 28.3034 116.434 29.0185 116.352 29.7672V29.7672Z" fill="#FFB7B7"/>
<path d="M118.812 25.8066C121.261 26.4495 118.84 33.9993 114.936 31.81C114.936 31.81 115.112 28.6208 116.197 27.2673C116.854 26.4609 117.789 25.9385 118.812 25.8066Z" fill="#161351"/>
<path d="M118.551 26.2243C119.608 27.9671 127.449 31.2706 124.813 27.5207C122.177 23.7708 118.551 26.2243 118.551 26.2243Z" fill="#161351"/>
<path d="M115.344 32.5493C115.3 33.1755 115.501 33.794 115.904 34.2707C116.447 34.8957 117.162 34.5171 117.388 33.76C117.589 33.0815 117.55 31.9386 116.827 31.5886C116.668 31.5174 116.494 31.4872 116.32 31.5007C116.146 31.5142 115.978 31.571 115.832 31.6661C115.685 31.7612 115.563 31.8916 115.478 32.0457C115.393 32.1998 115.347 32.3728 115.344 32.5493Z" fill="#FFB7B7"/>
<path d="M123.345 62.3021C123.345 62.3021 127.76 82.1016 124.814 96.0583C122.841 105.408 115.718 124.293 115.718 124.293L110.15 124.15C110.15 124.15 115.539 104.329 116.656 96.5369C118.562 83.2015 113.787 61.4629 113.787 61.4629L123.345 62.3021Z" fill="#421EA8"/>
<path d="M118.253 66.2983L115.469 70.7482C116.308 76.0249 116.84 81.347 117.062 86.687C120.977 79.5837 119.123 70.0589 118.253 66.2983Z" fill="#161351"/>
<path d="M116.176 124.586L109.297 124.407L109.695 122.268L117.205 122.629L116.176 124.586Z" fill="#2C197D"/>
<path d="M120.49 62.0877C120.49 62.0877 117.9 83.0871 112.282 94.5511C107.747 103.797 95.6449 117.011 95.6449 117.011L92.5508 113.779C92.5508 113.779 100.727 99.4545 104.099 93.3011C112.367 78.2194 105.608 66.7126 110.295 61.1592L120.49 62.0877Z" fill="#421EA8"/>
<path d="M95.9553 117.425L91.959 113.479L93.2876 111.65L97.6398 116.211L95.9553 117.425Z" fill="#2C197D"/>
<path d="M110.16 60.3628L109.473 61.4949C109.416 61.5842 109.519 61.6878 109.667 61.6985L123.358 62.8984C123.478 62.8984 123.58 62.8592 123.594 62.7842L123.812 61.6128C123.812 61.5306 123.731 61.4521 123.601 61.4413L110.382 60.2807C110.341 60.2737 110.299 60.2777 110.26 60.2921C110.221 60.3065 110.187 60.3308 110.16 60.3628V60.3628Z" fill="#6E29FF"/>
<path opacity="0.3" d="M110.16 60.3628L109.473 61.4949C109.416 61.5842 109.519 61.6878 109.667 61.6985L123.358 62.8984C123.478 62.8984 123.58 62.8592 123.594 62.7842L123.812 61.6128C123.812 61.5306 123.731 61.4521 123.601 61.4413L110.382 60.2807C110.341 60.2737 110.299 60.2777 110.26 60.2921C110.221 60.3065 110.187 60.3308 110.16 60.3628V60.3628Z" fill="#161351"/>
<path d="M111.81 62.0127L111.457 61.9806C111.387 61.9806 111.337 61.9342 111.344 61.8877L111.644 60.3664C111.644 60.3199 111.718 60.2878 111.788 60.2949L112.141 60.3271C112.211 60.3271 112.261 60.3735 112.254 60.4199L111.958 61.9413C111.944 61.9913 111.88 62.0127 111.81 62.0127Z" fill="#161351"/>
<path d="M122.355 62.9415L122.002 62.9093C121.932 62.9093 121.882 62.8629 121.889 62.8165L122.189 61.2915C122.189 61.2487 122.263 61.2165 122.333 61.2237L122.686 61.2558C122.756 61.2558 122.806 61.3022 122.799 61.3451L122.503 62.87C122.488 62.9165 122.429 62.945 122.355 62.9415Z" fill="#161351"/>
<path d="M117.081 62.477L116.729 62.4484C116.658 62.4484 116.609 62.3984 116.616 62.3555L116.915 60.8306C116.915 60.7877 116.989 60.7556 117.06 60.7627L117.412 60.7913C117.483 60.7913 117.532 60.8413 117.525 60.8841L117.229 62.4091C117.215 62.452 117.141 62.4841 117.081 62.477Z" fill="#161351"/>
<path d="M110.654 45.9417C110.124 47.0074 109.536 48.0423 108.892 49.0416C108.258 50.0273 107.588 50.9915 106.866 51.9201C106.136 52.8519 105.353 53.7403 104.522 54.5807C104.092 54.9914 103.673 55.4093 103.211 55.795L102.859 56.0878L102.774 56.1593L102.661 56.2485C102.587 56.31 102.509 56.3672 102.429 56.42C102.108 56.6424 101.76 56.8202 101.393 56.9485C100.701 57.1771 99.9707 57.2585 99.2466 57.1878C98.5981 57.1221 97.9594 56.9794 97.3436 56.7628C96.203 56.3595 95.1154 55.8162 94.105 55.145C92.161 53.8671 90.3705 52.3642 88.7695 50.6666L89.7069 49.6702C90.5492 50.3559 91.4373 51.038 92.3465 51.6558C93.237 52.288 94.1644 52.8652 95.1235 53.3843C96.0366 53.8927 97.0006 54.3009 97.9991 54.6022C98.9506 54.87 99.9057 54.9164 100.565 54.6379C100.937 54.4738 101.27 54.2302 101.541 53.9236C101.932 53.5665 102.295 53.1701 102.665 52.7844C103.387 51.9879 104.057 51.1344 104.716 50.2844C105.375 49.4345 105.971 48.4988 106.549 47.5702C106.841 47.1059 107.119 46.6345 107.394 46.1631C107.669 45.6917 107.934 45.1953 108.163 44.7524L110.654 45.9417Z" fill="#FFB7B7"/>
<path d="M90.5986 50.0953L89.3441 47.4668L87.2578 50.1524C87.2578 50.1524 88.6393 51.3203 89.9819 51.2774L90.5986 50.0953Z" fill="#FFB7B7"/>
<path d="M87.9735 46.6987L86.793 48.9879L87.2581 50.1522L89.3444 47.4666L87.9735 46.6987Z" fill="#FFB7B7"/>
<path d="M109.663 41.1989C108.063 41.4846 105.818 46.1381 105.818 46.1381L110.213 50.163C110.213 50.163 113.06 46.2881 112.891 44.1738C112.747 42.3703 111.7 40.8347 109.663 41.1989Z" fill="#FF981F"/>
<path d="M93.5874 120.522C93.5453 120.522 93.5036 120.515 93.464 120.5C93.0799 120.372 92.8297 119.654 92.7134 119.236C92.71 119.224 92.7101 119.211 92.7139 119.199C92.7176 119.187 92.7248 119.176 92.7346 119.168C92.7453 119.162 92.7574 119.159 92.7698 119.159C92.7822 119.159 92.7943 119.162 92.805 119.168C92.9213 119.229 93.9433 119.786 93.975 120.193C93.9798 120.238 93.9721 120.283 93.9528 120.323C93.9335 120.364 93.9033 120.398 93.8658 120.422C93.7864 120.485 93.6885 120.521 93.5874 120.522V120.522ZM92.8826 119.35C93.0588 119.925 93.2878 120.304 93.5063 120.379C93.5562 120.394 93.609 120.396 93.6597 120.384C93.7104 120.372 93.7571 120.347 93.7953 120.311C93.8146 120.3 93.8301 120.283 93.8401 120.262C93.8501 120.242 93.8541 120.219 93.8517 120.197C93.8306 119.947 93.2315 119.55 92.879 119.35H92.8826Z" fill="#6E29FF"/>
<path d="M93.7451 119.511C93.3967 119.51 93.0532 119.428 92.7407 119.272C92.7309 119.267 92.7227 119.259 92.717 119.25C92.7114 119.24 92.7086 119.229 92.709 119.218C92.7091 119.206 92.7124 119.194 92.7187 119.184C92.7249 119.174 92.7338 119.166 92.7443 119.161C92.776 119.161 93.5865 118.693 94.0235 118.85C94.0773 118.868 94.1264 118.898 94.1672 118.937C94.2081 118.977 94.2397 119.025 94.2596 119.079C94.2875 119.13 94.2971 119.19 94.2868 119.248C94.2766 119.306 94.2471 119.358 94.2032 119.397C94.0669 119.484 93.906 119.524 93.7451 119.511V119.511ZM92.9134 119.218C93.2658 119.368 93.9319 119.461 94.1222 119.297C94.1539 119.272 94.1821 119.225 94.1433 119.125C94.1293 119.089 94.1075 119.056 94.0795 119.03C94.0514 119.003 94.0178 118.983 93.9812 118.972C93.6817 118.864 93.1425 119.104 92.9134 119.218Z" fill="#6E29FF"/>
<path d="M114.851 128.711C114.495 128.703 114.141 128.657 113.794 128.575C113.781 128.572 113.769 128.565 113.76 128.555C113.751 128.545 113.746 128.532 113.745 128.518C113.743 128.505 113.745 128.491 113.752 128.48C113.758 128.468 113.768 128.459 113.78 128.454C113.939 128.379 115.324 127.739 115.676 127.968C115.707 127.99 115.732 128.02 115.749 128.055C115.765 128.091 115.771 128.129 115.768 128.168C115.763 128.238 115.744 128.306 115.711 128.368C115.678 128.43 115.633 128.483 115.577 128.525C115.359 128.66 115.106 128.724 114.851 128.711V128.711ZM114.027 128.489C114.439 128.568 115.2 128.668 115.514 128.429C115.555 128.397 115.589 128.357 115.614 128.311C115.638 128.264 115.652 128.213 115.655 128.161C115.657 128.145 115.655 128.128 115.649 128.113C115.642 128.098 115.632 128.085 115.62 128.075C115.422 127.939 114.601 128.232 114.027 128.489Z" fill="#6E29FF"/>
<path d="M113.823 128.575C113.809 128.58 113.794 128.58 113.78 128.575C113.772 128.567 113.765 128.557 113.761 128.546C113.758 128.534 113.757 128.522 113.759 128.511C113.759 128.454 114.09 127.064 114.841 127.154C115.031 127.175 115.081 127.271 115.091 127.346C115.141 127.704 114.263 128.418 113.847 128.586L113.823 128.575ZM114.774 127.264C114.291 127.264 114.013 128.071 113.918 128.396C114.372 128.154 114.996 127.575 114.975 127.35C114.975 127.332 114.975 127.282 114.838 127.268L114.774 127.264Z" fill="#6E29FF"/>
<path opacity="0.6" d="M94.7608 10.7749L84.4316 78.4408L142.551 87.5405L152.88 19.8711L94.7608 10.7749ZM118.64 49.2631C115.972 48.8447 113.487 47.6338 111.499 45.7837C109.51 43.9336 108.108 41.5274 107.469 38.8694C106.83 36.2115 106.984 33.4213 107.91 30.8519C108.837 28.2824 110.495 26.0491 112.674 24.4346C114.853 22.8201 117.456 21.8968 120.153 21.7817C122.85 21.6665 125.52 22.3646 127.825 23.7877C130.131 25.2107 131.968 27.2948 133.104 29.7761C134.241 32.2575 134.625 35.0247 134.209 37.7277C133.652 41.3488 131.7 44.5976 128.78 46.7606C125.861 48.9235 122.214 49.8236 118.64 49.2631Z" fill="#A87FFF"/>
<g style="mix-blend-mode:multiply" opacity="0.3">
<path d="M140.795 84.9727H140.707L82.5 75.8337V75.7444L92.8573 8H92.9419L151.149 17.139V17.2283L140.795 84.9727ZM82.7009 75.6873L140.647 84.7692L150.948 17.2712L93.0018 8.20357L82.7009 75.6873Z" fill="#6E29FF"/>
</g>
<path d="M120.733 49.9632C120.005 49.9624 119.278 49.9051 118.559 49.7918V49.7918C114.944 49.2202 111.687 47.2518 109.473 44.2997C107.259 41.3475 106.259 37.641 106.683 33.9579C107.108 30.2748 108.923 26.9013 111.749 24.5454C114.574 22.1894 118.19 21.0339 121.838 21.3216C125.486 21.6092 128.883 23.3174 131.315 26.0879C133.747 28.8584 135.026 32.4758 134.883 36.1811C134.74 39.8864 133.186 43.3916 130.548 45.9612C127.91 48.5308 124.392 49.9651 120.733 49.9632ZM118.721 48.7347C121.284 49.136 123.907 48.7581 126.258 47.6489C128.609 46.5397 130.583 44.749 131.929 42.5031C133.276 40.2573 133.936 37.6572 133.824 35.0315C133.713 32.4059 132.836 29.8726 131.304 27.752C129.772 25.6314 127.655 24.0187 125.218 23.1179C122.782 22.217 120.137 22.0684 117.618 22.6908C115.098 23.3132 112.817 24.6787 111.063 26.6147C109.31 28.5507 108.162 30.9702 107.765 33.5673C107.237 37.0504 108.094 40.6034 110.148 43.4468C112.202 46.2903 115.285 48.192 118.721 48.7347V48.7347Z" fill="white"/>
<path d="M107.414 53.4495L94.6113 51.4434L94.1665 54.3586L106.969 56.3648L107.414 53.4495Z" fill="#6E29FF"/>
<path opacity="0.6" d="M107.414 53.4495L94.6113 51.4434L94.1665 54.3586L106.969 56.3648L107.414 53.4495Z" fill="white"/>
<path d="M117.761 55.0716L109.1 53.7144L108.655 56.6296L117.316 57.9869L117.761 55.0716Z" fill="#6E29FF"/>
<path opacity="0.6" d="M117.761 55.0716L109.1 53.7144L108.655 56.6296L117.316 57.9869L117.761 55.0716Z" fill="white"/>
<path d="M140.003 64.6052L93.707 57.3506L93.2622 60.2659L139.558 67.5205L140.003 64.6052Z" fill="white"/>
<path d="M116.159 67.0551L93.0977 63.5142L92.661 66.4346L115.722 69.9755L116.159 67.0551Z" fill="white"/>
<path d="M135.123 70.1877L119.723 67.7744L119.278 70.6897L134.678 73.103L135.123 70.1877Z" fill="white"/>
<path d="M128.827 75.5501L91.8164 69.7505L91.3716 72.6658L128.382 78.4654L128.827 75.5501Z" fill="white"/>
<path d="M153.5 87.5407H153.148C153.149 86.6544 153.041 85.7714 152.827 84.9122L153.179 84.8265C153.397 85.7142 153.505 86.6259 153.5 87.5407V87.5407ZM152.119 82.9265C151.343 81.282 150.171 79.8621 148.711 78.7981L148.915 78.5088C150.423 79.6062 151.635 81.07 152.439 82.7658L152.119 82.9265Z" fill="#6E29FF"/>
<path opacity="0.6" d="M153.5 87.5407H153.148C153.149 86.6544 153.041 85.7714 152.827 84.9122L153.179 84.8265C153.397 85.7142 153.505 86.6259 153.5 87.5407V87.5407ZM152.119 82.9265C151.343 81.282 150.171 79.8621 148.711 78.7981L148.915 78.5088C150.423 79.6062 151.635 81.07 152.439 82.7658L152.119 82.9265Z" fill="white"/>
<path d="M142.55 77.6943C140.628 77.6943 138.75 78.2718 137.152 79.3537C135.554 80.4356 134.309 81.9734 133.574 83.7725C132.838 85.5717 132.646 87.5514 133.021 89.4614C133.396 91.3713 134.321 93.1257 135.68 94.5028C137.039 95.8798 138.77 96.8175 140.654 97.1974C142.539 97.5773 144.493 97.3824 146.268 96.6371C148.043 95.8919 149.561 94.6299 150.628 93.0107C151.696 91.3915 152.266 89.4879 152.266 87.5405C152.266 84.9291 151.242 82.4247 149.42 80.5782C147.598 78.7317 145.127 77.6943 142.55 77.6943ZM142.55 96.1117C140.877 96.1117 139.242 95.609 137.851 94.6672C136.46 93.7253 135.376 92.3867 134.736 90.8205C134.096 89.2543 133.928 87.531 134.255 85.8683C134.581 84.2057 135.386 82.6784 136.569 81.4797C137.752 80.281 139.259 79.4647 140.9 79.134C142.541 78.8033 144.241 78.973 145.787 79.6217C147.332 80.2705 148.653 81.3691 149.582 82.7786C150.512 84.1881 151.008 85.8453 151.008 87.5405C151.008 89.8137 150.117 91.9938 148.53 93.6012C146.944 95.2086 144.793 96.1117 142.55 96.1117Z" fill="#6E29FF"/>
<path opacity="0.6" d="M142.55 77.6943C140.628 77.6943 138.75 78.2718 137.152 79.3537C135.554 80.4356 134.309 81.9734 133.574 83.7725C132.838 85.5717 132.646 87.5514 133.021 89.4614C133.396 91.3713 134.321 93.1257 135.68 94.5028C137.039 95.8798 138.77 96.8175 140.654 97.1974C142.539 97.5773 144.493 97.3824 146.268 96.6371C148.043 95.8919 149.561 94.6299 150.628 93.0107C151.696 91.3915 152.266 89.4879 152.266 87.5405C152.266 84.9291 151.242 82.4247 149.42 80.5782C147.598 78.7317 145.127 77.6943 142.55 77.6943ZM142.55 96.1117C140.877 96.1117 139.242 95.609 137.851 94.6672C136.46 93.7253 135.376 92.3867 134.736 90.8205C134.096 89.2543 133.928 87.531 134.255 85.8683C134.581 84.2057 135.386 82.6784 136.569 81.4797C137.752 80.281 139.259 79.4647 140.9 79.134C142.541 78.8033 144.241 78.973 145.787 79.6217C147.332 80.2705 148.653 81.3691 149.582 82.7786C150.512 84.1881 151.008 85.8453 151.008 87.5405C151.008 89.8137 150.117 91.9938 148.53 93.6012C146.944 95.2086 144.793 96.1117 142.55 96.1117Z" fill="white"/>
<path d="M142.55 96.1084C147.219 96.1084 151.004 92.2725 151.004 87.5408C151.004 82.809 147.219 78.9731 142.55 78.9731C137.881 78.9731 134.096 82.809 134.096 87.5408C134.096 92.2725 137.881 96.1084 142.55 96.1084Z" fill="#FF981F"/>
<path d="M141.235 92.9618L136.273 87.9333L137.521 86.6727L141.235 90.4368L147.582 84.0049L148.826 85.2691L141.235 92.9618Z" fill="white"/>
</svg>
