<svg width="236" height="140" viewBox="0 0 236 140" fill="none" xmlns="http://www.w3.org/2000/svg">
<circle cx="140" cy="91.5" r="40.5" fill="#F8F4FF"/>
<circle cx="86.5" cy="48" r="40" fill="#FFF4E8"/>
<circle cx="155" cy="53.5" r="40.5" fill="#F8F4FF"/>
<circle cx="91" cy="77.5" r="44.5" fill="#FFF4E8"/>
<path d="M94.8984 116.927V117.738C94.8979 117.834 94.921 117.929 94.9665 118.017C95.0119 118.105 95.0787 118.185 95.1631 118.253C95.2475 118.32 95.3477 118.374 95.458 118.41C95.5684 118.447 95.6866 118.465 95.8059 118.465H133.446C133.707 118.464 133.957 118.381 134.141 118.234C134.326 118.087 134.431 117.887 134.433 117.678V116.835C134.433 116.613 134.401 116.392 134.338 116.176C134.284 115.987 134.207 115.803 134.109 115.626L124.952 99.4189H103.571L106.853 114.597C106.874 114.685 106.883 114.775 106.881 114.865C106.872 115.224 106.687 115.565 106.365 115.816C106.044 116.066 105.613 116.206 105.165 116.204H95.8059C95.6869 116.204 95.569 116.222 95.4589 116.258C95.3489 116.294 95.2488 116.347 95.1645 116.415C95.0802 116.482 95.0133 116.562 94.9676 116.65C94.9219 116.738 94.8984 116.832 94.8984 116.927Z" fill="#C5A9FF"/>
<path d="M135.317 115.629L126.163 99.4189H124.952L134.105 115.629C134.32 116.008 134.432 116.419 134.433 116.835V117.675C134.433 117.885 134.329 118.085 134.144 118.233C133.959 118.382 133.708 118.465 133.446 118.465H134.658C134.787 118.465 134.915 118.444 135.035 118.405C135.154 118.365 135.262 118.307 135.354 118.233C135.445 118.16 135.517 118.073 135.566 117.977C135.616 117.881 135.641 117.779 135.64 117.675V116.835C135.64 116.42 135.53 116.008 135.317 115.629Z" fill="#8B54FF"/>
<path opacity="0.3" d="M124.952 99.4189H103.571L104.411 103.293H127.137L124.952 99.4189Z" fill="#161351"/>
<path d="M167.098 45.7014L161.969 92.7474L161.345 98.4498C161.254 99.1729 160.834 99.8441 160.166 100.336C159.498 100.829 158.627 101.108 157.719 101.121H66.4828C66.0557 101.127 65.6319 101.059 65.2398 100.924C64.8476 100.788 64.496 100.588 64.2082 100.335C63.9205 100.082 63.7033 99.7835 63.5709 99.4585C63.4386 99.1335 63.3942 98.7896 63.4408 98.4498L64.0642 92.7474L69.1934 45.7014C69.285 44.9786 69.7047 44.3078 70.3729 43.8161C71.0412 43.3244 71.9116 43.0459 72.8193 43.0333H164.04C164.758 43.0271 165.455 43.2214 166.013 43.5827C166.088 43.6312 166.16 43.684 166.226 43.7406C166.433 43.9044 166.608 44.0929 166.743 44.2995C166.839 44.4373 166.914 44.5835 166.968 44.7352C167.088 45.0477 167.132 45.3756 167.098 45.7014Z" fill="#C5A9FF"/>
<path d="M64.068 92.7471L63.4288 98.4494C63.3829 98.7894 63.4278 99.1333 63.5606 99.4583C63.6934 99.7834 63.9111 100.082 64.1991 100.335C64.4872 100.587 64.839 100.788 65.2313 100.923C65.6237 101.059 66.0475 101.126 66.4748 101.121H157.703C158.612 101.107 159.482 100.828 160.15 100.336C160.818 99.8437 161.238 99.1725 161.329 98.4494L161.953 92.7471H64.068Z" fill="#C5A9FF"/>
<path d="M158.737 91.1336H67.6387C67.4073 91.137 67.1776 91.1008 66.965 91.0276C66.7524 90.9543 66.5617 90.8457 66.4056 90.7089C66.2496 90.572 66.1318 90.4102 66.06 90.2341C65.9883 90.058 65.9642 89.8716 65.9895 89.6875L70.7557 46.0926C70.805 45.6994 71.0333 45.3344 71.397 45.0672C71.7608 44.7999 72.2347 44.6491 72.7284 44.6433H163.819C164.051 44.6399 164.281 44.6761 164.494 44.7495C164.707 44.823 164.898 44.9319 165.054 45.0691C165.21 45.2063 165.328 45.3685 165.399 45.545C165.471 45.7215 165.494 45.9082 165.468 46.0926L160.702 89.6875C160.652 90.0791 160.424 90.4424 160.062 90.7089C159.7 90.9753 159.229 91.1264 158.737 91.1336Z" fill="white"/>
<path d="M166.072 43.0332H164.04C164.467 43.0271 164.89 43.0939 165.283 43.229C165.675 43.3642 166.026 43.5647 166.314 43.8171C166.602 44.0695 166.819 44.3681 166.952 44.693C167.084 45.0178 167.128 45.3615 167.082 45.7012L161.329 98.4496C161.238 99.1727 160.818 99.8439 160.15 100.336C159.482 100.828 158.611 101.108 157.703 101.121H159.72C160.628 101.108 161.499 100.829 162.168 100.336C162.837 99.8442 163.257 99.173 163.349 98.4496L169.114 45.7012C169.161 45.3614 169.117 45.0175 168.985 44.6924C168.853 44.3673 168.636 44.0685 168.348 43.816C168.06 43.5634 167.708 43.363 167.315 43.228C166.923 43.093 166.499 43.0266 166.072 43.0332Z" fill="#8B54FF"/>
<g opacity="0.1">
<path d="M101.748 44.6436H98.244L85.8984 91.1339H89.4021L101.748 44.6436Z" fill="white"/>
<path d="M82.3555 91.1339L94.705 44.6436H81.5387L69.1892 91.1339H82.3555Z" fill="white"/>
</g>
<path opacity="0.2" d="M127.926 116.934V117.704C127.926 117.905 127.827 118.098 127.649 118.241C127.472 118.384 127.231 118.464 126.98 118.465H95.8098C95.5691 118.465 95.3383 118.388 95.1681 118.252C94.9979 118.116 94.9023 117.931 94.9023 117.739V116.93C94.9023 116.738 94.9979 116.553 95.1681 116.417C95.3383 116.281 95.5691 116.204 95.8098 116.204H105.173C105.291 116.204 105.408 116.195 105.524 116.176H126.983C127.234 116.177 127.474 116.257 127.651 116.399C127.827 116.541 127.926 116.733 127.926 116.934Z" fill="white"/>
<path opacity="0.2" d="M134.338 116.176H105.536C105.914 116.112 106.254 115.948 106.501 115.71C106.748 115.472 106.887 115.174 106.897 114.865H133.616L134.338 116.176Z" fill="#161351"/>
<path opacity="0.3" d="M161.582 52.3188H117.739V92.7406H161.582V52.3188Z" fill="#FFAD4C"/>
<path d="M159.27 48.0532H115.51V90.9725H159.27V48.0532Z" fill="white"/>
<path d="M159.27 48.0532H115.51V50.5918H159.27V48.0532Z" fill="#CC7C20"/>
<path opacity="0.1" d="M159.27 50.5918H127.642V90.9725H159.27V50.5918Z" fill="#FF981F"/>
<path opacity="0.3" d="M138.086 51.5581H129.201V59.7801H138.086V51.5581Z" fill="#FF981F"/>
<path opacity="0.3" d="M158.204 51.5581H139.775V54.9429H158.204V51.5581Z" fill="#FF981F"/>
<path opacity="0.3" d="M158.204 56.395H139.775V74.6514H158.204V56.395Z" fill="#FF981F"/>
<path opacity="0.3" d="M158.204 76.1011H139.775V89.7634H158.204V76.1011Z" fill="#FF981F"/>
<path d="M139.779 62.9219H127.544V66.0667H139.779V62.9219Z" fill="#FFAD4C"/>
<path d="M127.745 56.395H115.51V59.5398H127.745V56.395Z" fill="#996122"/>
<path d="M158.204 79.0942H139.775V80.7269H158.204V79.0942Z" fill="#FF981F"/>
<path d="M126.218 52.1484H117.041V52.4642H126.218V52.1484Z" fill="#FF981F"/>
<path d="M126.218 54.188H117.041V54.5038H126.218V54.188Z" fill="#FF981F"/>
<path d="M126.218 61.7441H117.041V62.0599H126.218V61.7441Z" fill="#FF981F"/>
<path opacity="0.3" d="M131.079 43.6584V75.6908H87.2402V35.269H128.775V43.6584H131.079Z" fill="#FF981F"/>
<path d="M128.775 31H85.0149V73.9193H128.775V31Z" fill="white"/>
<path d="M128.771 31H85.011V33.5386H128.771V31Z" fill="#161351"/>
<path opacity="0.1" d="M128.775 33.5386H97.1475V73.9192H128.775V33.5386Z" fill="#FF981F"/>
<path opacity="0.3" d="M107.583 34.5049H98.7019V42.7269H107.583V34.5049Z" fill="#6E29FF"/>
<path opacity="0.3" d="M127.71 34.5049H109.28V37.8897H127.71V34.5049Z" fill="#6E29FF"/>
<path opacity="0.3" d="M127.71 39.3418H109.28V57.5982H127.71V39.3418Z" fill="#6E29FF"/>
<path opacity="0.1" d="M127.71 59.0479H109.28V72.7101H127.71V59.0479Z" fill="#6E29FF"/>
<path d="M109.28 45.8716H97.0449V49.0164H109.28V45.8716Z" fill="#421EA8"/>
<path d="M97.2461 39.3418H85.011V42.4866H97.2461V39.3418Z" fill="#2C197D"/>
<path d="M127.71 62.041H109.28V63.6736H127.71V62.041Z" fill="#6E29FF"/>
<path opacity="0.3" d="M112.701 52.4141H68.8579V92.8358H112.701V52.4141Z" fill="#FF981F"/>
<path d="M110.389 48.145H66.6287V91.0643H110.389V48.145Z" fill="white"/>
<path d="M110.389 48.145H66.6287V50.6836H110.389V48.145Z" fill="#FF981F"/>
<path opacity="0.1" d="M110.393 50.687H78.7651V91.0677H110.393V50.687Z" fill="#FF981F"/>
<path opacity="0.4" d="M89.201 51.6528H80.3196V59.8748H89.201V51.6528Z" fill="#FF981F"/>
<path opacity="0.4" d="M109.327 51.6528H90.8977V55.0376H109.327V51.6528Z" fill="#FF981F"/>
<path opacity="0.4" d="M109.327 56.4868H90.8977V74.7432H109.327V56.4868Z" fill="#FF981F"/>
<path opacity="0.4" d="M109.327 76.1958H90.8977V89.8581H109.327V76.1958Z" fill="#FF981F"/>
<path d="M90.8977 63.0166H78.6626V66.1614H90.8977V63.0166Z" fill="#CC7C20"/>
<path d="M78.8638 56.4868H66.6287V59.6316H78.8638V56.4868Z" fill="#FF981F"/>
<path d="M109.327 79.186H90.8977V80.8187H109.327V79.186Z" fill="#FF981F"/>
</svg>
