<svg width="236" height="144" viewBox="0 0 236 144" fill="none" xmlns="http://www.w3.org/2000/svg">
<circle cx="143" cy="50.5" r="50.5" fill="#FFF4E8"/>
<circle cx="96" cy="92.5" r="39.5" fill="#F8F4FF"/>
<path d="M107.819 40.8248L107.954 41.2839L108.078 41.6729C108.163 41.9336 108.256 42.1748 108.349 42.4238C108.535 42.9101 108.736 43.3848 108.956 43.8556C109.385 44.7916 109.87 45.7011 110.407 46.579C110.674 47.0186 110.956 47.4427 111.242 47.8668C111.529 48.2909 111.834 48.6994 112.155 49.1001C112.785 49.9102 113.46 50.6832 114.178 51.415L114.329 51.5706C114.537 51.7854 114.784 51.9583 115.056 52.0803C115.862 52.4349 116.738 52.5987 117.617 52.5589C118.382 52.5172 119.134 52.3394 119.837 52.0336C120.427 51.7831 120.984 51.4617 121.497 51.0765C121.957 50.7385 122.393 50.368 122.8 49.9677C123.541 49.2217 124.21 48.4062 124.796 47.5322C125.083 47.112 125.346 46.6802 125.597 46.2444C125.849 45.8087 126.065 45.3729 126.301 44.871C126.455 44.544 126.491 44.1732 126.402 43.8225C126.314 43.4718 126.107 43.163 125.816 42.9493C125.526 42.7356 125.171 42.6304 124.812 42.6516C124.453 42.6729 124.112 42.8193 123.849 43.0658L123.748 43.1591L122.804 44.0306C122.483 44.3263 122.154 44.6103 121.826 44.8827C121.203 45.4139 120.544 45.9002 119.853 46.3378C119.313 46.7001 118.713 46.9635 118.081 47.1159C117.921 47.1614 117.751 47.1614 117.59 47.1159C117.537 47.0921 117.493 47.051 117.466 46.9992L118.356 47.6761C117.865 47.007 117.389 46.33 116.952 45.6297C116.515 44.9294 116.097 44.2057 115.706 43.4782C115.316 42.7506 114.956 41.9998 114.623 41.2489C114.453 40.8598 114.302 40.4941 114.147 40.1206L113.761 39.1012L113.652 38.8211C113.343 38.1035 112.777 37.5291 112.067 37.2121C111.356 36.8951 110.553 36.8587 109.817 37.1103C109.081 37.3618 108.466 37.8828 108.094 38.5696C107.722 39.2564 107.622 40.0587 107.811 40.817L107.819 40.8248Z" fill="#161351"/>
<path d="M125.206 44.89L127.821 43.9757L128.37 40.373C128.37 40.373 123.988 41.5402 124.007 43.6645L125.206 44.89Z" fill="#CE7A63"/>
<path d="M109.803 26.122C111.509 25.519 113.865 23.4647 112.94 20.8074C112.236 18.7921 109.629 18.6131 108.604 19.2162C107.579 19.8192 107.536 18.582 106.225 18.1074C104.914 17.6327 103.989 18.8271 103.324 19.4535C102.659 20.0799 101.881 19.6052 100.895 19.648C99.9085 19.6908 99.2044 20.9903 99.7537 21.9396C100.721 23.6048 99.1232 24.663 100.334 25.9625C102.117 27.8494 100.721 29.7014 103.235 31.5805C104.763 32.7321 109.103 30.6195 109.803 26.122Z" fill="#263238"/>
<path d="M109.834 27.8807C109.898 27.9188 109.969 27.9415 110.043 27.9469C110.171 27.9577 110.298 27.9171 110.397 27.8341C110.495 27.751 110.557 27.6321 110.569 27.5033C110.654 26.7312 110.554 25.9498 110.277 25.2248C109.999 24.4997 109.553 23.8522 108.975 23.3365C108.925 23.2965 108.868 23.2669 108.806 23.2495C108.745 23.2321 108.68 23.2272 108.617 23.2352C108.554 23.2431 108.492 23.2638 108.437 23.2959C108.382 23.328 108.333 23.3709 108.294 23.4221C108.255 23.4721 108.225 23.5295 108.208 23.5911C108.19 23.6526 108.185 23.717 108.192 23.7806C108.199 23.8443 108.219 23.9058 108.249 23.9618C108.28 24.0178 108.322 24.0671 108.372 24.1068C108.824 24.5205 109.171 25.0368 109.384 25.6127C109.597 26.1886 109.671 26.8075 109.598 27.4178C109.59 27.5094 109.608 27.6015 109.65 27.6833C109.692 27.7652 109.755 27.8336 109.834 27.8807Z" fill="#263238"/>
<path d="M112.616 36.934C112.616 36.934 116.047 45.7656 112.79 62.2229H97.2357C97.1274 59.8224 98.6282 48.1078 96.3266 36.7939C98.0462 36.4613 99.7854 36.2404 101.533 36.1325C103.735 36.004 105.942 36.004 108.144 36.1325C109.653 36.2814 111.148 36.5493 112.616 36.934Z" fill="white"/>
<path d="M102.187 28.6196C102.604 30.7595 103.018 34.6812 101.533 36.1091C101.533 36.1091 104.024 38.1399 106.643 40.1942C107.221 39.7008 107.664 39.0655 107.927 38.3499C108.19 37.6342 108.264 36.8623 108.144 36.1091C105.772 35.541 105.823 33.7747 106.244 32.1056L102.187 28.6196Z" fill="#CE7A63"/>
<path opacity="0.2" d="M103.839 30.0552L106.241 32.1172C106.138 32.4994 106.07 32.89 106.036 33.2844C105.262 34.0236 103.885 32.1522 103.788 31.199C103.737 30.8178 103.754 30.4304 103.839 30.0552Z" fill="black"/>
<path d="M102.214 25.0208C102.106 27.9232 101.897 29.6156 103.196 31.2457C105.158 33.689 108.825 32.7203 109.792 29.9074C110.662 27.3785 110.693 23.0599 107.997 21.6359C107.405 21.3189 106.743 21.159 106.073 21.1716C105.403 21.1842 104.747 21.3687 104.168 21.7078C103.588 22.0469 103.105 22.5292 102.763 23.109C102.421 23.6888 102.232 24.3469 102.214 25.0208Z" fill="#CE7A63"/>
<path d="M102.291 27.7058C103.084 29.262 103.997 24.3404 103.765 23.5195C106.569 24.2976 110.871 24.0408 110.538 22.0722C110.151 19.8506 107.583 19.7651 104.736 20.0374C100.036 20.4926 101.432 26.0173 102.291 27.7058Z" fill="#263238"/>
<path d="M103.68 27.9816C103.753 27.9858 103.826 27.9725 103.893 27.9427C103.951 27.9169 104.004 27.8798 104.049 27.8333C104.093 27.7869 104.128 27.7322 104.152 27.6722C104.175 27.6122 104.186 27.5482 104.185 27.4838C104.184 27.4194 104.17 27.3559 104.144 27.2969C103.852 26.5782 103.392 25.9406 102.804 25.4376C102.215 24.9347 101.516 24.5809 100.763 24.4061C100.638 24.3834 100.508 24.4115 100.403 24.4844C100.298 24.5573 100.226 24.669 100.202 24.7952C100.182 24.9213 100.211 25.0505 100.283 25.1557C100.355 25.2609 100.465 25.3338 100.589 25.3593C101.185 25.5074 101.736 25.7965 102.198 26.2026C102.659 26.6087 103.018 27.1199 103.243 27.6937C103.28 27.7793 103.341 27.8522 103.419 27.9034C103.496 27.9546 103.587 27.9817 103.68 27.9816Z" fill="#263238"/>
<path d="M100.775 27.0636C100.927 27.7626 101.329 28.3812 101.904 28.8027C102.659 29.3318 103.254 28.6821 103.235 27.7678C103.216 26.9468 102.798 25.6863 101.955 25.5229C101.111 25.3595 100.585 26.2037 100.775 27.0636Z" fill="#CE7A63"/>
<path d="M114.368 135.756C114.728 135.845 115.087 135.88 115.242 135.756C115.282 135.719 115.309 135.671 115.32 135.618C115.331 135.565 115.325 135.51 115.304 135.46C115.291 135.415 115.268 135.374 115.238 135.339C115.209 135.303 115.171 135.274 115.13 135.254C114.693 135.009 113.583 135.328 113.532 135.343C113.518 135.347 113.505 135.355 113.496 135.367C113.487 135.378 113.482 135.393 113.482 135.408C113.482 135.422 113.487 135.437 113.496 135.448C113.505 135.46 113.518 135.468 113.532 135.472C113.802 135.59 114.082 135.685 114.368 135.756ZM114.94 135.316C114.983 135.326 115.025 135.342 115.064 135.363C115.09 135.375 115.112 135.393 115.131 135.414C115.15 135.435 115.164 135.46 115.172 135.487C115.203 135.585 115.172 135.62 115.153 135.639C114.979 135.791 114.267 135.62 113.76 135.413C114.144 135.305 114.544 135.272 114.94 135.316Z" fill="#161351"/>
<path d="M113.536 135.464H113.563C113.95 135.397 114.754 134.95 114.778 134.615C114.778 134.538 114.751 134.429 114.573 134.366C114.446 134.323 114.307 134.331 114.186 134.39C113.76 134.596 113.509 135.343 113.497 135.374C113.491 135.385 113.487 135.397 113.487 135.409C113.487 135.422 113.491 135.434 113.497 135.444C113.508 135.454 113.521 135.461 113.536 135.464ZM114.487 134.483H114.526C114.646 134.522 114.642 134.573 114.638 134.588C114.638 134.791 114.058 135.156 113.664 135.281C113.769 134.968 113.969 134.696 114.236 134.503C114.315 134.468 114.404 134.461 114.487 134.483Z" fill="#161351"/>
<path d="M109.308 136.39L112.221 136.822L112.128 130.107L109.215 129.679L109.308 136.39Z" fill="#CE7A63"/>
<path d="M112.658 135.086H108.84C108.784 135.085 108.729 135.104 108.686 135.141C108.644 135.177 108.616 135.228 108.608 135.284L108.221 137.872C108.214 137.937 108.22 138.002 108.239 138.065C108.259 138.127 108.291 138.185 108.334 138.233C108.377 138.282 108.43 138.321 108.489 138.348C108.549 138.375 108.613 138.389 108.678 138.389C109.819 138.37 111.459 138.304 112.894 138.304C114.569 138.304 116.074 138.393 118.039 138.393C119.226 138.393 119.447 137.261 118.956 137.078C116.758 136.249 115.582 136.109 113.358 135.312C113.139 135.198 112.902 135.122 112.658 135.086Z" fill="#161351"/>
<path opacity="0.2" d="M112.128 130.111L112.179 133.569L109.262 133.137L109.212 129.679L112.128 130.111Z" fill="black"/>
<path d="M110.801 135.293C110.821 134.052 110.434 132.056 113.509 133.277C115.343 134.001 112.855 136.129 112.855 136.129L110.801 135.293Z" fill="#161351"/>
<path d="M112.789 62.2114C112.789 62.2114 114.337 85.7768 113.899 94.1572C113.474 102.098 113.234 124.625 113.18 130.534C113.178 130.714 113.138 130.891 113.062 131.054C112.987 131.217 112.878 131.362 112.743 131.479C112.607 131.597 112.449 131.684 112.277 131.735C112.106 131.786 111.926 131.8 111.749 131.775L109.691 131.495C109.416 131.458 109.161 131.33 108.966 131.133C108.77 130.935 108.644 130.678 108.608 130.402C107.277 119.971 105.695 103.88 105.351 95.266C104.964 85.4344 102.558 62.1958 102.558 62.1958L112.789 62.2114Z" fill="#421EA8"/>
<path d="M93.3713 135.37C93.7079 135.522 94.056 135.623 94.2339 135.518C94.2794 135.49 94.3147 135.448 94.3349 135.398C94.355 135.349 94.359 135.294 94.3461 135.242C94.3419 135.195 94.3277 135.149 94.3043 135.108C94.2809 135.067 94.249 135.032 94.2107 135.005C93.8239 134.686 92.6635 134.802 92.6248 134.806C92.6106 134.807 92.597 134.813 92.5859 134.822C92.5748 134.831 92.5668 134.843 92.5629 134.857C92.56 134.87 92.561 134.885 92.5658 134.898C92.5706 134.911 92.579 134.922 92.59 134.931C92.8369 135.1 93.0984 135.247 93.3713 135.37ZM94.0135 135.04C94.0532 135.059 94.0908 135.082 94.1256 135.11C94.1494 135.126 94.1693 135.147 94.184 135.172C94.1987 135.197 94.2078 135.225 94.2107 135.254C94.2107 135.351 94.1875 135.386 94.1643 135.398C93.967 135.518 93.2978 135.219 92.8337 134.931C93.2302 134.89 93.6308 134.927 94.0135 135.04Z" fill="#161351"/>
<path d="M92.6211 134.938C93.0079 134.938 93.8821 134.647 93.9633 134.32C93.9827 134.246 93.9633 134.133 93.8047 134.04C93.7468 134.006 93.6826 133.984 93.6161 133.976C93.5496 133.968 93.4821 133.974 93.4179 133.993C92.9615 134.121 92.5785 134.806 92.5631 134.837C92.5573 134.848 92.5543 134.86 92.5543 134.872C92.5543 134.885 92.5573 134.897 92.5631 134.907C92.5702 134.916 92.579 134.923 92.589 134.929C92.5989 134.934 92.6098 134.937 92.6211 134.938ZM93.7312 134.16H93.766C93.8744 134.223 93.8628 134.269 93.8589 134.285C93.8086 134.479 93.1858 134.74 92.7758 134.794C92.9341 134.503 93.1789 134.27 93.4759 134.125C93.5557 134.104 93.6404 134.111 93.7158 134.145L93.7312 134.16Z" fill="#161351"/>
<path d="M88.1109 135.11L90.8573 136.047L92.6792 129.554L89.9367 128.616L88.1109 135.11Z" fill="#CE7A63"/>
<path opacity="0.2" d="M105.572 70.6382C106.372 73.8635 106.16 87.2666 105.332 94.8222C105.135 90.3986 104.578 83.5783 104.013 77.3145L105.572 70.6382Z" fill="black"/>
<path d="M91.9128 134.472L88.1529 133.791C88.0967 133.78 88.0384 133.789 87.9882 133.816C87.9379 133.844 87.899 133.889 87.8783 133.943L86.8919 136.394C86.8678 136.453 86.8574 136.517 86.8613 136.581C86.8653 136.646 86.8836 136.708 86.9148 136.764C86.946 136.82 86.9893 136.868 87.0416 136.905C87.0939 136.942 87.1538 136.967 87.2168 136.977C88.3425 137.164 89.9748 137.39 91.3867 137.646C93.0346 137.946 93.0462 138.035 94.9803 138.393C96.1407 138.607 96.6397 137.545 96.2026 137.277C94.2376 136.079 94.5586 135.997 92.5627 134.822C92.3681 134.668 92.1481 134.549 91.9128 134.472Z" fill="#161351"/>
<path opacity="0.2" d="M92.6792 129.558L91.7392 132.904L88.9928 131.966L89.9328 128.62L92.6792 129.558Z" fill="black"/>
<path d="M107.269 62.2114C107.269 62.2114 105.266 85.7807 103.722 94.1572C102.237 102.218 95.5178 125.181 93.5373 130.398C93.4221 130.703 93.1945 130.951 92.9019 131.091C92.6093 131.231 92.2743 131.252 91.9668 131.149L89.9824 130.499C89.6908 130.404 89.444 130.204 89.288 129.938C89.1321 129.673 89.0778 129.359 89.1353 129.056C91.1081 118.812 94.249 103.841 95.0304 95.266C95.924 85.4344 97.2353 62.1958 97.2353 62.1958L107.269 62.2114Z" fill="#421EA8"/>
<path d="M101.131 35.623C99.6147 35.623 95.9593 35.7048 95.6034 37.0665C95.2475 38.4282 95.6382 40.6342 96.1218 41.9297C95.41 43.9062 95.6382 46.8241 96.3152 47.7345C95.5725 49.9366 96.056 51.559 96.5086 52.3371C96.1527 53.2125 95.8316 55.7103 96.3771 56.9397C95.9283 58.6905 95.4139 61.6084 96.2185 62.1959C97.3132 62.974 100.226 63.3631 102.284 62.8729C104.342 62.3826 103.533 58.2041 103.375 57.2315C104.276 56.0332 103.309 52.4344 103.309 52.4344C103.761 51.4306 103.084 47.6684 103.084 47.6684C103.63 46.7619 102.922 41.8325 102.922 41.8325C103.51 40.8442 103.765 35.623 101.131 35.623Z" fill="#161351"/>
<path d="M112.267 36.5295C111.076 36.0004 107.084 35.0394 107.858 36.0977C108.979 37.6345 108.291 39.253 108.956 41.1555C108.368 42.9724 108.569 45.9409 109.115 46.9914C108.63 48.5154 108.68 50.1603 109.254 51.6523C108.964 52.4305 108.697 54.8699 109.15 56.2238C108.763 57.8734 108.469 61.1999 109.15 61.9508C109.64 62.4937 110.289 62.8653 111.004 63.0115C111.718 63.1577 112.46 63.071 113.122 62.7639C114.07 62.3749 114.492 59.1923 114.024 58.0952C114.944 56.076 114.194 53.0841 114.194 53.0841C115.083 51.5278 114.395 48.2636 114.395 48.2636C115.277 45.369 114.194 42.167 114.194 42.167C114.67 41.2994 114.167 37.3738 112.267 36.5295Z" fill="#161351"/>
<path d="M109.641 36.8873C109.799 36.7691 109.928 36.6155 110.017 36.4386C110.107 36.2617 110.154 36.0663 110.155 35.8679C110.158 35.7349 110.135 35.6027 110.087 35.4787C110.039 35.3548 109.967 35.2416 109.876 35.1458C109.784 35.0499 109.674 34.9733 109.553 34.9203C109.432 34.8673 109.301 34.8389 109.169 34.8369C108.716 34.8747 108.276 35.0073 107.877 35.226C107.27 35.5256 107.045 35.8018 107.018 36.2531C106.991 36.7044 108.097 38.2918 108.705 37.9144C109.312 37.537 109.3 37.2763 109.641 36.8873Z" fill="#161351"/>
<path opacity="0.2" d="M97.9049 42.4506C97.6032 41.1395 96.8373 41.2562 96.0752 41.7931L96.1294 41.9448C95.4177 43.9213 95.6459 46.8392 96.3228 47.7496C96.2803 47.8741 96.2416 47.9986 96.2068 48.1387C97.1545 47.2049 98.4696 44.925 97.9049 42.4506Z" fill="black"/>
<path d="M97.6496 50.7959L99.9705 50.9904L102.098 52.3521L103.452 53.7139L104.419 55.6592L104.806 56.4373L105.193 57.4099L105.579 58.3826V59.3552L105.386 60.7169L104.806 61.8841L103.645 62.8568L102.098 64.024L100.164 64.9966L98.0364 65.7747L92.2342 67.331L86.0451 69.0818L85.2714 67.331L96.8373 57.1298L97.6496 50.7959Z" fill="#FF981F"/>
<path opacity="0.3" d="M99.7771 50.7964L101.905 51.9636L103.258 53.3253L104.032 54.8815L105.193 57.4104L105.579 58.5776V59.5503L105.386 60.7174L104.806 61.8846L103.839 62.6627L101.905 64.219L99.7771 65.1916L92.621 67.3315L86.0451 69.0822L85.2714 67.3315L94.555 59.1612L96.6825 57.2159L97.6496 50.7964H99.7771Z" fill="#3C4043"/>
<path fill-rule="evenodd" clip-rule="evenodd" d="M94.2927 51.4282L96.027 50.9378C99.4538 49.969 103.013 51.9777 103.976 55.4244C104.939 58.8711 102.942 62.4507 99.5153 63.4195L85.4133 67.4065L85.4125 67.4037L85.3705 67.4155L81.4065 53.2318C80.4432 49.7851 82.4403 46.2055 85.8672 45.2366C89.2941 44.2678 92.853 46.2765 93.8162 49.7232L94.2927 51.4282Z" fill="#FF981F"/>
<path d="M93.7232 62.2657L93.7812 64.9075L90.6867 64.7324C90.6867 64.7324 90.2689 63.0789 92.0483 61.9272L93.7232 62.2657Z" fill="#CE7A63"/>
<path d="M92.7871 67.5531L90.6442 66.312L90.6828 64.7324L93.7812 64.9075L92.7871 67.5531Z" fill="#CE7A63"/>
<path d="M99.9704 36.5449C99.5835 36.4905 99.483 35.5801 99.7924 34.9887C100.044 34.5024 100.953 34.5685 101.765 34.7786C102.419 34.9251 103.045 35.1774 103.618 35.5256C104.438 35.9808 104.14 36.5294 103.951 36.9612C103.761 37.3931 103.401 38.3852 102.628 37.86C101.854 37.3347 100.512 36.6266 99.9704 36.5449Z" fill="#161351"/>
<path d="M90.2147 134.3C90.2727 133.059 89.9478 131.056 92.9843 132.355C94.7984 133.133 92.2493 135.187 92.2493 135.187L90.2147 134.3Z" fill="#161351"/>
<path d="M128.247 37.5686H124.092C123.977 37.5728 123.865 37.6123 123.773 37.6818C123.68 37.7513 123.611 37.8475 123.574 37.9576L121.4 45.7389C121.386 45.7842 121.383 45.8323 121.391 45.8791C121.399 45.9259 121.418 45.9701 121.446 46.0081C121.474 46.0462 121.511 46.0768 121.554 46.0977C121.596 46.1185 121.643 46.1289 121.69 46.1279H125.849C125.963 46.1219 126.073 46.0817 126.165 46.0123C126.256 45.943 126.325 45.8478 126.363 45.7389L128.537 37.9576C128.552 37.9123 128.556 37.8639 128.548 37.8167C128.541 37.7695 128.522 37.7249 128.493 37.6866C128.465 37.6484 128.427 37.6177 128.384 37.5971C128.342 37.5765 128.294 37.5667 128.247 37.5686Z" fill="#FF981F"/>
<path d="M125.984 42.8125L126.854 39.7661L128.37 40.3731L127.821 43.9758L125.984 42.8125Z" fill="#CE7A63"/>
<path opacity="0.3" d="M123.76 37.8481C123.719 37.8506 123.68 37.8658 123.648 37.8916C123.616 37.9174 123.593 37.9525 123.582 37.9921L121.404 45.7383C121.397 45.7543 121.395 45.7718 121.397 45.789C121.399 45.8062 121.405 45.8227 121.415 45.8367C121.425 45.8508 121.439 45.862 121.454 45.8693C121.47 45.8766 121.487 45.8797 121.505 45.8784C121.545 45.8767 121.584 45.8623 121.616 45.8372C121.648 45.812 121.671 45.7775 121.683 45.7383L123.853 37.9804C123.857 37.9655 123.857 37.9499 123.855 37.9346C123.852 37.9194 123.846 37.9049 123.837 37.8923C123.828 37.8797 123.817 37.8692 123.803 37.8615C123.79 37.8539 123.775 37.8493 123.76 37.8481Z" fill="black"/>
<path d="M95.4989 36.9889C95.2475 37.2223 95.0579 37.4013 94.849 37.6075C94.6402 37.8137 94.4622 37.9965 94.2456 38.2144C93.8588 38.6229 93.472 39.0431 93.0852 39.4672C92.3287 40.3376 91.6173 41.2466 90.9538 42.1906C90.2526 43.1769 89.6305 44.2177 89.0932 45.3031C88.4464 46.5597 88.0322 47.9242 87.8708 49.3299C87.847 49.5378 87.8354 49.747 87.836 49.9563V50.2831V50.5087L87.9018 51.3919C87.9714 51.9716 88.041 52.5591 88.1378 53.1077C88.3168 54.2174 88.5518 55.3173 88.8418 56.403C89.3982 58.5377 90.1358 60.6203 91.0466 62.628C91.1953 62.9661 91.4587 63.2399 91.7898 63.4005C92.1209 63.561 92.498 63.5978 92.8536 63.5041C93.2091 63.4105 93.52 63.1926 93.7304 62.8895C93.9408 62.5864 94.037 62.2179 94.0019 61.8499V61.7876C93.8356 59.7334 93.6151 57.6402 93.5029 55.6093C93.4255 54.59 93.3946 53.5823 93.3714 52.598C93.3714 52.1039 93.3714 51.6215 93.3714 51.139L93.4023 50.4387V50.2675V50.1936C93.4103 50.1384 93.4219 50.0838 93.4371 50.0302C93.6382 49.3457 93.9296 48.6914 94.3036 48.0849C94.7749 47.3091 95.2916 46.5621 95.8509 45.8478C96.435 45.1008 97.0616 44.3577 97.7115 43.6263C98.0364 43.2605 98.3729 42.9026 98.7056 42.5408L99.2085 42.0078L99.6843 41.5137L99.7616 41.4319C100.313 40.8482 100.618 40.0721 100.613 39.2668C100.608 38.4615 100.292 37.6896 99.7326 37.1134C99.1733 36.5371 98.4136 36.2014 97.6133 36.1768C96.8129 36.1521 96.0343 36.4404 95.4409 36.9811L95.4989 36.9889Z" fill="#161351"/>
<path d="M142.048 56.1577H149.788V56.5468H142.048V56.1577Z" fill="#FF981F"/>
<path d="M137.484 25.1187H160.708C161.558 25.1187 162.248 26.4787 162.248 28.1563V35.6981C162.248 37.3758 161.558 38.7358 160.708 38.7358H137.484C136.634 38.7358 135.944 37.3758 135.944 35.6981V28.1563C135.944 26.4787 136.634 25.1187 137.484 25.1187Z" fill="#FF981F"/>
<path d="M137.275 33.1099L140.524 38.7707H132.401L137.275 33.1099Z" fill="#FF981F"/>
<path opacity="0.2" d="M153.409 36.6153C150.843 36.6153 148.763 34.5233 148.763 31.9426C148.763 29.362 150.843 27.27 153.409 27.27C155.975 27.27 158.054 29.362 158.054 31.9426C158.054 34.5233 155.975 36.6153 153.409 36.6153Z" fill="white"/>
<path d="M149.572 31.9429C149.571 32.8015 149.855 33.6358 150.379 34.3136C150.903 34.9915 151.636 35.4741 152.464 35.6849C153.291 35.8958 154.165 35.8228 154.947 35.4777C155.728 35.1325 156.373 34.5348 156.778 33.7793C157.085 33.2165 157.244 32.5847 157.242 31.9429C157.259 31.4261 157.172 30.9111 156.986 30.4288C156.801 29.9464 156.521 29.5065 156.163 29.135C155.805 28.7636 155.377 28.4683 154.904 28.2666C154.43 28.0649 153.921 27.9609 153.407 27.9609C152.893 27.9609 152.384 28.0649 151.911 28.2666C151.437 28.4683 151.009 28.7636 150.651 29.135C150.293 29.5065 150.013 29.9464 149.828 30.4288C149.643 30.9111 149.556 31.4261 149.572 31.9429Z" fill="white"/>
<path d="M150.036 33.779C150.365 34.3899 150.852 34.9002 151.445 35.2558C152.039 35.6113 152.716 35.7991 153.407 35.7991C154.098 35.7991 154.776 35.6113 155.369 35.2558C155.963 34.9002 156.449 34.3899 156.778 33.779C155.78 33.109 154.607 32.7515 153.407 32.7515C152.207 32.7515 151.034 33.109 150.036 33.779Z" fill="#FF981F"/>
<path d="M151.699 30.6235C151.699 30.9636 151.8 31.2961 151.988 31.5789C152.175 31.8617 152.442 32.0821 152.755 32.2122C153.067 32.3424 153.411 32.3764 153.743 32.3101C154.074 32.2437 154.379 32.0799 154.618 31.8394C154.857 31.5989 155.02 31.2925 155.086 30.959C155.152 30.6254 155.118 30.2796 154.989 29.9654C154.859 29.6512 154.64 29.3826 154.359 29.1936C154.078 29.0047 153.747 28.9038 153.409 28.9038C153.184 28.9033 152.962 28.9474 152.754 29.0337C152.547 29.1199 152.358 29.2466 152.199 29.4063C152.04 29.5661 151.914 29.7559 151.829 29.9648C151.743 30.1736 151.699 30.3975 151.699 30.6235Z" fill="#B55B52"/>
<path d="M149.263 8H152.191V8.38906H149.263V8Z" fill="#FF981F"/>
<path d="M163.022 12.4119H163.408C163.407 11.2455 162.948 10.1268 162.129 9.30021C161.311 8.47359 160.201 8.00617 159.041 8H153.781V8.38906H159.041C160.098 8.39522 161.11 8.82166 161.856 9.57532C162.602 10.329 163.021 11.3487 163.022 12.4119Z" fill="#FF981F"/>
<path d="M137.485 9.43994H160.708C161.559 9.43994 162.248 10.7999 162.248 12.4776V20.0194C162.248 21.6971 161.559 23.0571 160.708 23.0571H137.485C136.634 23.0571 135.944 21.6971 135.944 20.0194V12.4776C135.944 10.7999 136.634 9.43994 137.485 9.43994Z" fill="#FF981F"/>
<path opacity="0.2" d="M152.636 20.8628C150.07 20.8628 147.99 18.7708 147.99 16.1902C147.99 13.6096 150.07 11.5176 152.636 11.5176C155.201 11.5176 157.281 13.6096 157.281 16.1902C157.281 18.7708 155.201 20.8628 152.636 20.8628Z" fill="white"/>
<path d="M148.798 16.1896C148.797 17.0481 149.081 17.8825 149.605 18.5603C150.129 19.2381 150.863 19.7207 151.69 19.9316C152.518 20.1425 153.391 20.0695 154.173 19.7243C154.955 19.3791 155.599 18.7814 156.005 18.026C156.311 17.4631 156.471 16.8313 156.469 16.1896C156.437 15.1877 156.019 14.2375 155.304 13.5401C154.588 12.8426 153.63 12.4526 152.634 12.4526C151.637 12.4526 150.68 12.8426 149.964 13.5401C149.248 14.2375 148.83 15.1877 148.798 16.1896Z" fill="white"/>
<path d="M149.263 18.026C149.591 18.6381 150.077 19.1494 150.671 19.5058C151.264 19.8622 151.943 20.0504 152.634 20.0504C153.325 20.0504 154.003 19.8622 154.597 19.5058C155.19 19.1494 155.677 18.6381 156.005 18.026C155.007 17.3561 153.834 16.9985 152.634 16.9985C151.434 16.9985 150.261 17.3561 149.263 18.026Z" fill="#263238"/>
<path d="M150.926 14.8866C150.926 15.2268 151.026 15.5592 151.214 15.842C151.402 16.1248 151.669 16.3452 151.981 16.4754C152.294 16.6055 152.638 16.6396 152.969 16.5732C153.301 16.5069 153.606 16.3431 153.845 16.1026C154.084 15.8621 154.247 15.5557 154.313 15.2221C154.379 14.8885 154.345 14.5428 154.215 14.2286C154.086 13.9143 153.867 13.6458 153.586 13.4568C153.304 13.2678 152.974 13.167 152.636 13.167C152.182 13.167 151.747 13.3482 151.427 13.6707C151.106 13.9932 150.926 14.4306 150.926 14.8866Z" fill="#FFC3BD"/>
<path fill-rule="evenodd" clip-rule="evenodd" d="M144.258 14.8292L144.451 14.6354C144.832 14.2524 145.449 14.2524 145.83 14.6354C146.211 15.0184 146.211 15.6394 145.83 16.0224L144.263 17.5985L144.263 17.5982L144.258 17.6029L142.691 16.0268C142.31 15.6438 142.31 15.0228 142.691 14.6398C143.072 14.2568 143.689 14.2568 144.07 14.6398L144.258 14.8292Z" fill="#2C197D"/>
<path fill-rule="evenodd" clip-rule="evenodd" d="M144.258 31.5592L144.451 31.3654C144.832 30.9824 145.449 30.9824 145.83 31.3654C146.211 31.7484 146.211 32.3694 145.83 32.7524L144.263 34.3285L144.263 34.3282L144.258 34.3329L142.691 32.7568C142.31 32.3737 142.31 31.7528 142.691 31.3698C143.072 30.9867 143.689 30.9867 144.07 31.3698L144.258 31.5592Z" fill="#421EA8"/>
<path d="M137.484 41.0703H160.707C161.558 41.0703 162.248 42.4303 162.248 44.108V51.6498C162.248 53.3274 161.558 54.6874 160.707 54.6874H137.484C136.634 54.6874 135.944 53.3274 135.944 51.6498V44.108C135.944 42.4303 136.634 41.0703 137.484 41.0703Z" fill="#FF981F"/>
<path opacity="0.2" d="M148.96 51.2718C147.146 49.447 147.146 46.4885 148.96 44.6637C150.775 42.839 153.716 42.839 155.53 44.6637C157.345 46.4885 157.345 49.447 155.53 51.2718C153.716 53.0966 150.775 53.0966 148.96 51.2718Z" fill="white"/>
<path d="M148.411 47.9645C148.409 48.8234 148.693 49.6583 149.216 50.3368C149.74 51.0153 150.474 51.4986 151.301 51.7099C152.129 51.9213 153.003 51.8486 153.785 51.5035C154.567 51.1584 155.212 50.5605 155.618 49.8048C155.924 49.2405 156.084 48.6075 156.082 47.9645C156.05 46.9626 155.632 46.0124 154.916 45.315C154.201 44.6175 153.243 44.2275 152.246 44.2275C151.25 44.2275 150.292 44.6175 149.577 45.315C148.861 46.0124 148.443 46.9626 148.411 47.9645Z" fill="white"/>
<path opacity="0.5" d="M148.875 49.8048C149.204 50.4158 149.691 50.926 150.285 51.2816C150.878 51.6372 151.556 51.8249 152.247 51.8249C152.937 51.8249 153.615 51.6372 154.209 51.2816C154.802 50.926 155.289 50.4158 155.618 49.8048C154.62 49.1349 153.447 48.7773 152.247 48.7773C151.047 48.7773 149.874 49.1349 148.875 49.8048Z" fill="#FF981F"/>
<path d="M150.538 46.6454C150.538 46.9857 150.637 47.3186 150.825 47.6019C151.012 47.8852 151.279 48.1062 151.591 48.237C151.903 48.3677 152.247 48.4023 152.579 48.3364C152.911 48.2705 153.216 48.107 153.456 47.8667C153.695 47.6263 153.858 47.3199 153.925 46.9863C153.991 46.6526 153.957 46.3066 153.828 45.9922C153.699 45.6777 153.48 45.4089 153.198 45.2198C152.917 45.0306 152.586 44.9297 152.248 44.9297C151.795 44.9297 151.361 45.1103 151.04 45.432C150.72 45.7536 150.539 46.19 150.538 46.6454Z" fill="#FFB573"/>
<g opacity="0.5">
<path fill-rule="evenodd" clip-rule="evenodd" d="M144.258 47.1217L144.451 46.9279C144.832 46.5449 145.449 46.5449 145.83 46.9279C146.211 47.3109 146.211 47.9319 145.83 48.3149L144.263 49.891L144.263 49.8907L144.258 49.8954L142.691 48.3193C142.31 47.9362 142.31 47.3153 142.691 46.9323C143.072 46.5492 143.689 46.5492 144.07 46.9323L144.258 47.1217ZM144.263 49.3863L143.388 48.5061L143.13 48.2563L143.13 48.2565L142.942 48.0671C142.699 47.8233 142.699 47.4282 142.942 47.1844C143.184 46.9407 143.577 46.9407 143.819 47.1844L144.258 47.6259L144.259 47.6246L144.26 47.6248L144.702 47.1801C144.944 46.9363 145.337 46.9363 145.579 47.1801C145.822 47.4238 145.822 47.819 145.579 48.0627L145.129 48.5155L145.129 48.5152L144.263 49.3863Z" fill="#421EA8"/>
</g>
</svg>
