<svg width="236" height="140" viewBox="0 0 236 140" fill="none" xmlns="http://www.w3.org/2000/svg">
<circle cx="154" cy="49.5" r="40.5" fill="#FFF4E8"/>
<circle cx="93" cy="71.5" r="44.5" fill="#F8F4FF"/>
<path d="M165.204 96.2217L96.6291 96.2217V78.9866H165.204C165.557 78.9866 165.896 79.1271 166.145 79.3772C166.395 79.6273 166.535 79.9665 166.535 80.3203V94.888C166.535 95.2417 166.395 95.5809 166.145 95.831C165.896 96.0812 165.557 96.2217 165.204 96.2217Z" fill="#FF981F"/>
<path opacity="0.2" d="M113.442 96.2217H123.934V78.9866H113.442V96.2217Z" fill="#3C4043"/>
<path opacity="0.2" d="M128.44 96.2217H133.76V78.9866H128.44V96.2217Z" fill="#3C4043"/>
<path d="M73.914 78.9858H96.626V96.221H73.914C73.5593 96.221 73.219 96.0797 72.9682 95.8283C72.7173 95.5769 72.5764 95.2359 72.5764 94.8804V80.3264C72.5764 79.9709 72.7173 79.6299 72.9682 79.3785C73.219 79.1271 73.5593 78.9858 73.914 78.9858Z" fill="#FF981F"/>
<path opacity="0.9" d="M72.5764 80.8394H92.4451C92.9081 80.8394 93.3522 81.0237 93.6796 81.3518C94.007 81.6799 94.1909 82.125 94.1909 82.589V92.6159C94.1909 93.0799 94.007 93.525 93.6796 93.8531C93.3522 94.1812 92.9081 94.3655 92.4451 94.3655H72.5764V80.8394Z" fill="white"/>
<path opacity="0.2" d="M156.925 92.5318C159.641 92.5318 161.843 90.3249 161.843 87.6026C161.843 84.8802 159.641 82.6733 156.925 82.6733C154.209 82.6733 152.007 84.8802 152.007 87.6026C152.007 90.3249 154.209 92.5318 156.925 92.5318Z" fill="#3C4043"/>
<path d="M170.171 78.9727L101.575 78.9727V66.4639L170.171 66.4639C170.524 66.4639 170.862 66.6045 171.112 66.8546C171.361 67.1047 171.501 67.4439 171.501 67.7977V77.6527C171.498 78.004 171.356 78.3397 171.107 78.5869C170.858 78.834 170.521 78.9727 170.171 78.9727Z" fill="#6E29FF"/>
<path d="M78.8764 66.4907H101.588V78.9994H78.8764C78.5217 78.9994 78.1814 78.8582 77.9306 78.6068C77.6797 78.3554 77.5388 78.0144 77.5388 77.6588V67.8176C77.5424 67.4644 77.685 67.1269 77.9354 66.8785C78.1859 66.6301 78.524 66.4907 78.8764 66.4907Z" fill="#6E29FF"/>
<path opacity="0.9" d="M77.5288 68.3301H97.4215C97.8845 68.3301 98.3286 68.5144 98.656 68.8425C98.9834 69.1707 99.1673 69.6157 99.1673 70.0797V75.3905C99.1682 75.6208 99.1237 75.8491 99.0364 76.0622C98.949 76.2752 98.8206 76.4689 98.6584 76.6321C98.4962 76.7953 98.3034 76.9248 98.0912 77.0132C97.8789 77.1015 97.6514 77.147 97.4215 77.147H77.5288V68.3301Z" fill="white"/>
<path opacity="0.3" d="M115.946 76.0215H163.928C164.722 76.0215 165.365 75.3767 165.365 74.5812V70.8757C165.365 70.0803 164.722 69.4354 163.928 69.4354H115.946C115.152 69.4354 114.508 70.0803 114.508 70.8757V74.5812C114.508 75.3767 115.152 76.0215 115.946 76.0215Z" fill="#161351"/>
<path opacity="0.3" d="M104.192 78.9858H106.013V66.4771H104.192V78.9858Z" fill="#161351"/>
<path opacity="0.3" d="M107.515 78.9858H109.337V66.4771H107.515V78.9858Z" fill="#161351"/>
<path d="M162.577 66.4771L94.0054 66.4771V53.5593L162.577 53.5593C162.93 53.5593 163.268 53.6998 163.518 53.9499C163.768 54.2001 163.908 54.5393 163.908 54.893V65.1433C163.908 65.4971 163.768 65.8363 163.518 66.0864C163.268 66.3365 162.93 66.4771 162.577 66.4771Z" fill="#FF981F"/>
<path opacity="0.3" d="M162.577 66.4771L94.0054 66.4771V53.5593L162.577 53.5593C162.93 53.5593 163.268 53.6998 163.518 53.9499C163.768 54.2001 163.908 54.5393 163.908 54.893V65.1433C163.908 65.4971 163.768 65.8363 163.518 66.0864C163.268 66.3365 162.93 66.4771 162.577 66.4771Z" fill="#3C4043"/>
<path opacity="0.9" d="M110.818 66.4771H134.628V53.5731H110.818V66.4771Z" fill="white"/>
<path opacity="0.9" d="M144.855 66.4771H156.928V53.5731H144.855V66.4771Z" fill="white"/>
<path d="M71.2934 53.5737H93.9917V66.4915H71.2934C71.1178 66.4915 70.9438 66.4568 70.7815 66.3894C70.6193 66.3221 70.4718 66.2233 70.3476 66.0988C70.2234 65.9743 70.1249 65.8266 70.0576 65.6639C69.9904 65.5013 69.9558 65.3269 69.9558 65.1509V54.9143C69.9558 54.7383 69.9904 54.5639 70.0576 54.4013C70.1249 54.2386 70.2234 54.0909 70.3476 53.9664C70.4718 53.8419 70.6193 53.7431 70.7815 53.6758C70.9438 53.6084 71.1178 53.5737 71.2934 53.5737Z" fill="#FF981F"/>
<path opacity="0.9" d="M69.9558 55.4214H89.8245C90.2875 55.4214 90.7316 55.6057 91.059 55.9338C91.3864 56.262 91.5703 56.707 91.5703 57.171V62.8737C91.5703 63.3377 91.3864 63.7827 91.059 64.1109C90.7316 64.439 90.2875 64.6233 89.8245 64.6233H69.9558V55.4214Z" fill="white"/>
<path d="M167.537 53.5737L98.9651 53.5737V45.0146L167.537 45.0146C167.89 45.0146 168.228 45.1551 168.478 45.4052C168.727 45.6554 168.867 45.9946 168.867 46.3483V52.24C168.867 52.5937 168.727 52.933 168.478 53.1831C168.228 53.4332 167.89 53.5737 167.537 53.5737Z" fill="#A87FFF"/>
<path d="M76.2531 45.0151H98.9651V53.5743H76.2531C75.8984 53.5743 75.5582 53.433 75.3073 53.1816C75.0565 52.9302 74.9155 52.5892 74.9155 52.2337V46.3557C74.9155 46.0002 75.0565 45.6592 75.3073 45.4078C75.5582 45.1564 75.8984 45.0151 76.2531 45.0151Z" fill="#A87FFF"/>
<path opacity="0.9" d="M74.9155 46.8652H94.7808C95.2438 46.8652 95.6879 47.0496 96.0152 47.3777C96.3426 47.7058 96.5266 48.1508 96.5266 48.6149V49.9898C96.5185 50.4485 96.331 50.8856 96.0045 51.2071C95.6779 51.5285 95.2385 51.7086 94.7808 51.7085H74.9155V46.8652Z" fill="white"/>
<path opacity="0.4" d="M105.101 51.3179L136.181 51.3179V47.272H105.101V51.3179Z" fill="#A87FFF"/>
<path d="M110.763 42.1816H120.569V45.0175H110.763C110.705 45.0175 110.649 44.9943 110.608 44.9531C110.567 44.9118 110.544 44.8559 110.544 44.7975V42.3913C110.546 42.3348 110.571 42.2814 110.612 42.2424C110.652 42.2033 110.707 42.1816 110.763 42.1816Z" fill="#FF981F"/>
<path opacity="0.2" d="M110.763 42.1816H120.569V45.0175H110.763C110.705 45.0175 110.649 44.9943 110.608 44.9531C110.567 44.9118 110.544 44.8559 110.544 44.7975V42.3913C110.546 42.3348 110.571 42.2814 110.612 42.2424C110.652 42.2033 110.707 42.1816 110.763 42.1816Z" fill="#3C4043"/>
<path d="M124.308 45.0201H120.583V42.1842H124.321C124.379 42.1842 124.435 42.2074 124.476 42.2486C124.518 42.2899 124.541 42.3458 124.541 42.4042V44.8104C124.539 44.8396 124.532 44.8682 124.52 44.8947C124.507 44.9211 124.49 44.9448 124.468 44.9643C124.446 44.9838 124.421 44.9988 124.393 45.0084C124.366 45.0179 124.337 45.0219 124.308 45.0201Z" fill="#FF981F"/>
<path opacity="0.9" d="M124.53 44.7144H121.262C121.185 44.7144 121.112 44.6839 121.058 44.6298C121.004 44.5756 120.974 44.5022 120.974 44.4256V42.7757C120.974 42.6991 121.004 42.6256 121.058 42.5715C121.112 42.5173 121.185 42.4869 121.262 42.4869H124.53V44.7144Z" fill="white"/>
<path d="M109.947 40.1221H119.752V42.1845H109.947C109.888 42.1845 109.833 42.1613 109.791 42.1201C109.75 42.0788 109.727 42.0229 109.727 41.9645V40.3455C109.727 40.3163 109.732 40.2874 109.743 40.2603C109.754 40.2332 109.77 40.2085 109.79 40.1877C109.811 40.1669 109.835 40.1504 109.862 40.1391C109.889 40.1279 109.917 40.1221 109.947 40.1221Z" fill="#5824D4"/>
<path d="M123.491 42.1846H119.753V40.1221H123.491C123.55 40.1221 123.605 40.1453 123.647 40.1866C123.688 40.2278 123.711 40.2838 123.711 40.3421V41.9611C123.711 41.9903 123.706 42.0193 123.695 42.0464C123.684 42.0735 123.668 42.0981 123.648 42.1189C123.627 42.1397 123.603 42.1562 123.576 42.1675C123.549 42.1788 123.521 42.1846 123.491 42.1846Z" fill="#5824D4"/>
<path opacity="0.9" d="M123.714 41.8784H120.446C120.408 41.8784 120.37 41.8709 120.336 41.8564C120.301 41.8419 120.269 41.8207 120.242 41.7938C120.215 41.767 120.194 41.7352 120.18 41.7002C120.165 41.6651 120.158 41.6276 120.158 41.5897V40.7166C120.158 40.64 120.188 40.5666 120.242 40.5124C120.296 40.4583 120.369 40.4278 120.446 40.4278H123.714V41.8784Z" fill="white"/>
<path d="M111.195 38.0005H121.001V40.1248H111.195C111.137 40.1248 111.081 40.1016 111.04 40.0604C110.999 40.0191 110.976 39.9632 110.976 39.9048V38.2205C110.976 38.1916 110.982 38.163 110.993 38.1363C111.004 38.1096 111.02 38.0854 111.04 38.0649C111.061 38.0445 111.085 38.0283 111.111 38.0172C111.138 38.0062 111.167 38.0005 111.195 38.0005Z" fill="#FF981F"/>
<path d="M124.739 40.1221H121.001V37.9978H124.739C124.798 37.9978 124.854 38.0209 124.895 38.0622C124.936 38.1034 124.959 38.1594 124.959 38.2177V39.8986C124.959 39.9278 124.954 39.9568 124.943 39.9839C124.932 40.011 124.916 40.0356 124.896 40.0564C124.875 40.0772 124.851 40.0937 124.824 40.105C124.797 40.1163 124.769 40.1221 124.739 40.1221Z" fill="#FF981F"/>
<path opacity="0.9" d="M124.959 39.8184H121.69C121.614 39.8184 121.541 39.7879 121.487 39.7338C121.433 39.6796 121.402 39.6062 121.402 39.5296V38.5912C121.402 38.5146 121.433 38.4412 121.487 38.387C121.541 38.3329 121.614 38.3025 121.69 38.3025H124.959V39.8184Z" fill="white"/>
<path d="M110.379 36.5854H120.185V37.9948H110.379C110.321 37.9948 110.265 37.9716 110.224 37.9304C110.183 37.8891 110.16 37.8331 110.16 37.7748V36.8054C110.16 36.7471 110.183 36.6911 110.224 36.6499C110.265 36.6086 110.321 36.5854 110.379 36.5854Z" fill="#FF981F"/>
<path opacity="0.3" d="M110.379 36.5854H120.185V37.9948H110.379C110.321 37.9948 110.265 37.9716 110.224 37.9304C110.183 37.8891 110.16 37.8331 110.16 37.7748V36.8054C110.16 36.7471 110.183 36.6911 110.224 36.6499C110.265 36.6086 110.321 36.5854 110.379 36.5854Z" fill="white"/>
<path opacity="0.2" d="M110.379 36.5854H120.185V37.9948H110.379C110.321 37.9948 110.265 37.9716 110.224 37.9304C110.183 37.8891 110.16 37.8331 110.16 37.7748V36.8054C110.16 36.7471 110.183 36.6911 110.224 36.6499C110.265 36.6086 110.321 36.5854 110.379 36.5854Z" fill="#3C4043"/>
<path d="M123.927 38.0088H120.188V36.5995H123.927C123.985 36.5995 124.041 36.6226 124.082 36.6639C124.123 36.7051 124.146 36.7611 124.146 36.8194V37.7854C124.147 37.8145 124.141 37.8435 124.13 37.8706C124.12 37.8977 124.104 37.9223 124.083 37.9431C124.063 37.9639 124.038 37.9805 124.012 37.9917C123.985 38.003 123.956 38.0088 123.927 38.0088Z" fill="#FF981F"/>
<path opacity="0.3" d="M123.927 38.0088H120.188V36.5995H123.927C123.985 36.5995 124.041 36.6226 124.082 36.6639C124.123 36.7051 124.146 36.7611 124.146 36.8194V37.7854C124.147 37.8145 124.141 37.8435 124.13 37.8706C124.12 37.8977 124.104 37.9223 124.083 37.9431C124.063 37.9639 124.038 37.9805 124.012 37.9917C123.985 38.003 123.956 38.0088 123.927 38.0088Z" fill="white"/>
<path opacity="0.9" d="M124.143 37.6943H120.874C120.798 37.6943 120.725 37.6639 120.671 37.6098C120.617 37.5556 120.586 37.4822 120.586 37.4056V37.1822C120.586 37.1056 120.617 37.0321 120.671 36.978C120.725 36.9238 120.798 36.8934 120.874 36.8934H124.143V37.6909V37.6943Z" fill="white"/>
<path d="M109.947 34.5229H119.752V36.5854H109.947C109.888 36.5854 109.833 36.5622 109.791 36.521C109.75 36.4797 109.727 36.4237 109.727 36.3654V34.7464C109.727 34.7172 109.732 34.6882 109.743 34.6611C109.754 34.634 109.77 34.6094 109.79 34.5886C109.811 34.5678 109.835 34.5513 109.862 34.54C109.889 34.5287 109.917 34.5229 109.947 34.5229Z" fill="#5824D4"/>
<path d="M122.246 36.6008H119.763V34.5384H122.257C122.315 34.5384 122.371 34.5616 122.412 34.6028C122.453 34.6441 122.476 34.7 122.476 34.7584V36.3774C122.477 36.4075 122.471 36.4373 122.46 36.4651C122.448 36.4929 122.431 36.518 122.41 36.539C122.388 36.5599 122.363 36.5762 122.334 36.5868C122.306 36.5975 122.276 36.6022 122.246 36.6008Z" fill="#421EA8"/>
<path opacity="0.9" d="M122.469 36.2871H120.445C120.369 36.2871 120.296 36.2567 120.242 36.2025C120.188 36.1484 120.157 36.0749 120.157 35.9984V35.1253C120.157 35.0487 120.188 34.9752 120.242 34.9211C120.296 34.8669 120.369 34.8365 120.445 34.8365H122.469V36.2871Z" fill="white"/>
<path d="M111.195 32.4092H121.001V34.5232H111.195C111.137 34.5232 111.081 34.5 111.04 34.4587C110.999 34.4175 110.976 34.3615 110.976 34.3032V32.6189C110.978 32.5623 111.003 32.509 111.044 32.4699C111.085 32.4309 111.139 32.4091 111.195 32.4092Z" fill="#FF981F"/>
<path d="M123.495 34.5337H121.001V32.4197H123.495C123.553 32.4197 123.609 32.4429 123.65 32.4841C123.691 32.5254 123.714 32.5813 123.714 32.6397V34.3206C123.713 34.3777 123.689 34.4319 123.648 34.4717C123.607 34.5115 123.552 34.5337 123.495 34.5337Z" fill="#FF981F"/>
<path opacity="0.9" d="M123.714 34.2275H121.691C121.614 34.2275 121.541 34.1971 121.487 34.143C121.433 34.0888 121.403 34.0154 121.403 33.9388V33.0004C121.403 32.9238 121.433 32.8504 121.487 32.7962C121.541 32.7421 121.614 32.7116 121.691 32.7116H123.714V34.2275Z" fill="white"/>
<path d="M110.379 31.002H120.185V32.4113H110.379C110.321 32.4113 110.265 32.3881 110.224 32.3469C110.183 32.3056 110.16 32.2496 110.16 32.1913V31.2219C110.16 31.1636 110.183 31.1076 110.224 31.0664C110.265 31.0251 110.321 31.002 110.379 31.002Z" fill="#FF981F"/>
<path opacity="0.3" d="M110.379 31.002H120.185V32.4113H110.379C110.321 32.4113 110.265 32.3881 110.224 32.3469C110.183 32.3056 110.16 32.2496 110.16 32.1913V31.2219C110.16 31.1636 110.183 31.1076 110.224 31.0664C110.265 31.0251 110.321 31.002 110.379 31.002Z" fill="white"/>
<path opacity="0.2" d="M110.379 31.002H120.185V32.4113H110.379C110.321 32.4113 110.265 32.3881 110.224 32.3469C110.183 32.3056 110.16 32.2496 110.16 32.1913V31.2219C110.16 31.1636 110.183 31.1076 110.224 31.0664C110.265 31.0251 110.321 31.002 110.379 31.002Z" fill="#3C4043"/>
<path d="M122.682 32.4092H120.188V30.9998H122.682C122.74 30.9998 122.796 31.023 122.837 31.0643C122.878 31.1055 122.901 31.1615 122.901 31.2198V32.1892C122.901 32.2475 122.878 32.3035 122.837 32.3447C122.796 32.386 122.74 32.4092 122.682 32.4092Z" fill="#FF981F"/>
<path opacity="0.3" d="M122.682 32.4092H120.188V30.9998H122.682C122.74 30.9998 122.796 31.023 122.837 31.0643C122.878 31.1055 122.901 31.1615 122.901 31.2198V32.1892C122.901 32.2475 122.878 32.3035 122.837 32.3447C122.796 32.386 122.74 32.4092 122.682 32.4092Z" fill="white"/>
<path opacity="0.9" d="M122.898 32.106H120.874C120.798 32.106 120.724 32.0755 120.67 32.0214C120.616 31.9672 120.586 31.8938 120.586 31.8172V31.5938C120.586 31.5172 120.616 31.4438 120.67 31.3896C120.724 31.3355 120.798 31.305 120.874 31.305H122.898V32.1025V32.106Z" fill="white"/>
<path opacity="0.2" d="M168.965 92.7314C168.965 92.7314 156.529 100.122 156.529 107.124H181.405C181.403 100.122 168.965 92.7314 168.965 92.7314Z" fill="#421EA8"/>
<path opacity="0.2" d="M168.965 101.55C168.965 101.55 157.482 104.413 157.482 107.125H180.449C180.449 104.413 168.965 101.55 168.965 101.55Z" fill="#421EA8"/>
<path opacity="0.3" d="M170.475 94.7725C172.81 97.0839 177.349 102.206 177.349 107.125H174.237C174.237 102.206 171.752 97.0839 170.475 94.7725Z" fill="white"/>
<path opacity="0.2" d="M168.965 92.7313C168.965 92.7313 156.529 85.3407 156.529 78.3384H181.405C181.403 85.3407 168.965 92.7313 168.965 92.7313Z" fill="#421EA8"/>
<path opacity="0.2" d="M168.965 92.0577C168.965 92.0577 162.616 88.9918 162.616 86.0791H175.316C175.316 88.9866 168.965 92.0577 168.965 92.0577Z" fill="#421EA8"/>
<path opacity="0.3" d="M167.61 90.6908C165.276 88.3794 160.743 83.2575 160.743 78.3384H163.855C163.848 83.2575 166.327 88.3794 167.61 90.6908Z" fill="white"/>
<path opacity="0.3" d="M170.475 90.6908C172.81 88.3794 177.235 82.6648 177.349 78.3384H176.519C176.13 83.6135 172.323 88.4543 170.475 90.6908Z" fill="white"/>
<path d="M179.714 75.8672H178.305V76.0375H179.714V75.8672Z" fill="#421EA8"/>
<path d="M184.5 78.2075H184.331C184.33 77.6324 184.103 77.081 183.699 76.6742C183.295 76.2674 182.748 76.0384 182.176 76.0375H180.689V75.8672H182.176C182.793 75.8685 183.383 76.1156 183.818 76.5543C184.254 76.9929 184.499 77.5874 184.5 78.2075Z" fill="#421EA8"/>
<path d="M182.175 76.4634H155.756C154.799 76.4634 154.023 77.2443 154.023 78.2076V78.4699C154.023 79.4332 154.799 80.2141 155.756 80.2141H182.175C183.132 80.2141 183.908 79.4332 183.908 78.4699V78.2076C183.908 77.2443 183.132 76.4634 182.175 76.4634Z" fill="#2C197D"/>
<path d="M182.175 105.249H155.756C154.799 105.249 154.023 106.03 154.023 106.993V107.256C154.023 108.219 154.799 109 155.756 109H182.175C183.132 109 183.908 108.219 183.908 107.256V106.993C183.908 106.03 183.132 105.249 182.175 105.249Z" fill="#2C197D"/>
</svg>
