<svg width="236" height="140" viewBox="0 0 236 140" fill="none" xmlns="http://www.w3.org/2000/svg">
<circle cx="143.5" cy="48" r="46" fill="#F8F4FF"/>
<ellipse cx="92" cy="91" rx="47.5" ry="47" fill="#FFF4E8"/>
<path d="M115.427 132.494H111.606L110.078 124.544H113.9L115.427 132.494Z" fill="#FFC3BD"/>
<path d="M137.885 132.494H134.064L130.574 124.544H134.395L137.885 132.494Z" fill="#FFC3BD"/>
<path d="M133.53 132.099H138.187C138.263 132.1 138.337 132.123 138.397 132.164C138.458 132.206 138.502 132.264 138.523 132.33L139.477 135.382C139.501 135.452 139.506 135.526 139.493 135.598C139.479 135.67 139.447 135.739 139.399 135.798C139.351 135.857 139.289 135.905 139.216 135.939C139.144 135.972 139.064 135.99 138.983 135.991C137.5 135.969 136.382 135.889 134.499 135.889C133.337 135.889 130.954 136 129.348 136C127.741 136 127.445 134.574 128.092 134.445C130.999 133.867 132.047 133.067 132.947 132.307C133.106 132.176 133.314 132.101 133.53 132.099Z" fill="#FF981F"/>
<path d="M111.61 132.099H115.778C115.855 132.099 115.929 132.122 115.99 132.164C116.052 132.205 116.097 132.264 116.119 132.33L117.068 135.382C117.093 135.452 117.099 135.527 117.086 135.599C117.073 135.672 117.041 135.74 116.993 135.8C116.945 135.859 116.882 135.907 116.809 135.941C116.736 135.974 116.655 135.991 116.574 135.991C115.091 135.969 112.891 135.889 111.002 135.889C108.788 135.889 106.889 136 104.294 136C102.727 136 102.203 134.574 102.851 134.445C105.817 133.858 108.234 133.796 110.721 132.365C110.983 132.202 111.292 132.11 111.61 132.099Z" fill="#FF981F"/>
<path d="M111.809 34.1777C109.792 35.3153 107.671 36.4617 105.58 37.5503C103.489 38.639 101.363 39.6966 99.2374 40.6119C98.7084 40.8474 98.1795 41.0563 97.6505 41.2695C97.3885 41.3762 97.1265 41.4606 96.8645 41.5584L96.469 41.705L96.1477 41.8116C95.4686 42.0777 94.7187 42.1626 93.9874 42.056C93.1886 41.8751 92.4719 41.4762 91.9358 40.9141C91.586 40.5762 91.2669 40.2136 90.9817 39.8299C90.8334 39.6299 90.6901 39.4211 90.5566 39.2078L90.1759 38.5812L87.3779 39.1589C87.4188 39.4934 87.4799 39.8257 87.5608 40.1542C87.6399 40.4653 87.7289 40.7763 87.8377 41.0874C88.053 41.7248 88.3465 42.3388 88.7127 42.9181C89.1158 43.5504 89.6149 44.1292 90.1957 44.6377C90.8275 45.1981 91.568 45.6499 92.3807 45.9708C93.2175 46.2967 94.1142 46.4805 95.0255 46.5129C95.8786 46.5478 96.7328 46.4714 97.5615 46.2862C97.7494 46.2462 97.9768 46.2018 98.135 46.1529L98.6293 46.0152C98.9507 45.9219 99.2819 45.833 99.5933 45.7308C100.216 45.522 100.859 45.3264 101.457 45.0954C103.843 44.2073 106.172 43.2 108.432 42.0783C109.554 41.5273 110.662 40.9629 111.749 40.3675C112.837 39.7721 113.91 39.1855 115.002 38.5235L111.809 34.1777Z" fill="#FFC3BD"/>
<path d="M117.558 37.3454C116.801 40.6247 107.621 45.3437 107.621 45.3437L104.275 37.4387C104.275 37.4387 106.89 35.9679 110.795 33.6217C114.7 31.2756 118.393 33.7462 117.558 37.3454Z" fill="white"/>
<path d="M91.2385 39.8474L88.5839 36.1016L86.6065 40.1807C86.6065 40.1807 88.1785 42.3224 90.6058 41.2205L91.2385 39.8474Z" fill="#FFC3BD"/>
<path d="M85.1974 34.6841L83.8973 37.7412L86.6014 40.1762L88.5837 36.1016L85.1974 34.6841Z" fill="#FFC3BD"/>
<path opacity="0.2" d="M110.078 124.549L110.869 128.646H114.686L113.9 124.549H110.078Z" fill="black"/>
<path opacity="0.2" d="M134.395 124.549H130.574L132.378 128.646H136.195L134.395 124.549Z" fill="black"/>
<path d="M113.128 32.8041C113.128 32.8041 107.824 42.6331 110.513 62.4155L130.781 64.8061C131.147 62.0067 130.287 48.0408 134.375 35.1325C132.175 34.4799 129.931 33.9531 127.657 33.5551C124.812 33.0681 121.939 32.7298 119.051 32.5419C117.072 32.4876 115.091 32.5753 113.128 32.8041Z" fill="white"/>
<path opacity="0.2" d="M134.356 35.1414L134.267 35.1148C132.289 34.6171 130.01 36.4923 128.794 39.2295C127.02 43.2286 124.928 48.503 124.928 48.503L131.479 49.9116C131.929 44.919 132.892 39.9745 134.356 35.1414Z" fill="black"/>
<path d="M127.494 24.686C126.747 27.13 125.838 31.6623 127.637 33.573C125.305 35.321 122.446 36.404 119.426 36.6835C117.533 34.875 119.031 32.5643 119.031 32.5643C122.175 32.2577 122.259 30.1737 121.878 28.1608L127.494 24.686Z" fill="#FFC3BD"/>
<path d="M112.901 60.9886L116.383 43.2695C117.024 43.3751 117.636 43.5953 118.184 43.9177C118.731 44.2401 119.205 44.6582 119.576 45.1483C119.948 45.6384 120.21 46.1908 120.349 46.7739C120.488 47.3571 120.5 47.9596 120.385 48.547L118.661 57.3302C118.425 58.5149 117.686 59.5655 116.606 60.2514C115.526 60.9372 114.194 61.2024 112.901 60.9886Z" fill="#CC7C20"/>
<path d="M98.9868 77.8414L101.56 78.2675C102.003 78.3404 102.457 78.3261 102.893 78.2253C103.329 78.1245 103.737 77.9396 104.089 77.683C104.441 77.4263 104.73 77.1036 104.936 76.7365C105.142 76.3693 105.261 75.9661 105.284 75.5535L106.343 56.824C106.385 56.1163 106.143 55.4192 105.664 54.8639C105.185 54.3085 104.501 53.9333 103.742 53.8089L98.9829 53.0193C98.4718 52.9356 97.9462 52.9685 97.4523 53.1152C96.9583 53.2619 96.5112 53.5178 96.1501 53.8606C95.789 54.2033 95.525 54.6223 95.3814 55.0808C95.2379 55.5392 95.219 56.0231 95.3266 56.4898L97.2406 64.7234C97.3055 65.007 97.3243 65.2978 97.2966 65.5865L96.4095 74.7199C96.3386 75.4418 96.5636 76.162 97.0403 76.7394C97.5171 77.3168 98.2113 77.7098 98.9868 77.8414Z" fill="#FF981F"/>
<path opacity="0.2" d="M94.3086 47.597L100.196 48.5479C101.135 48.7002 101.979 49.1546 102.571 49.8261C103.164 50.4976 103.463 51.3401 103.415 52.196L102.984 59.7188C99.1021 59.1263 95.21 58.6331 91.3079 58.2391L89.7853 51.7872C89.6529 51.2229 89.6767 50.6381 89.8548 50.0841C90.0328 49.5301 90.3596 49.0239 90.8063 48.61C91.2531 48.1962 91.8061 47.8874 92.4168 47.7107C93.0275 47.5341 93.6772 47.495 94.3086 47.597Z" fill="black"/>
<path d="M94.7911 70.5474L99.2905 71.3042L99.2531 63.978L94.7537 63.2173L94.7911 70.5474Z" fill="#FF981F"/>
<path d="M94.2501 66.6135C94.2501 68.5496 94.6091 70.1685 95.0248 70.2245C95.4405 70.2804 95.7712 68.7659 95.7618 66.8299C95.7523 64.8939 95.4027 63.2787 94.9823 63.219C94.5619 63.1593 94.236 64.685 94.2501 66.6135Z" fill="#CC7C20"/>
<path d="M112.875 35.7157C114.323 35.9531 115.607 36.6965 116.446 37.7829C117.285 38.8693 117.611 40.2101 117.351 41.5115L114.039 58.0403C113.775 59.3414 112.948 60.4954 111.738 61.2491C110.528 62.0027 109.034 62.2944 107.585 62.0601C96.7693 60.314 85.7865 59.5415 74.8 59.7542L63.5 59.9771L70.7349 23.8608L81.2414 27.6066C91.4585 31.25 102.056 33.9665 112.875 35.7157Z" fill="#FF981F"/>
<path opacity="0.3" d="M83.6641 28.1894L77.6834 59.9826C77.1578 59.9826 76.6283 59.9826 76.1026 59.9826L82.1923 27.6348C82.6907 27.8432 83.1735 28.0219 83.6641 28.1894Z" fill="black"/>
<path d="M65.8127 41.6458C63.7972 51.6189 62.9392 59.8269 63.8834 59.9804C64.8275 60.1339 67.2371 52.1707 69.2526 42.1976C71.2682 32.2245 72.1261 24.0165 71.182 23.863C70.2378 23.7095 67.8282 31.6544 65.8127 41.6458Z" fill="#CC7C20"/>
<path opacity="0.2" d="M125.205 26.0991L121.883 28.1476C121.98 28.6137 122.031 29.0865 122.037 29.5606C123.228 29.5606 124.943 28.5653 125.161 27.4633C125.267 27.0147 125.282 26.5525 125.205 26.0991Z" fill="black"/>
<path d="M122.402 14.7105C120.395 14.8749 117.37 19.7227 119.382 21.429C121.394 23.1353 126.204 14.395 122.402 14.7105Z" fill="#263238"/>
<path d="M129.447 21.6243C128.275 24.8236 127.776 26.7565 125.452 27.903C121.962 29.627 117.899 26.8454 117.973 23.3395C118.037 20.1846 119.95 15.4834 123.875 15.2079C124.765 15.1591 125.655 15.3056 126.467 15.6349C127.28 15.9643 127.991 16.4664 128.54 17.0981C129.088 17.7297 129.457 18.4719 129.615 19.2605C129.773 20.0491 129.715 20.8604 129.447 21.6243Z" fill="#FFC3BD"/>
<path d="M119.836 14.1906C120.812 14.0118 121.808 13.9417 122.802 13.9818C122.225 13.5028 121.7 12.9746 121.235 12.4044C122.165 12.9767 123.197 13.402 124.286 13.6619C124.104 13.2526 123.99 12.8213 123.949 12.3821C124.706 13.1997 125.991 13.7552 127.38 14.2217C126.788 13.5586 126.331 12.8064 126.031 12C126.896 13.4352 130.144 14.6661 132.19 15.8881H132.22C132.364 15.9646 132.501 16.0507 132.63 16.1458C132.797 16.2515 132.942 16.384 133.055 16.5368C133.249 16.7292 133.395 16.9564 133.483 17.2034C133.571 17.4503 133.6 17.7113 133.567 17.969C133.534 18.2267 133.441 18.4752 133.293 18.6979C133.145 18.9206 132.946 19.1125 132.709 19.2607C133.084 19.4992 133.351 19.8497 133.465 20.2494C133.578 20.6491 133.529 21.072 133.327 21.4424C133.357 20.8203 133.194 20.1405 132.694 19.865C133.535 22.0512 130.717 24.1129 128.206 24.695C126.723 25.0328 125.813 19.9316 127.217 17.9143C125.314 17.6966 123.687 17.27 122.714 16.6657C123.447 16.8795 124.225 16.9388 124.988 16.839C123.158 16.1902 121.191 15.2749 119.639 15.5059C120.386 15.2614 121.177 15.1394 121.972 15.146C121.446 14.9521 120.884 14.8482 120.316 14.8394C118.65 14.9016 117.552 16.1724 117.978 17.0256C117.34 16.1058 117.572 14.6217 119.836 14.1906Z" fill="#161351"/>
<path d="M130.05 25.6948C129.703 25.9701 129.297 26.1788 128.856 26.3079C128.416 26.437 127.951 26.4839 127.49 26.4458C126.239 26.3391 126.007 25.2194 126.659 24.3574C127.262 23.5842 128.636 22.7044 129.744 23.242C129.982 23.3564 130.186 23.5213 130.338 23.7223C130.49 23.9233 130.585 24.1545 130.615 24.396C130.645 24.6374 130.609 24.8818 130.511 25.1081C130.413 25.3344 130.255 25.5357 130.05 25.6948Z" fill="#FFC3BD"/>
<path d="M110.513 62.4248C110.513 62.4248 100.132 88.0771 101.234 98.5415C102.366 109.432 109.381 127.868 109.381 127.868H115.852C115.852 127.868 112.055 110.095 111.65 99.3902C111.21 87.7349 123.094 72.9959 123.821 64.0156L110.513 62.4248Z" fill="#001447"/>
<path opacity="0.2" d="M121.102 71.2671C121.335 71.1326 121.588 71.0293 121.854 70.9604C119.58 76.4659 115.897 82.8868 113.633 89.1521C113.386 78.7943 115.882 74.182 121.102 71.2671Z" fill="black"/>
<path d="M117.696 63.2734C117.696 63.2734 114.73 88.6457 117.74 98.4703C121.038 109.232 130.529 127.851 130.529 127.851H137.524C137.524 127.851 131.434 110.121 129.259 99.4567C126.896 87.9037 130.064 73.4135 130.742 64.8242L117.696 63.2734Z" fill="#001447"/>
<path d="M129.299 127.988H138.182L137.584 125.633H128.073L129.299 127.988Z" fill="#FF981F"/>
<path d="M107.948 127.988H116.737L116.594 125.749L107.458 125.633L107.948 127.988Z" fill="#FF981F"/>
<path d="M130.287 37.9146C129.862 39.4031 129.417 40.9672 128.938 42.4825C128.458 43.9977 127.979 45.5218 127.455 47.0148C126.931 48.5078 126.347 49.9831 125.729 51.4139C125.151 52.7944 124.452 54.1317 123.638 55.413C123.539 55.5508 123.446 55.7107 123.347 55.8351L123.193 56.0351L123.119 56.1328C122.978 56.2866 122.811 56.42 122.625 56.5283C121.996 56.9199 121.335 57.2675 120.647 57.5681C119.164 58.2302 117.548 58.8389 115.917 59.4121C112.644 60.5586 109.253 61.6339 105.891 62.6648L106.544 65.1753C110.17 64.7035 113.762 64.0388 117.301 63.1847C119.119 62.7495 120.908 62.2213 122.66 61.6028C123.625 61.264 124.558 60.8538 125.448 60.3764C126.03 60.0623 126.563 59.6781 127.03 59.2344L127.252 59.0211L127.376 58.8789L127.628 58.5857C127.801 58.3901 127.934 58.1991 128.087 58.0036C129.169 56.5321 130.099 54.9748 130.866 53.3512C131.637 51.8005 132.289 50.2408 132.897 48.6545C134.111 45.5219 135.129 42.3309 135.948 39.0965L130.287 37.9146Z" fill="#FFC3BD"/>
<path d="M136.62 37.0304C138.498 40.9673 135.443 49.9476 135.443 49.9476L126.298 47.837C126.863 44.6683 127.677 41.5396 128.735 38.4745C130.317 34.2665 135.161 33.9999 136.62 37.0304Z" fill="white"/>
<path d="M132.304 132.699C132.638 132.691 132.97 132.649 133.293 132.574C133.31 132.57 133.325 132.561 133.336 132.55C133.347 132.538 133.355 132.523 133.357 132.508C133.358 132.491 133.353 132.476 133.345 132.461C133.336 132.447 133.323 132.436 133.308 132.428C133.164 132.348 131.889 131.668 131.478 131.863C131.433 131.886 131.396 131.919 131.371 131.96C131.346 132.001 131.336 132.048 131.34 132.094C131.333 132.178 131.348 132.263 131.385 132.34C131.422 132.418 131.48 132.486 131.553 132.539C131.777 132.665 132.041 132.721 132.304 132.699ZM133.026 132.459C132.58 132.593 132.095 132.571 131.666 132.397C131.618 132.361 131.58 132.316 131.555 132.265C131.53 132.214 131.519 132.159 131.523 132.103C131.521 132.084 131.526 132.065 131.535 132.048C131.545 132.03 131.559 132.016 131.577 132.005C131.79 131.894 132.512 132.201 133.026 132.459Z" fill="#FF981F"/>
<path d="M133.278 132.574H133.323C133.336 132.567 133.347 132.556 133.354 132.544C133.361 132.531 133.364 132.517 133.362 132.503C133.362 132.458 133.199 131.468 132.734 131.143C132.681 131.102 132.619 131.072 132.551 131.054C132.484 131.037 132.413 131.032 132.344 131.041C132.277 131.039 132.212 131.06 132.161 131.098C132.11 131.137 132.077 131.191 132.067 131.25C132.013 131.636 132.823 132.387 133.234 132.583C133.249 132.585 133.265 132.582 133.278 132.574ZM132.413 131.183C132.491 131.185 132.565 131.21 132.626 131.254C132.911 131.56 133.093 131.934 133.15 132.33C132.739 132.063 132.215 131.494 132.25 131.268C132.25 131.268 132.25 131.201 132.374 131.188L132.413 131.183Z" fill="#FF981F"/>
<path d="M110.059 132.698C110.459 132.691 110.858 132.649 111.25 132.574C111.268 132.572 111.285 132.564 111.298 132.552C111.311 132.54 111.318 132.524 111.319 132.507C111.321 132.49 111.317 132.472 111.307 132.457C111.297 132.442 111.282 132.43 111.265 132.423C111.087 132.343 109.51 131.641 109.06 131.876C109.018 131.898 108.983 131.928 108.959 131.966C108.934 132.003 108.922 132.046 108.922 132.089C108.918 132.165 108.934 132.24 108.968 132.308C109.003 132.377 109.054 132.437 109.119 132.485C109.397 132.649 109.728 132.724 110.059 132.698ZM110.943 132.458C110.108 132.583 109.46 132.552 109.233 132.365C109.19 132.334 109.156 132.293 109.134 132.248C109.111 132.202 109.101 132.153 109.104 132.103C109.103 132.086 109.107 132.069 109.116 132.054C109.124 132.039 109.138 132.027 109.154 132.018C109.401 131.894 110.296 132.187 110.939 132.458H110.943Z" fill="#FF981F"/>
<path d="M111.235 132.574C111.251 132.579 111.268 132.579 111.285 132.574C111.297 132.565 111.307 132.554 111.313 132.541C111.319 132.527 111.321 132.513 111.319 132.499C111.25 132.003 111.013 131.537 110.642 131.166C110.503 131.064 110.326 131.013 110.148 131.023C109.9 131.05 109.836 131.161 109.821 131.254C109.777 131.641 110.741 132.383 111.21 132.587L111.235 132.574ZM110.212 131.183C110.33 131.183 110.444 131.221 110.533 131.29C110.837 131.583 111.037 131.952 111.107 132.348C110.612 132.094 109.96 131.512 109.989 131.277C109.989 131.277 109.989 131.201 110.157 131.188L110.212 131.183Z" fill="#FF981F"/>
<path d="M106.617 62.6068L102.796 62.0425L104.333 66.3127C104.333 66.3127 107.665 66.1394 107.66 64.5042L106.617 62.6068Z" fill="#FFC3BD"/>
<path d="M99.1777 63.6288L100.641 67.077L104.334 66.3127L102.796 62.0425L99.1777 63.6288Z" fill="#FFC3BD"/>
</svg>
