<svg width="642" height="648" viewBox="0 0 642 648" fill="none" xmlns="http://www.w3.org/2000/svg">
<path d="M321 648C498.283 648 642 639.627 642 629.298C642 618.969 498.283 610.595 321 610.595C143.717 610.595 0 618.969 0 629.298C0 639.627 143.717 648 321 648Z" fill="#F5F5F5"/>
<path d="M52.797 36.4655C105.908 0.56384 180.012 -2.57528 251.466 12.7403C292.409 21.5299 332.49 35.0281 373.698 42.2812C396.429 46.2959 419.806 48.2951 442.272 46.2629C463.645 44.3133 489.257 42.1159 510.73 49.9307C545.381 62.5533 563.576 85.6507 573.311 114.762C583.411 145.521 584.972 178.436 577.83 210.01C577.234 212.67 576.572 215.297 575.844 217.923C569.867 239.616 559.04 259.674 541.722 273.552C509.256 299.574 445.484 312.031 399.111 285.646C365.999 268.034 341.364 242.69 314.097 264.614L278.949 251.396C284.793 240.509 273.072 219.014 249.91 216.222C226.351 213.397 207.892 218.287 190.309 219.047C168.886 219.989 146.9 219.923 124.699 215.743C75.2963 206.408 19.7186 163.964 11.8546 114.96C5.9442 79.042 26.5065 54.1933 52.797 36.4655Z" fill="#6E29FF"/>
<path opacity="0.8" d="M52.797 36.4655C105.908 0.56384 180.012 -2.57528 251.466 12.7403C292.409 21.5299 332.49 35.0281 373.698 42.2812C396.429 46.2959 419.806 48.2951 442.272 46.2629C463.645 44.3133 489.257 42.1159 510.73 49.9307C545.381 62.5533 563.576 85.6507 573.311 114.762C583.411 145.521 584.972 178.436 577.83 210.01C577.234 212.67 576.572 215.297 575.844 217.923C569.867 239.616 559.04 259.674 541.722 273.552C509.256 299.574 445.484 312.031 399.111 285.646C365.999 268.034 341.364 242.69 314.097 264.614L278.949 251.396C284.793 240.509 273.072 219.014 249.91 216.222C226.351 213.397 207.892 218.287 190.309 219.047C168.886 219.989 146.9 219.923 124.699 215.743C75.2963 206.408 19.7186 163.964 11.8546 114.96C5.9442 79.042 26.5065 54.1933 52.797 36.4655Z" fill="white"/>
<path d="M571.903 79.9836C522.533 28.0228 448.082 9.22114 374.16 12.0794C331.778 13.7316 289.726 20.9185 247.26 20.7698C223.834 20.6872 200.01 18.1759 177.561 11.2368C156.22 4.6281 130.608 -3.15362 108.026 1.32376C71.6035 8.64288 50.4618 31.3107 37.2006 62.6028C22.8633 96.4062 18.029 134.29 21.3402 170.671C21.6161 173.821 21.9638 176.966 22.3832 180.105C25.8599 206.143 34.4192 231.322 50.2631 250.736C79.9642 287.083 142.876 314.493 192.825 293.841C222.874 282.556 232.377 261.442 249.677 273.734C258.855 280.227 270.039 283.271 281.249 282.325L285.19 281.995C292.546 281.422 299.668 279.147 305.99 275.35C312.312 271.553 317.661 266.339 321.612 260.12C324.768 255.108 329.238 251.053 334.538 248.394C339.837 245.736 345.764 244.574 351.678 245.036C375.799 246.688 393.845 256.006 411.56 260.5C433.082 265.969 455.3 270.413 478.213 270.182C529.205 269.636 590.329 232.512 604.037 178.139C614.12 138.206 596.306 105.642 571.903 79.9836Z" fill="#6E29FF"/>
<path opacity="0.7" d="M571.903 79.9836C522.533 28.0228 448.082 9.22114 374.16 12.0794C331.778 13.7316 289.726 20.9185 247.26 20.7698C223.834 20.6872 200.01 18.1759 177.561 11.2368C156.22 4.6281 130.608 -3.15362 108.026 1.32376C71.6035 8.64288 50.4618 31.3107 37.2006 62.6028C22.8633 96.4062 18.029 134.29 21.3402 170.671C21.6161 173.821 21.9638 176.966 22.3832 180.105C25.8599 206.143 34.4192 231.322 50.2631 250.736C79.9642 287.083 142.876 314.493 192.825 293.841C222.874 282.556 232.377 261.442 249.677 273.734C258.855 280.227 270.039 283.271 281.249 282.325L285.19 281.995C292.546 281.422 299.668 279.147 305.99 275.35C312.312 271.553 317.661 266.339 321.612 260.12C324.768 255.108 329.238 251.053 334.538 248.394C339.837 245.736 345.764 244.574 351.678 245.036C375.799 246.688 393.845 256.006 411.56 260.5C433.082 265.969 455.3 270.413 478.213 270.182C529.205 269.636 590.329 232.512 604.037 178.139C614.12 138.206 596.306 105.642 571.903 79.9836Z" fill="white"/>
<path opacity="0.2" d="M126.966 120.164C137.847 107.751 150.852 97.3684 165.376 89.4995C198.487 71.3256 237.112 64.1883 274.644 66.0222C313.897 67.9222 354.111 67.9883 392.19 56.4396C409.656 51.1196 427.189 43.2222 445.814 46.8239C474.19 52.3257 491.988 76.563 501.971 101.957C515.547 136.471 513.825 179.212 490.382 208.985C469.356 235.651 434.44 250.19 401.097 240.012C390.849 237.22 376.462 224.531 365.949 227.72C361.495 229.075 357.671 231.933 353.449 233.949C348.14 236.409 342.303 237.52 336.46 237.182C330.616 236.845 324.946 235.07 319.957 232.016C311.397 226.646 305.454 218.286 294.842 216.518C284.908 214.866 274.975 219.41 265.704 223.342C244.181 232.412 221.301 238.856 198.007 238.658C169.68 238.426 142.197 227.324 123.605 205.614C115.29 196.275 109.993 184.649 108.407 172.257C106.222 152.745 114.417 134.901 126.966 120.164Z" fill="white"/>
<path d="M118.308 251.611C101.934 251.611 86.2556 245.829 75.097 235.238C59.2863 220.204 54.3858 195.19 63.7232 177.049C74.8487 155.389 101.686 147.211 123.324 148.698C144.962 150.185 164.829 159.04 184.282 167.599L188.951 169.647C209.696 178.718 231.88 187.458 254.86 185.987C280.008 184.335 302.226 170.688 323.715 157.471C335.006 150.515 346.695 143.328 358.78 137.859C395.203 121.338 439.457 119.124 483.214 131.548C523.99 143.113 556.059 160.692 587.333 188.498C599.816 199.601 619.004 212.967 639.583 213.512V215.165C618.507 214.603 598.955 201.022 586.273 189.721C555.248 162.097 523.361 144.633 482.816 133.134C439.44 120.809 395.65 123.023 359.509 139.363C347.489 144.815 335.9 151.952 324.576 158.875C302.921 172.208 280.521 185.987 255.042 187.639C231.698 189.126 209.298 180.32 188.372 171.118L183.587 169.102C164.266 160.61 144.284 151.804 123.175 150.35C102.066 148.896 75.9745 156.826 65.1967 177.858C56.1903 195.372 60.9419 219.543 76.2394 234.032C90.5767 247.663 112.662 253.082 133.854 248.175L134.218 249.827C128.999 251.023 123.662 251.622 118.308 251.611Z" fill="#05A284"/>
<path d="M640.526 190.431C609.732 182.864 608.457 204.755 608.457 204.755C608.457 204.755 625.625 218.386 640.526 190.431Z" fill="#05A284"/>
<path d="M356.364 112.036C329.792 129.317 344.957 145.195 344.957 145.195C344.957 145.195 366.678 141.973 356.364 112.036Z" fill="#05A284"/>
<path d="M269.678 164.641C237.957 164.939 242.179 186.466 242.179 186.466C242.179 186.466 262.261 195.322 269.678 164.641Z" fill="#05A284"/>
<path d="M555.579 193.735C568.509 164.838 547.152 159.7 547.152 159.7C547.152 159.7 530.646 174.157 555.579 193.735Z" fill="#05A284"/>
<path d="M343.468 165.848C331.879 149.524 322.26 159.421 322.26 159.421C322.26 159.421 324.793 173.018 343.468 165.848Z" fill="#05A284"/>
<path d="M74.7505 182.979C55.0987 186.713 60.1483 199.6 60.1483 199.6C60.1483 199.6 73.5915 202.905 74.7505 182.979Z" fill="#05A284"/>
<path opacity="0.5" d="M181.319 109.904C181.342 124.033 176.51 137.743 167.628 148.747C162.642 154.894 158.613 161.756 155.674 169.101C154.503 172.099 152.457 174.678 149.8 176.501C147.143 178.325 143.999 179.31 140.774 179.328H97.2822C94.0605 179.317 90.9167 178.338 88.2595 176.52C85.6023 174.702 83.5544 172.129 82.382 169.134C79.3702 161.617 75.2886 154.573 70.2631 148.218C64.1468 140.44 59.9818 131.316 58.1152 121.606C56.2487 111.896 56.7346 101.881 59.5326 92.397C62.3306 82.9125 67.3596 74.2327 74.2004 67.0809C81.0413 59.9292 89.4958 54.5126 98.8596 51.2826C108.223 48.0527 118.225 47.1028 128.031 48.5123C137.837 49.9218 147.164 53.6497 155.234 59.3854C163.304 65.1211 169.883 72.6986 174.423 81.4861C178.964 90.2737 181.334 100.017 181.336 109.904H181.319Z" fill="#FFD03D"/>
<path d="M141.587 198.246H96.7038C94.8024 198.237 92.9816 197.479 91.6386 196.135C90.2956 194.792 89.5395 192.973 89.5352 191.076C89.5395 189.18 90.2962 187.363 91.6396 186.022C92.9831 184.681 94.8039 183.926 96.7038 183.922H141.587C142.533 183.915 143.471 184.095 144.348 184.452C145.224 184.808 146.021 185.334 146.693 185.999C147.366 186.663 147.9 187.454 148.265 188.325C148.63 189.197 148.819 190.131 148.821 191.076C148.819 192.021 148.63 192.956 148.265 193.829C147.9 194.701 147.367 195.493 146.694 196.159C146.022 196.825 145.225 197.352 144.349 197.71C143.472 198.068 142.534 198.25 141.587 198.246Z" fill="white"/>
<path d="M141.587 217.511H96.7038C94.8039 217.507 92.9831 216.752 91.6396 215.411C90.2962 214.07 89.5395 212.253 89.5352 210.357C89.5395 208.461 90.2962 206.644 91.6396 205.304C92.9831 203.963 94.8039 203.208 96.7038 203.203H141.587C143.486 203.208 145.307 203.963 146.651 205.304C147.994 206.644 148.751 208.461 148.755 210.357C148.751 212.253 147.994 214.07 146.651 215.411C145.307 216.752 143.486 217.507 141.587 217.511Z" fill="white"/>
<path d="M119.137 137.379C114.426 137.376 109.822 135.979 105.906 133.365C101.99 130.75 98.9394 127.036 97.1388 122.691C95.3382 118.347 94.8688 113.567 95.7899 108.956C96.711 104.345 98.9813 100.111 102.314 96.7875C105.646 93.4642 109.891 91.2015 114.512 90.2855C119.133 89.3694 123.922 89.8412 128.275 91.6412C132.627 93.4411 136.347 96.4884 138.964 100.398C141.581 104.307 142.978 108.903 142.978 113.605C142.969 119.91 140.454 125.955 135.984 130.412C131.515 134.869 125.456 137.375 119.137 137.379ZM119.137 91.482C114.754 91.4853 110.469 92.7855 106.826 95.2184C103.182 97.6512 100.344 101.107 98.6684 105.15C96.993 109.193 96.5564 113.64 97.4136 117.931C98.2709 122.221 100.383 126.161 103.484 129.253C106.585 132.346 110.535 134.451 114.835 135.303C119.135 136.156 123.591 135.716 127.641 134.042C131.691 132.367 135.152 129.531 137.587 125.894C140.022 122.256 141.322 117.979 141.322 113.605C141.318 107.736 138.978 102.109 134.818 97.9606C130.658 93.8122 125.018 91.482 119.137 91.482Z" fill="#FF981F"/>
<path d="M135.692 137.379C130.981 137.376 126.376 135.979 122.461 133.365C118.545 130.75 115.494 127.036 113.694 122.691C111.893 118.347 111.423 113.567 112.345 108.956C113.266 104.345 115.536 100.111 118.868 96.7875C122.201 93.4642 126.446 91.2015 131.067 90.2855C135.688 89.3694 140.477 89.8412 144.829 91.6412C149.182 93.4411 152.901 96.4884 155.518 100.398C158.135 104.307 159.532 108.903 159.532 113.605C159.524 119.91 157.008 125.955 152.539 130.412C148.069 134.869 142.011 137.375 135.692 137.379ZM135.692 91.482C131.308 91.4853 127.024 92.7855 123.381 95.2184C119.737 97.6512 116.898 101.107 115.223 105.15C113.548 109.193 113.111 113.64 113.968 117.931C114.826 122.221 116.938 126.161 120.039 129.253C123.14 132.346 127.09 134.451 131.39 135.303C135.69 136.156 140.146 135.716 144.196 134.042C148.245 132.367 151.707 129.531 154.142 125.894C156.577 122.256 157.877 117.979 157.877 113.605C157.872 107.736 155.533 102.109 151.373 97.9606C147.213 93.8122 141.573 91.482 135.692 91.482Z" fill="#FF981F"/>
<path d="M102.581 137.379C97.8695 137.376 93.265 135.979 89.3494 133.365C85.4338 130.75 82.3828 127.036 80.5822 122.691C78.7816 118.347 78.3121 113.567 79.2332 108.956C80.1543 104.345 82.4247 100.111 85.7571 96.7875C89.0896 93.4642 93.3346 91.2015 97.9555 90.2855C102.576 89.3694 107.366 89.8412 111.718 91.6412C116.07 93.4411 119.79 96.4884 122.407 100.398C125.024 104.307 126.421 108.903 126.421 113.605C126.412 119.91 123.897 125.955 119.428 130.412C114.958 134.869 108.899 137.375 102.581 137.379ZM102.581 91.482C98.1969 91.4853 93.9126 92.7855 90.2692 95.2184C86.6258 97.6512 83.787 101.107 82.1117 105.15C80.4364 109.193 79.9998 113.64 80.857 117.931C81.7142 122.221 83.8268 126.161 86.9278 129.253C90.0287 132.346 93.9787 134.451 98.2785 135.303C102.578 136.156 107.035 135.716 111.084 134.042C115.134 132.367 118.595 129.531 121.031 125.894C123.466 122.256 124.765 117.979 124.765 113.605C124.761 107.736 122.422 102.109 118.262 97.9606C114.102 93.8122 108.462 91.482 102.581 91.482Z" fill="#FF981F"/>
<path d="M104.119 179.329H102.464C102.464 166.36 95.9738 154.547 89.6991 143.163C84.0536 132.903 78.7227 123.222 78.7227 113.606H80.3782C80.3782 122.792 85.6099 132.292 91.1395 142.354C97.4969 153.952 104.119 165.93 104.119 179.329Z" fill="#FF981F"/>
<path d="M135.79 179.329H134.135C134.135 165.93 140.757 153.952 147.114 142.354C152.644 132.292 157.876 122.792 157.876 113.606H159.531C159.531 123.222 154.2 132.903 148.555 143.163C142.28 154.563 135.79 166.294 135.79 179.329Z" fill="#FF981F"/>
<path d="M559.238 241.384C493.18 212.554 401.709 184.731 384.657 184.731C367.605 184.731 258.403 217.511 176.203 261.756C185.094 269.257 198.471 276.113 215.142 282.16C229.298 272.875 237.575 265.143 249.678 273.734C258.855 280.227 270.039 283.271 281.25 282.325L285.19 281.995C292.546 281.422 299.668 279.148 305.99 275.351C312.312 271.554 317.661 266.339 321.613 260.12C324.769 255.108 329.238 251.053 334.538 248.395C339.837 245.736 345.764 244.574 351.678 245.036C375.8 246.688 393.845 256.006 411.577 260.5C433.099 265.969 455.3 270.413 478.214 270.182C505.216 269.884 535.083 259.327 559.238 241.384Z" fill="#6E29FF"/>
<path opacity="0.6" d="M559.238 241.384C493.18 212.554 401.709 184.731 384.657 184.731C367.605 184.731 258.403 217.511 176.203 261.756C185.094 269.257 198.471 276.113 215.142 282.16C229.298 272.875 237.575 265.143 249.678 273.734C258.855 280.227 270.039 283.271 281.25 282.325L285.19 281.995C292.546 281.422 299.668 279.148 305.99 275.351C312.312 271.554 317.661 266.339 321.613 260.12C324.769 255.108 329.238 251.053 334.538 248.395C339.837 245.736 345.764 244.574 351.678 245.036C375.8 246.688 393.845 256.006 411.577 260.5C433.099 265.969 455.3 270.413 478.214 270.182C505.216 269.884 535.083 259.327 559.238 241.384Z" fill="white"/>
<path opacity="0.1" d="M384.657 184.731C367.555 184.731 258.403 217.444 176.203 261.756C176.203 261.756 194.067 269.537 219.629 279.17C231.218 271.371 238.916 266.084 249.678 273.734C258.855 280.227 270.039 283.271 281.25 282.325L285.19 281.995C292.546 281.422 299.668 279.148 305.99 275.351C312.312 271.554 317.661 266.339 321.613 260.12C324.769 255.108 329.238 251.053 334.538 248.395C339.837 245.736 345.764 244.574 351.678 245.036C365.833 245.961 377.902 249.579 389.044 253.297C385.286 243.384 383.167 235.123 387.952 230.761C403.779 216.437 369.21 192.282 384.657 184.731Z" fill="#6E29FF"/>
<path d="M249.678 273.684C258.855 280.178 270.039 283.221 281.25 282.275L285.19 281.945C292.546 281.373 299.668 279.098 305.99 275.301C312.313 271.504 317.661 266.289 321.613 260.07C326.046 253.04 333.016 247.977 341.082 245.928C285.521 211.794 196.832 176.206 181.385 176.206C169.366 176.206 103.11 201.336 41.373 237.981C44.0174 242.445 46.989 246.708 50.2635 250.735C79.9646 287.083 142.877 314.493 192.825 293.841C222.874 282.556 232.377 261.442 249.678 273.684Z" fill="#6E29FF"/>
<path opacity="0.4" d="M249.678 273.684C258.855 280.178 270.039 283.221 281.25 282.275L285.19 281.945C292.546 281.373 299.668 279.098 305.99 275.301C312.313 271.504 317.661 266.289 321.613 260.07C326.046 253.04 333.016 247.977 341.082 245.928C285.521 211.794 196.832 176.206 181.385 176.206C169.366 176.206 103.11 201.336 41.373 237.981C44.0174 242.445 46.989 246.708 50.2635 250.735C79.9646 287.083 142.877 314.493 192.825 293.841C222.874 282.556 232.377 261.442 249.678 273.684Z" fill="white"/>
<path opacity="0.3" d="M184.134 226.597C197.378 210.902 168.406 184.467 181.385 176.206C169.366 176.206 103.11 201.336 41.373 237.981C44.0174 242.445 46.989 246.708 50.2635 250.735C79.9646 287.083 142.877 314.493 192.825 293.841L194.729 293.097C194.928 269.455 175.309 237.155 184.134 226.597Z" fill="#6E29FF"/>
<path d="M499.936 123.056C517.994 123.056 532.634 108.447 532.634 90.4258C532.634 72.4045 517.994 57.7954 499.936 57.7954C481.878 57.7954 467.238 72.4045 467.238 90.4258C467.238 108.447 481.878 123.056 499.936 123.056Z" fill="white"/>
<path d="M535.812 135.543C546.021 125.355 546.021 108.838 535.812 98.6496C525.603 88.4617 509.051 88.4617 498.842 98.6496C488.633 108.838 488.633 125.355 498.842 135.543C509.051 145.731 525.603 145.731 535.812 135.543Z" fill="white"/>
<path d="M477.867 157.141C498.358 157.141 514.969 140.564 514.969 120.115C514.969 99.6671 498.358 83.0903 477.867 83.0903C457.377 83.0903 440.766 99.6671 440.766 120.115C440.766 140.564 457.377 157.141 477.867 157.141Z" fill="white"/>
<path d="M436.335 142.657C450.484 136.808 457.203 120.62 451.342 106.499C445.482 92.379 429.26 85.6736 415.11 91.5225C400.961 97.3713 394.241 113.56 400.102 127.68C405.963 141.801 422.185 148.506 436.335 142.657Z" fill="white"/>
<path d="M400.586 92.179C412.493 84.0462 415.539 67.821 407.389 55.939C399.239 44.057 382.981 41.0176 371.074 49.1503C359.168 57.2831 356.122 73.5083 364.272 85.3903C372.421 97.2723 388.68 100.312 400.586 92.179Z" fill="white"/>
<path d="M380.218 94.5304C385.647 85.0781 382.37 73.0236 372.898 67.6058C363.426 62.188 351.347 65.4587 345.918 74.911C340.489 84.3633 343.766 96.4178 353.238 101.836C362.71 107.253 374.789 103.983 380.218 94.5304Z" fill="white"/>
<path d="M329.237 120.543C335.411 114.381 335.411 104.391 329.237 98.2289C323.062 92.0671 313.052 92.0671 306.877 98.2288C300.703 104.391 300.703 114.381 306.877 120.543C313.052 126.704 323.062 126.704 329.237 120.543Z" fill="white"/>
<path d="M321.183 140.569C328.214 140.569 333.914 134.881 333.914 127.864C333.914 120.847 328.214 115.159 321.183 115.159C314.151 115.159 308.451 120.847 308.451 127.864C308.451 134.881 314.151 140.569 321.183 140.569Z" fill="white"/>
<path d="M307.093 135.215C312.653 135.215 317.159 130.718 317.159 125.17C317.159 119.622 312.653 115.125 307.093 115.125C301.534 115.125 297.027 119.622 297.027 125.17C297.027 130.718 301.534 135.215 307.093 135.215Z" fill="white"/>
<path d="M300.77 155.768C300.77 157.206 300.343 158.612 299.543 159.807C298.742 161.003 297.604 161.934 296.273 162.485C294.942 163.035 293.478 163.179 292.065 162.898C290.652 162.618 289.354 161.925 288.335 160.909C287.316 159.892 286.622 158.597 286.341 157.187C286.06 155.776 286.204 154.315 286.756 152.986C287.307 151.658 288.241 150.523 289.439 149.724C290.637 148.925 292.045 148.499 293.486 148.499C295.418 148.499 297.271 149.265 298.637 150.628C300.003 151.991 300.77 153.84 300.77 155.768Z" fill="white"/>
<path d="M268.023 149.772C268.023 150.687 267.751 151.581 267.242 152.342C266.733 153.102 266.009 153.695 265.162 154.046C264.315 154.396 263.382 154.487 262.483 154.309C261.584 154.13 260.758 153.69 260.11 153.043C259.461 152.396 259.02 151.571 258.841 150.674C258.662 149.777 258.754 148.847 259.105 148.001C259.456 147.156 260.05 146.433 260.812 145.925C261.574 145.417 262.471 145.146 263.388 145.146C264.617 145.146 265.796 145.633 266.665 146.5C267.535 147.368 268.023 148.545 268.023 149.772Z" fill="white"/>
<path d="M249.811 63.5451C251.407 69.4237 250.92 75.6719 248.432 81.2334C245.944 86.7949 241.609 91.3285 236.158 94.0678C230.707 96.8071 224.475 97.584 218.516 96.2671C212.558 94.9503 207.237 91.6205 203.455 86.8407C207.859 88.0141 212.494 88.0141 216.898 86.8407C221.176 85.7249 225.106 83.5582 228.33 80.5382C231.554 77.5181 233.969 73.7408 235.354 69.5507C236.74 65.3605 237.053 60.8908 236.264 56.5491C235.475 52.2073 233.61 48.1317 230.838 44.6938C235.394 45.8711 239.552 48.2381 242.887 51.5513C246.222 54.8645 248.612 59.0044 249.811 63.5451Z" fill="#FFD03D"/>
<path d="M555.762 55.5975C521.541 40.0175 506.426 72.0035 506.426 72.0035L555.381 80.8922L555.762 55.5975Z" fill="#996122"/>
<path d="M572.351 88.8556C564.189 125.501 529.488 118.281 529.488 118.281L551.888 73.9365L572.351 88.8556Z" fill="#996122"/>
<path d="M637.549 35.7714C586.441 26.9158 527.47 66.4357 527.47 66.4357L519.672 94.2913L546.674 104.898C546.674 104.898 613.825 81.7513 637.549 35.7714Z" fill="#FF981F"/>
<path d="M533.18 70.7317C496.459 74.036 492.188 95.5143 492.188 95.5143L539.14 81.0743L533.18 70.7317Z" fill="#996122"/>
<path d="M546.639 97.7279C521.921 125.022 502.17 115.472 502.17 115.472L542.02 86.7905L546.639 97.7279Z" fill="#996122"/>
<path d="M579.007 81.4865C576.368 82.7842 573.404 83.2735 570.487 82.8928C567.57 82.512 564.832 81.2782 562.617 79.3468C560.401 77.4155 558.808 74.873 558.039 72.0397C557.269 69.2065 557.357 66.2093 558.291 63.4257C559.226 60.6422 560.965 58.197 563.289 56.3982C565.614 54.5993 568.42 53.5274 571.354 53.3174C574.288 53.1074 577.219 53.7688 579.777 55.2182C582.335 56.6676 584.406 58.8402 585.728 61.4622C587.493 65.008 587.776 69.1072 586.516 72.861C585.256 76.6148 582.555 79.7167 579.007 81.4865Z" fill="white"/>
<path opacity="0.4" d="M577.865 79.1902C575.669 80.2903 573.195 80.7148 570.758 80.4097C568.32 80.1046 566.028 79.0838 564.173 77.4767C562.317 75.8696 560.982 73.7487 560.336 71.3831C559.691 69.0175 559.764 66.5138 560.546 64.1897C561.329 61.8656 562.785 59.8259 564.731 58.3293C566.677 56.8327 569.025 55.9467 571.476 55.7837C573.928 55.6207 576.372 56.1881 578.5 57.4139C580.628 58.6397 582.343 60.4686 583.427 62.6685C584.871 65.5978 585.097 68.9779 584.055 72.0725C583.013 75.1671 580.788 77.7254 577.865 79.1902Z" fill="#66C4F7"/>
<path opacity="0.6" d="M131.718 32.2849C131.718 32.5757 131.632 32.86 131.47 33.1018C131.308 33.3436 131.078 33.5321 130.809 33.6434C130.54 33.7547 130.243 33.7838 129.957 33.7271C129.672 33.6703 129.409 33.5303 129.203 33.3246C128.997 33.119 128.857 32.857 128.8 32.5718C128.743 32.2865 128.772 31.9909 128.884 31.7222C128.995 31.4535 129.184 31.2238 129.426 31.0623C129.669 30.9007 129.954 30.8145 130.245 30.8145C130.636 30.8145 131.011 30.9694 131.287 31.2451C131.563 31.5209 131.718 31.8949 131.718 32.2849Z" fill="#FFD03D"/>
<path opacity="0.6" d="M203.52 124.493C204.334 124.493 204.994 123.835 204.994 123.023C204.994 122.211 204.334 121.552 203.52 121.552C202.707 121.552 202.047 122.211 202.047 123.023C202.047 123.835 202.707 124.493 203.52 124.493Z" fill="#FFD03D"/>
<path opacity="0.6" d="M50.0329 74.6966C50.0329 74.9874 49.9465 75.2717 49.7845 75.5135C49.6226 75.7553 49.3925 75.9438 49.1233 76.0551C48.854 76.1664 48.5578 76.1955 48.272 76.1388C47.9861 76.082 47.7236 75.942 47.5175 75.7364C47.3114 75.5307 47.1711 75.2687 47.1143 74.9835C47.0574 74.6982 47.0866 74.4026 47.1981 74.1339C47.3096 73.8652 47.4985 73.6356 47.7408 73.474C47.9831 73.3124 48.268 73.2262 48.5594 73.2262C48.7535 73.224 48.9461 73.2605 49.1259 73.3336C49.3057 73.4067 49.469 73.5149 49.6062 73.6519C49.7435 73.7889 49.852 73.9519 49.9252 74.1313C49.9985 74.3107 50.0351 74.5029 50.0329 74.6966Z" fill="#FFD03D"/>
<path opacity="0.6" d="M310.638 60.7861C311.451 60.7861 312.111 60.1277 312.111 59.3156C312.111 58.5035 311.451 57.8452 310.638 57.8452C309.824 57.8452 309.164 58.5035 309.164 59.3156C309.164 60.1277 309.824 60.7861 310.638 60.7861Z" fill="#FFD03D"/>
<path opacity="0.6" d="M419.79 30.3522C420.604 30.3522 421.263 29.6939 421.263 28.8818C421.263 28.0697 420.604 27.4114 419.79 27.4114C418.976 27.4114 418.316 28.0697 418.316 28.8818C418.316 29.6939 418.976 30.3522 419.79 30.3522Z" fill="#FFD03D"/>
<path opacity="0.6" d="M524.405 185.392C525.219 185.392 525.879 184.733 525.879 183.921C525.879 183.109 525.219 182.451 524.405 182.451C523.591 182.451 522.932 183.109 522.932 183.921C522.932 184.733 523.591 185.392 524.405 185.392Z" fill="#FFD03D"/>
<path opacity="0.7" d="M196.487 56.4232C192.132 57.8936 190.94 59.0832 189.467 63.4284C187.993 59.0832 186.801 57.8936 182.447 56.4232C186.801 54.9527 187.993 53.7632 189.467 49.418C190.94 53.7632 192.132 54.9527 196.487 56.4232Z" fill="#FFD03D"/>
<path opacity="0.7" d="M278.784 101.247C281.261 101.247 283.27 99.2427 283.27 96.7699C283.27 94.2971 281.261 92.2925 278.784 92.2925C276.306 92.2925 274.297 94.2971 274.297 96.7699C274.297 99.2427 276.306 101.247 278.784 101.247Z" fill="white"/>
<path opacity="0.7" d="M45.5472 156.645C48.0251 156.645 50.0338 154.64 50.0338 152.167C50.0338 149.695 48.0251 147.69 45.5472 147.69C43.0693 147.69 41.0605 149.695 41.0605 152.167C41.0605 154.64 43.0693 156.645 45.5472 156.645Z" fill="#FFD03D"/>
<path opacity="0.7" d="M380.32 28.8814C379.179 29.1022 378.131 29.6595 377.31 30.4812C376.49 31.3029 375.935 32.3513 375.718 33.4909C375.503 32.3504 374.949 31.3009 374.128 30.4788C373.307 29.6567 372.257 29.1001 371.115 28.8814C372.258 28.6702 373.31 28.1181 374.131 27.2981C374.953 26.4781 375.506 25.4286 375.718 24.2883C375.934 25.4268 376.488 26.4739 377.309 27.2931C378.13 28.1124 379.179 28.6659 380.32 28.8814Z" fill="#FFD03D"/>
<path opacity="0.7" d="M576.954 153.093C579.496 153.093 581.557 151.036 581.557 148.5C581.557 145.963 579.496 143.906 576.954 143.906C574.412 143.906 572.352 145.963 572.352 148.5C572.352 151.036 574.412 153.093 576.954 153.093Z" fill="#FFD03D"/>
<path d="M444.375 256.469C446.146 252.537 464.772 257.081 485.93 266.647C507.088 276.213 522.816 287.134 521.028 291.066L543.312 301.111C546.127 294.899 521.293 277.617 487.801 262.5C454.308 247.382 424.889 240.212 422.107 246.424L444.375 256.469Z" fill="#C930FF"/>
<path opacity="0.2" d="M455.98 250.058C477.632 257.257 498.482 266.669 518.196 278.145C518.127 280.454 517.827 282.751 517.302 285.001C511.574 279.912 499.952 272.973 485.929 266.645C471.906 260.318 459.042 256.187 451.41 255.262C452.768 253.389 454.297 251.647 455.98 250.058Z" fill="black"/>
<path d="M511.474 288.315C519.545 272.46 513.208 253.077 497.32 245.022C481.432 236.968 462.009 243.292 453.938 259.147C445.867 275.003 452.204 294.386 468.092 302.44C483.981 310.495 503.403 304.171 511.474 288.315Z" fill="#C930FF"/>
<path opacity="0.4" d="M511.474 288.315C519.545 272.46 513.208 253.077 497.32 245.022C481.432 236.968 462.009 243.292 453.938 259.147C445.867 275.003 452.204 294.386 468.092 302.44C483.981 310.495 503.403 304.171 511.474 288.315Z" fill="white"/>
<path opacity="0.1" d="M464.721 253.991C463.675 256.304 463.339 258.875 463.756 261.379C464.174 263.883 465.325 266.207 467.066 268.057C468.806 269.908 471.058 271.202 473.535 271.777C476.012 272.351 478.605 272.18 480.984 271.284C483.364 270.389 485.425 268.809 486.905 266.746C488.386 264.682 489.22 262.227 489.303 259.69C489.386 257.153 488.713 254.649 487.37 252.493C486.027 250.338 484.074 248.628 481.757 247.58C480.217 246.884 478.554 246.497 476.864 246.442C475.174 246.387 473.49 246.665 471.907 247.261C470.325 247.856 468.876 248.757 467.643 249.912C466.41 251.067 465.417 252.453 464.721 253.991Z" fill="white"/>
<path opacity="0.1" d="M496.492 256.435C496.147 257.191 496.034 258.031 496.168 258.851C496.302 259.671 496.677 260.432 497.244 261.039C497.812 261.646 498.548 262.071 499.358 262.261C500.168 262.451 501.016 262.396 501.795 262.105C502.574 261.813 503.249 261.298 503.734 260.623C504.22 259.949 504.493 259.146 504.521 258.316C504.549 257.486 504.33 256.666 503.89 255.961C503.451 255.256 502.813 254.696 502.055 254.353C501.04 253.894 499.885 253.856 498.842 254.246C497.799 254.636 496.954 255.424 496.492 256.435Z" fill="white"/>
<path opacity="0.1" d="M476.824 296.898C476.481 297.654 476.372 298.495 476.508 299.314C476.645 300.132 477.022 300.892 477.591 301.497C478.161 302.102 478.897 302.525 479.707 302.712C480.517 302.9 481.365 302.843 482.143 302.55C482.921 302.256 483.594 301.739 484.078 301.064C484.561 300.388 484.833 299.585 484.859 298.756C484.885 297.926 484.664 297.107 484.224 296.403C483.784 295.699 483.144 295.141 482.386 294.799C481.37 294.341 480.213 294.305 479.17 294.699C478.126 295.092 477.282 295.883 476.824 296.898Z" fill="white"/>
<path opacity="0.5" d="M478.281 283.713C487.749 288.121 497.609 291.633 507.734 294.205C506.412 295.824 504.925 297.303 503.297 298.616C495.019 295.758 485.864 292.123 476.41 287.844C466.957 283.565 458.199 279.153 450.55 274.825C450.471 272.73 450.599 270.633 450.931 268.563C459.548 274.463 468.706 279.536 478.281 283.713Z" fill="#C930FF"/>
<path d="M444.374 256.469C442.586 260.401 458.297 271.338 479.472 280.904C500.647 290.47 519.206 294.997 521.027 291.065L543.311 301.11C540.496 307.339 511.077 300.135 477.601 285.035C444.125 269.934 419.292 252.652 422.106 246.423L444.374 256.469Z" fill="#C930FF"/>
<path d="M285.124 272.511C284.462 285.728 301.944 299.408 311.795 299.59C313.976 299.711 316.153 299.276 318.12 298.328C320.087 297.38 321.78 295.948 323.041 294.168C324.302 292.388 325.089 290.317 325.329 288.15C325.568 285.983 325.252 283.791 324.411 281.779C316.431 290.255 302.176 281.052 296.481 272.874C290.786 264.696 285.72 260.896 285.124 272.511Z" fill="black"/>
<path d="M326.446 293.94C315.784 296.187 307.887 284.44 304.725 276.46L310.834 299.59C319.343 302.713 325.221 302.349 326.446 293.94Z" fill="black"/>
<path d="M255.124 524.814C255.969 519.588 258.614 514.82 262.603 511.331C266.592 507.842 271.675 505.85 276.977 505.698H296.165L311.976 393.037C312.693 388.483 314.978 384.321 318.438 381.266C321.898 378.212 326.316 376.456 330.933 376.3H414.291C416.397 376.242 418.49 376.653 420.417 377.505C422.344 378.356 424.056 379.626 425.428 381.222C426.8 382.818 427.798 384.699 428.349 386.729C428.9 388.759 428.99 390.886 428.612 392.954L414.109 496.727C411.874 512.687 397.089 525.607 381.113 525.607H255.008L255.124 524.814Z" fill="black"/>
<path d="M366.727 629.875H383.431L380.832 525.606H369.309L366.727 629.875Z" fill="#E0E0E0"/>
<path opacity="0.3" d="M369.193 530.48L381.014 533.223L380.832 525.606H369.309L369.193 530.48Z" fill="#263238"/>
<path d="M329.096 629.875H345.801L343.201 525.606H331.678L329.096 629.875Z" fill="#E0E0E0"/>
<path opacity="0.3" d="M331.562 530.48L343.383 533.223L343.201 525.606H331.678L331.562 530.48Z" fill="#263238"/>
<path d="M301.678 629.875H318.399L315.8 525.606H304.277L301.678 629.875Z" fill="#E0E0E0"/>
<path opacity="0.3" d="M304.162 530.48L315.983 533.223L315.801 525.606H304.278L304.162 530.48Z" fill="#263238"/>
<path d="M264.049 629.875H280.77L278.171 525.606H266.648L264.049 629.875Z" fill="#E0E0E0"/>
<path opacity="0.3" d="M266.531 530.48L278.352 533.223L278.17 525.606H266.647L266.531 530.48Z" fill="#263238"/>
<path d="M273.221 299.061C257.344 300.003 255.473 281.118 260.721 273.766C266.095 278.676 272.11 282.839 278.602 286.141C274.645 302.233 273.221 299.061 273.221 299.061Z" fill="black"/>
<path d="M308.086 373.739C306.745 376.779 305.354 380.976 303.666 385.899C302.821 388.377 301.811 391.021 300.586 393.879C299.262 397.031 297.643 400.051 295.752 402.9C293.479 406.328 290.687 409.382 287.474 411.954C284.072 414.619 280.221 416.656 276.1 417.968C272.426 419.121 268.609 419.76 264.759 419.868C261.436 419.915 258.114 419.694 254.826 419.207L253.998 419.091C252.101 418.825 250.281 418.161 248.66 417.141C247.039 416.121 245.653 414.77 244.595 413.176C243.495 411.509 242.621 409.703 241.995 407.807C241.513 406.315 241.164 404.784 240.952 403.23C240.627 400.826 240.577 398.393 240.803 395.977C241.17 392.213 241.885 388.491 242.939 384.858C244.806 378.597 247.164 372.493 249.992 366.602C252.69 360.918 255.604 355.466 258.733 350.08C261.862 344.694 265.107 339.671 268.816 334.583C269.916 333.071 271.521 332.001 273.342 331.566C275.162 331.13 277.079 331.356 278.747 332.204C280.415 333.053 281.726 334.467 282.442 336.193C283.159 337.919 283.235 339.844 282.656 341.621V341.852C280.868 347.288 278.948 352.889 277.193 358.374C275.438 363.859 273.7 369.361 272.226 374.797C270.736 379.957 269.563 385.205 268.716 390.509C268.369 392.649 268.23 394.818 268.302 396.985C268.314 397.548 268.414 398.106 268.6 398.637C268.6 398.736 268.6 398.637 268.6 398.373C268.473 397.872 268.261 397.397 267.971 396.969L257.756 390.988C259.456 391.033 261.156 390.933 262.839 390.69C263.982 390.5 265.095 390.162 266.15 389.683C266.788 389.376 267.352 388.936 267.806 388.394C268.457 387.717 269.014 386.956 269.461 386.13C270.201 384.715 270.859 383.259 271.431 381.769C272.143 380.001 272.806 377.919 273.584 375.656C275.244 370.196 277.348 364.88 279.875 359.762C281.765 356.163 284.979 353.436 288.843 352.154C292.706 350.872 296.917 351.135 300.59 352.887C304.263 354.64 307.112 357.745 308.538 361.551C309.963 365.357 309.855 369.566 308.235 373.293L308.086 373.739Z" fill="#AC3E2F"/>
<path d="M260.158 322.324L260.572 323.877C262.03 329.393 264.88 334.444 268.849 338.549L270.24 340.003C271.403 341.143 272.844 341.96 274.421 342.375C275.997 342.789 277.655 342.786 279.23 342.365C284.826 341.027 288.716 335.756 287.673 331.064C286.858 327.885 285.485 324.876 283.617 322.176L280.306 314.79C279.618 313.528 278.489 312.562 277.133 312.078C275.777 311.593 274.29 311.624 272.955 312.163L265.174 314.658C261.598 315.798 259.346 319.251 260.158 322.324Z" fill="#AC3E2F"/>
<path opacity="0.2" d="M287.689 331.064C286.874 327.885 285.501 324.876 283.633 322.176L280.322 314.79C279.634 313.528 278.505 312.562 277.149 312.078C275.793 311.593 274.306 311.624 272.971 312.163L269.66 313.188C271.546 319.213 274.428 324.881 278.186 329.957C280.418 332.894 283.372 335.204 286.762 336.665C287.734 334.97 288.063 332.982 287.689 331.064Z" fill="black"/>
<path d="M241.184 588.588C243.75 586.771 259.229 585.664 259.229 585.664C261.981 597.228 264.038 608.946 265.388 620.756L245.786 618.36C245.786 618.36 244.611 598.848 241.184 588.588Z" fill="#AC3E2F"/>
<path d="M264.794 586.671C260.589 555.71 268.337 525.855 264.049 506.64C285.654 510.457 330.272 518.321 337.739 487.921C340.619 476.108 353.086 461.734 352.076 455.159C333.285 455.159 271.896 454.465 249.53 458.727C212.974 465.683 214.613 490.812 224.431 533.224C228.255 549.745 230.275 552.653 235.076 574.231C237.659 585.796 237.113 593.032 240.457 600.583C248.834 606.464 259.579 603.738 264.761 601.095C269.016 597.064 265.638 593.016 264.794 586.671Z" fill="#2C197D"/>
<path d="M310.537 590.405C312.309 587.596 325.984 580.178 325.984 580.178C332.012 590.305 337.419 600.788 342.175 611.569L323.716 617.335C323.716 617.335 316.746 598.93 310.537 590.405Z" fill="#AC3E2F"/>
<path d="M302.788 340.796C327.853 344.563 311.678 391.749 302.788 406.684C289.079 399.101 270.918 394.772 268.352 383.653C274.974 371.03 271.332 336.087 302.788 340.796Z" fill="#FF981F"/>
<path d="M355.187 320.804C336.396 322.688 302.424 332.204 285.984 342.894C277.871 348.181 274.527 358.589 276.249 369.329C282.524 408.65 286.745 429.682 285.603 456.315C293.881 467.467 371.693 476.422 391.146 459.62C393.828 444.75 397.901 406.948 390.534 349.536C387.934 329.263 372.438 319.086 355.187 320.804Z" fill="#FF981F"/>
<path opacity="0.2" d="M390.534 349.551C390.534 349.006 390.385 348.477 390.286 347.899C352.986 352.128 342.026 421.107 393.498 441.164C395.219 421.421 395.782 390.475 390.534 349.551Z" fill="black"/>
<path d="M314.377 293.807C316.91 308.379 324.311 321.761 334.824 326.123C334.824 326.123 325.519 344.297 303.368 360.34C292.822 350.79 294.03 341.521 294.03 341.521C297.888 336.35 300.47 330.766 295.255 325.099L314.377 293.807Z" fill="#AC3E2F"/>
<path opacity="0.2" d="M309.411 310.924L296.547 326.686C297.511 328.072 298.084 329.691 298.206 331.374C298.329 333.057 297.996 334.741 297.242 336.252C301.331 334.269 307.821 330.205 310.139 325.166C313.964 316.74 311.778 310.313 309.411 310.924Z" fill="black"/>
<path d="M309.792 280.689C315.405 296.418 319.477 305.29 315.09 317.037C308.468 334.682 286.498 337.226 276.3 323.844C267.111 311.783 259.479 288.091 271.913 274.444C284.346 260.797 304.18 264.96 309.792 280.689Z" fill="#AC3E2F"/>
<path d="M293.484 277.12C291.183 285.728 305.222 289.379 304.013 299.309C311.116 298.846 316.943 293.427 319.112 285.331C321.281 277.236 314.41 260.83 304.212 267.67C297.126 269.19 295.057 271.205 293.484 277.12Z" fill="black"/>
<path d="M386.413 343.588C387.406 346.429 388.201 348.924 388.979 351.601C389.757 354.277 390.469 356.887 391.181 359.547C392.522 364.867 393.747 370.254 394.707 375.788C395.187 378.547 395.634 381.323 396.015 384.165C396.396 387.007 396.661 389.898 396.859 392.855C397.058 395.813 397.19 398.853 397.075 402.058C397.009 405.548 396.637 409.025 395.965 412.45L395.8 413.276C395.407 415.173 394.592 416.957 393.416 418.497C391.671 420.732 389.567 422.664 387.191 424.213C385.213 425.496 383.083 426.528 380.85 427.286C377.299 428.452 373.607 429.13 369.873 429.302C366.743 429.472 363.603 429.389 360.486 429.054C357.506 428.757 354.659 428.344 351.877 427.799C346.467 426.71 341.136 425.264 335.917 423.47C330.77 421.73 325.738 419.666 320.852 417.291C319.211 416.473 317.908 415.109 317.167 413.435C316.425 411.761 316.292 409.881 316.79 408.12C317.289 406.359 318.387 404.826 319.896 403.786C321.405 402.745 323.23 402.263 325.057 402.421H325.471C330.206 402.867 335.255 403.413 340.09 403.743C344.924 404.074 349.742 404.338 354.344 404.288C358.555 404.348 362.76 403.971 366.893 403.165C368.271 402.92 369.598 402.445 370.817 401.76C371.165 401.513 371.297 401.314 371.231 401.298C371.165 401.281 370.834 401.397 370.502 401.744L367.953 407.791C368.019 406.022 367.969 404.25 367.804 402.487C367.589 400.439 367.373 398.241 367.009 395.994C366.281 391.467 365.354 386.742 364.178 381.967C363.003 377.193 361.827 372.385 360.486 367.577L356.496 353.269L356.397 352.906C355.309 348.978 355.795 344.783 357.751 341.206C359.706 337.63 362.979 334.952 366.877 333.74C370.775 332.528 374.993 332.876 378.638 334.71C382.284 336.545 385.072 339.722 386.413 343.571V343.588Z" fill="#AC3E2F"/>
<path d="M308.451 400.372L314.924 399.744C317.46 399.493 320.018 399.891 322.357 400.9L328.847 403.726C330.399 404.496 331.694 405.699 332.575 407.189C333.457 408.678 333.887 410.391 333.814 412.119C333.814 417.422 330.288 422.28 325.702 422.924C322.425 423.269 319.112 423.034 315.917 422.23L307.755 421.668C306.34 421.486 305.048 420.774 304.141 419.675C303.234 418.576 302.78 417.174 302.871 415.753L302.722 407.658C302.625 405.956 303.153 404.277 304.208 402.935C305.262 401.594 306.771 400.683 308.451 400.372Z" fill="#AC3E2F"/>
<path d="M332.704 569.141C319.344 541.335 327.87 538.857 315.85 512.422C336.843 514.619 374.508 516.437 387.173 488.895C392.255 477.842 391.179 465.071 391.146 459.635C376.743 451.903 330.585 454.001 308.367 458.793C271.944 466.624 255.471 473.662 270.289 518.271C275.156 532.925 282.01 546.176 296.513 569.604C302.771 579.698 306.016 595.46 312.009 601.16C317.837 606.034 323.599 595.89 335.386 597.228C340.37 589.859 335.469 574.907 332.704 569.141Z" fill="#2C197D"/>
<path d="M343.466 605.572C339.426 603.177 326.91 608.976 326.91 608.976C326.694 607.38 326.129 605.852 325.255 604.499C323.715 601.756 316.05 604.631 313.666 608.034C311.282 611.438 318.285 613.073 318.285 613.073C314.56 620.607 317.01 624.639 305.653 627.679C303.285 628.306 304.146 633.263 309.775 633.345C319.113 633.478 318.318 630.19 325.95 627.976C332.473 626.076 340.85 623.746 347.572 621.681C347.859 621.619 348.13 621.498 348.367 621.325C348.605 621.153 348.804 620.933 348.952 620.68C349.1 620.426 349.193 620.145 349.226 619.854C349.26 619.563 349.232 619.268 349.145 618.988L343.466 605.572Z" fill="#001447"/>
<path d="M266.68 616.592C263.535 613.123 249.893 615.023 249.893 615.023C250.164 613.445 250.09 611.828 249.677 610.281C249.015 607.192 240.837 607.72 237.592 610.281C234.347 612.842 240.522 616.444 240.522 616.444C234.761 622.557 233.685 624.705 222.311 627.679C219.943 628.306 220.788 633.263 226.433 633.346C235.754 633.478 235.522 632.817 243.469 632.932C250.273 633.032 258.949 633.246 265.985 633.246C266.279 633.262 266.574 633.218 266.85 633.115C267.126 633.011 267.377 632.853 267.589 632.648C267.8 632.443 267.967 632.196 268.079 631.924C268.19 631.652 268.244 631.36 268.236 631.066L266.68 616.592Z" fill="#001447"/>
<path d="M156.203 429.681H345.188V416.431H156.203V429.681Z" fill="#332A25"/>
<path opacity="0.3" d="M275.736 429.681H345.188V416.431H275.736V429.681Z" fill="#263238"/>
<path d="M242.244 635.789H259.148L254.76 429.681H246.631L242.244 635.789Z" fill="#E0E0E0"/>
<path opacity="0.3" d="M246.5 436.488L254.993 440.404L254.761 429.681H246.632L246.5 436.488Z" fill="#263238"/>
<path d="M358.532 320.623C391.263 320.358 388.465 347.057 395.866 365.71C383.532 384.991 356.877 386.395 356.877 386.395C356.877 386.395 322.656 320.92 358.532 320.623Z" fill="#FF981F"/>
<path d="M321.793 294.765C322.005 296.728 321.788 298.714 321.156 300.585C320.524 302.456 319.493 304.168 318.134 305.603C314.608 309.023 309.856 305.322 308.465 299.837C307.157 294.88 307.406 287.181 312.124 285.926C316.843 284.67 321.395 289.461 321.793 294.765Z" fill="#AC3E2F"/>
<path d="M296.167 279.451C289.412 290.785 267.244 292.552 258.933 287.265C250.903 282.16 250.787 270.066 258.933 264.135C260.886 275.618 277.293 277.154 286.581 273.486C295.869 269.818 302.177 269.455 296.167 279.451Z" fill="black"/>
<path d="M290.603 276.443C279.494 263.357 289.775 249.727 302.887 250.14C294.527 260.268 300.321 266.761 305.222 267.901C298.467 277.417 290.603 276.443 290.603 276.443Z" fill="black"/>
<path d="M286.778 287.132C272.16 294.699 253.038 291.758 250.736 284.323C258.054 287.049 265.802 284.439 266.497 281.531C272.143 285.562 286.778 287.132 286.778 287.132Z" fill="black"/>
<path d="M304.195 267.67C310.205 262.399 320.619 269.057 321.993 274.989C316.43 272.461 313.367 275.567 312.887 277.847C308.384 274.79 304.195 267.67 304.195 267.67Z" fill="black"/>
<path d="M267.573 276.74C260.371 266.827 266.298 252.255 279.046 249.694C275.255 256.303 288.714 265.39 294.426 262.053C300.568 276.228 295.072 280.045 284.658 283.019C276.894 285.249 270.089 280.16 267.573 276.74Z" fill="black"/>
<path d="M291.614 264.697C294.396 257.642 312.706 254.585 316.945 261.392C310.587 262.945 312.905 271.305 311.846 276.262C310.173 284.06 287.293 275.618 291.614 264.697Z" fill="black"/>
<path d="M415.86 207.061C415.86 201.546 412.974 196.558 408.317 192.975C408.471 192.246 408.55 191.504 408.552 190.759C408.552 183.405 401.075 177.427 391.769 177.257C388.941 170.139 380.53 165 370.555 165C362.616 165 355.648 168.281 351.698 173.212C350.701 173.076 349.696 173.007 348.69 173.005C339.205 173.005 331.511 179.058 331.511 186.526C331.51 187.79 331.733 189.045 332.171 190.231C326.127 193.409 322.139 198.821 322.139 204.968C322.139 210.889 325.835 216.122 331.511 219.337V219.526C331.511 226.777 338.752 232.726 347.86 233.028C352.876 237.931 360.57 241.07 369.197 241.07C374.862 241.119 380.44 239.682 385.377 236.903C386.153 236.99 386.934 237.034 387.715 237.035C397.2 237.035 404.894 230.982 404.894 223.514V223.382C411.532 219.799 415.86 213.831 415.86 207.061Z" fill="white"/>
<path d="M321.393 246.765C321.393 248.001 319.959 249 318.196 249C316.433 249 315 248.001 315 246.765C315 245.53 316.433 244.531 318.196 244.531C319.959 244.531 321.393 245.53 321.393 246.765Z" fill="white"/>
<path d="M343.531 241.429C343.531 245.002 339.373 247.897 334.243 247.897C329.114 247.897 324.984 245.021 324.984 241.429C324.984 237.837 329.142 234.961 334.272 234.961C339.401 234.961 343.531 237.884 343.531 241.429Z" fill="white"/>
<path d="M369.471 178.652C378.645 178.652 384.321 182.961 384.321 190.627C384.321 200.998 373.78 202.328 373.78 210.333H364.681C364.681 199.801 373.101 199.179 373.101 192.616C373.101 189.788 371.319 188.439 368.311 188.439C364.955 188.439 363.172 190.419 363.106 194.53H353.734C353.8 184.47 359.684 178.652 369.471 178.652ZM374.958 221.43C374.958 222.983 374.341 224.472 373.243 225.57C372.145 226.669 370.656 227.285 369.103 227.285C367.55 227.285 366.061 226.669 364.963 225.57C363.865 224.472 363.248 222.983 363.248 221.43C363.248 219.877 363.865 218.388 364.963 217.29C366.061 216.192 367.55 215.575 369.103 215.575C370.656 215.575 372.145 216.192 373.243 217.29C374.341 218.388 374.958 219.877 374.958 221.43Z" fill="#009CF2"/>
<path d="M304.5 413.232V416.507C304.5 417.983 302.697 418.596 301.204 418.596H184.803C183.326 418.596 181.571 417.983 181.571 416.507V413.232H304.5Z" fill="#A87FFF"/>
<path opacity="0.4" d="M304.5 413.232V416.507C304.5 417.983 302.697 418.596 301.204 418.596H184.803C183.326 418.596 181.571 417.983 181.571 416.507V413.232H304.5Z" fill="white"/>
<path opacity="0.2" d="M264.842 413.232V416.507C264.842 417.983 263.071 418.596 261.578 418.596H184.803C183.326 418.596 181.571 417.983 181.571 416.507V413.232H264.842Z" fill="#3C4043"/>
<path d="M162.092 350.945L175.95 413.099C176.198 414.098 176.774 414.988 177.587 415.63C178.399 416.272 179.404 416.63 180.444 416.649H256.147C258.157 416.649 259.459 414.787 258.99 412.722L245.149 351.039C244.68 349.013 242.679 348 240.646 348H164.951C162.918 348.008 161.64 348.919 162.092 350.945Z" fill="#A87FFF"/>
<path opacity="0.4" d="M162.091 350.945L175.949 413.099C176.197 414.098 176.773 414.988 177.586 415.63C178.398 416.272 179.403 416.63 180.443 416.649H253.574C255.606 416.649 256.885 414.787 256.432 412.722L242.575 351.039C242.122 349.013 240.105 348 238.072 348H164.95C162.917 348.008 161.639 348.919 162.091 350.945Z" fill="white"/>
<path opacity="0.2" d="M199.415 382.537C199.415 387.861 205.18 392.188 209.413 392.188C213.645 392.188 216.147 387.861 214.971 382.537C213.796 377.213 209.564 373.075 205.442 372.91C206.649 378.234 204.068 382.537 199.883 382.537C199.727 382.552 199.571 382.552 199.415 382.537Z" fill="white"/>
</svg>
