<svg width="236" height="140" viewBox="0 0 236 140" fill="none" xmlns="http://www.w3.org/2000/svg">
<circle cx="143" cy="50.5" r="50.5" fill="#FFF4E8"/>
<circle cx="96" cy="92.5" r="39.5" fill="#F8F4FF"/>
<path d="M75.1051 99.8054H172.383C172.955 99.8095 173.522 99.6966 174.049 99.4735C174.575 99.2504 175.05 98.9221 175.443 98.5088C175.837 98.0956 176.141 97.6062 176.336 97.0713C176.531 96.5363 176.613 95.9672 176.578 95.3992L172.948 21.5958C172.881 20.4148 172.365 19.3032 171.506 18.4853C170.646 17.6675 169.507 17.2044 168.317 17.1896H71.0394C70.467 17.1849 69.8997 17.2976 69.3729 17.5204C68.8462 17.7433 68.3712 18.0716 67.9777 18.485C67.5841 18.8984 67.2804 19.3879 67.0854 19.9231C66.8905 20.4583 66.8084 21.0277 66.8445 21.5958L70.4744 95.3992C70.5425 96.5799 71.0582 97.691 71.9175 98.5087C72.7768 99.3263 73.9159 99.7897 75.1051 99.8054V99.8054Z" fill="#6E29FF"/>
<path opacity="0.7" d="M75.1051 99.8054H172.383C172.955 99.8095 173.522 99.6965 174.049 99.4735C174.575 99.2504 175.05 98.9221 175.443 98.5088C175.837 98.0956 176.141 97.6062 176.336 97.0713C176.531 96.5363 176.613 95.9672 176.578 95.3992L172.948 21.5958C172.881 20.4148 172.365 19.3032 171.506 18.4853C170.646 17.6675 169.507 17.2044 168.317 17.1896H71.0394C70.467 17.1849 69.8997 17.2976 69.3729 17.5204C68.8462 17.7433 68.3712 18.0716 67.9777 18.485C67.5841 18.8984 67.2804 19.3879 67.0854 19.9231C66.8905 20.4583 66.8084 21.0277 66.8444 21.5958L70.4744 95.3992C70.5425 96.5799 71.0582 97.691 71.9175 98.5087C72.7768 99.3263 73.9159 99.7897 75.1051 99.8054Z" fill="white"/>
<path d="M67.2732 17.9867C67.7911 17.416 68.4378 16.9756 69.1602 16.7016L69.0272 16.3564C68.2534 16.655 67.5595 17.1275 66.9999 17.737L67.2732 17.9867Z" fill="#6E29FF"/>
<path d="M70.9907 16H78.7676V16.3672H70.9907V16Z" fill="#6E29FF"/>
<path d="M71.0387 17.2116H168.317C169.506 17.2265 170.646 17.6896 171.505 18.5074C172.365 19.3252 172.88 20.4368 172.947 21.6178H66.8364C66.8003 21.0491 66.8825 20.4791 67.078 19.9434C67.2734 19.4077 67.5777 18.9178 67.9721 18.5043C68.3665 18.0909 68.8423 17.7627 69.3699 17.5402C69.8976 17.3178 70.4657 17.206 71.0387 17.2116V17.2116Z" fill="#6E29FF"/>
<path d="M173.609 94.8263L170.234 26.5783C170.202 26.0281 169.962 25.5105 169.561 25.1301C169.16 24.7497 168.628 24.535 168.074 24.5294H72.0074C71.7405 24.5264 71.4759 24.5781 71.23 24.6813C70.9841 24.7845 70.7622 24.937 70.5782 25.1293C70.3942 25.3215 70.2521 25.5494 70.1606 25.7987C70.0691 26.048 70.0303 26.3134 70.0465 26.5783L73.4032 94.83C73.435 95.3811 73.6762 95.8997 74.078 96.2808C74.4797 96.6618 75.012 96.8769 75.5672 96.8825H171.649C171.916 96.8851 172.181 96.8328 172.427 96.729C172.673 96.6251 172.895 96.4719 173.079 96.279C173.263 96.0861 173.405 95.8575 173.497 95.6076C173.588 95.3576 173.626 95.0917 173.609 94.8263V94.8263Z" fill="white"/>
<path opacity="0.3" d="M159.976 47.9262H164.407C164.503 47.9274 164.598 47.9089 164.687 47.872C164.775 47.8351 164.855 47.7806 164.922 47.7118C164.988 47.6429 165.04 47.5613 165.073 47.4719C165.107 47.3824 165.121 47.2871 165.116 47.1919L164.747 39.481C164.734 39.2829 164.646 39.0971 164.501 38.9609C164.355 38.8246 164.164 38.7481 163.964 38.7467H159.533C159.437 38.745 159.341 38.7631 159.252 38.7998C159.163 38.8364 159.083 38.8909 159.016 38.9598C158.949 39.0287 158.897 39.1105 158.863 39.2002C158.83 39.2898 158.815 39.3855 158.82 39.481L159.189 47.1919C159.202 47.3906 159.291 47.577 159.437 47.7133C159.583 47.8496 159.776 47.9257 159.976 47.9262V47.9262Z" fill="#FF981F"/>
<path opacity="0.3" d="M151.105 47.9264H155.537C155.633 47.927 155.728 47.9082 155.816 47.8712C155.905 47.8341 155.985 47.7796 156.051 47.711C156.118 47.6423 156.17 47.5609 156.204 47.4717C156.238 47.3825 156.253 47.2874 156.249 47.192L155.803 38.0859C155.788 37.8878 155.699 37.7024 155.553 37.5665C155.407 37.4305 155.216 37.3538 155.016 37.3516H150.585C150.489 37.351 150.394 37.3698 150.305 37.4068C150.217 37.4439 150.137 37.4983 150.07 37.567C150.004 37.6357 149.952 37.7171 149.918 37.8063C149.884 37.8955 149.868 37.9906 149.872 38.0859L150.319 47.192C150.334 47.3902 150.423 47.5755 150.568 47.7115C150.714 47.8475 150.906 47.9242 151.105 47.9264V47.9264Z" fill="#FF981F"/>
<path opacity="0.3" d="M142.236 47.9262H146.668C146.763 47.9268 146.859 47.908 146.947 47.871C147.035 47.834 147.115 47.7795 147.182 47.7108C147.249 47.6421 147.301 47.5607 147.335 47.4715C147.369 47.3823 147.384 47.2872 147.38 47.1919L146.885 37.1348C146.871 36.9367 146.782 36.7513 146.636 36.6153C146.49 36.4793 146.299 36.4026 146.099 36.4004H141.668C141.572 36.3998 141.477 36.4186 141.388 36.4556C141.3 36.4927 141.22 36.5472 141.153 36.6158C141.086 36.6845 141.035 36.7659 141 36.8551C140.966 36.9443 140.951 37.0394 140.955 37.1348L141.431 47.1809C141.444 47.3841 141.534 47.5748 141.684 47.7136C141.834 47.8523 142.031 47.9285 142.236 47.9262V47.9262Z" fill="#FF981F"/>
<path opacity="0.3" d="M133.361 47.9263H137.792C137.888 47.9269 137.983 47.9081 138.071 47.871C138.159 47.834 138.239 47.7794 138.305 47.7107C138.372 47.642 138.423 47.5605 138.457 47.4714C138.491 47.3822 138.506 47.2871 138.501 47.192L137.966 36.272C137.951 36.0739 137.862 35.8885 137.716 35.7525C137.571 35.6165 137.379 35.5398 137.179 35.5376H132.748C132.652 35.537 132.557 35.5558 132.468 35.5929C132.38 35.6299 132.3 35.6844 132.233 35.753C132.167 35.8217 132.115 35.9031 132.081 35.9923C132.047 36.0815 132.031 36.1766 132.035 36.272L132.567 47.1809C132.577 47.3829 132.666 47.5731 132.814 47.7119C132.961 47.8507 133.157 47.9275 133.361 47.9263V47.9263Z" fill="#FF981F"/>
<path d="M124.492 47.9266H128.923C129.019 47.9272 129.114 47.9084 129.203 47.8713C129.291 47.8343 129.371 47.7798 129.438 47.7111C129.505 47.6425 129.556 47.5611 129.591 47.4719C129.625 47.3827 129.64 47.2875 129.636 47.1922L128.934 32.9419C128.921 32.7435 128.832 32.5576 128.686 32.4215C128.54 32.2853 128.348 32.2089 128.148 32.2075H123.717C123.621 32.207 123.526 32.2257 123.437 32.2628C123.349 32.2998 123.269 32.3543 123.202 32.423C123.136 32.4916 123.084 32.573 123.05 32.6622C123.015 32.7514 123 32.8466 123.004 32.9419L123.706 47.1812C123.718 47.3813 123.806 47.5694 123.951 47.7076C124.097 47.8459 124.291 47.9241 124.492 47.9266Z" fill="#FF981F"/>
<path d="M125.647 30.6762L125.226 30.0079C125.203 29.9718 125.19 29.9301 125.189 29.8873C125.187 29.8444 125.198 29.802 125.218 29.7644C125.239 29.7268 125.27 29.6955 125.307 29.6738C125.344 29.652 125.386 29.6406 125.43 29.6408H126.209C126.252 29.6393 126.296 29.6497 126.334 29.6709C126.372 29.6921 126.404 29.7233 126.426 29.7611C126.447 29.7989 126.458 29.8419 126.457 29.8854C126.456 29.9289 126.443 29.9713 126.419 30.0079L126.05 30.6762C126.029 30.7104 125.999 30.7386 125.964 30.7582C125.929 30.7777 125.889 30.788 125.849 30.788C125.808 30.788 125.769 30.7777 125.733 30.7582C125.698 30.7386 125.669 30.7104 125.647 30.6762V30.6762Z" fill="#263238"/>
<path opacity="0.3" d="M115.621 47.9265H120.052C120.148 47.9271 120.243 47.9083 120.332 47.8712C120.42 47.8342 120.5 47.7797 120.567 47.7111C120.633 47.6424 120.685 47.561 120.719 47.4718C120.754 47.3826 120.769 47.2875 120.765 47.1921L120.174 35.189C120.159 34.9909 120.07 34.8055 119.925 34.6695C119.779 34.5335 119.587 34.4568 119.388 34.4546H114.956C114.86 34.454 114.765 34.4728 114.677 34.5099C114.588 34.5469 114.508 34.6014 114.442 34.67C114.375 34.7387 114.323 34.8201 114.289 34.9093C114.255 34.9985 114.24 35.0936 114.244 35.189L114.842 47.1811C114.853 47.3802 114.94 47.5678 115.084 47.7061C115.229 47.8443 115.42 47.9231 115.621 47.9265V47.9265Z" fill="#FF981F"/>
<path opacity="0.1" d="M115.235 50.3207H165.017C165.049 50.3212 165.08 50.3153 165.109 50.3031C165.138 50.291 165.165 50.273 165.187 50.2502C165.209 50.2275 165.225 50.2004 165.236 50.1708C165.247 50.1412 165.252 50.1097 165.25 50.0783V50.0783C165.245 50.013 165.216 49.9519 165.168 49.907C165.12 49.8621 165.057 49.8367 164.991 49.836H115.213C115.181 49.8354 115.15 49.8414 115.121 49.8535C115.091 49.8656 115.065 49.8836 115.043 49.9064C115.021 49.9292 115.004 49.9562 114.994 49.9858C114.983 50.0154 114.978 50.0469 114.98 50.0783C114.983 50.1436 115.011 50.2052 115.059 50.2504C115.106 50.2955 115.169 50.3207 115.235 50.3207V50.3207Z" fill="#263238"/>
<path opacity="0.1" d="M111.689 93.2516L108.484 28.1503C108.481 28.088 108.454 28.0291 108.409 27.986C108.363 27.9429 108.303 27.9189 108.24 27.919H108.218C108.188 27.9184 108.158 27.9241 108.13 27.9356C108.102 27.9472 108.077 27.9644 108.056 27.9862C108.035 28.0079 108.019 28.0338 108.009 28.062C107.999 28.0903 107.994 28.1203 107.996 28.1503L111.198 93.2516C111.202 93.314 111.229 93.3727 111.274 93.4162C111.319 93.4597 111.379 93.4848 111.442 93.4866H111.468C111.498 93.4861 111.528 93.4796 111.555 93.4675C111.583 93.4553 111.608 93.4377 111.629 93.4158C111.649 93.3939 111.665 93.368 111.676 93.3398C111.686 93.3116 111.691 93.2816 111.689 93.2516V93.2516Z" fill="#263238"/>
<path d="M95.3151 32.7176C95.3404 32.718 95.3655 32.7133 95.389 32.7039C95.4125 32.6944 95.4338 32.6803 95.4517 32.6625L97.0876 30.9477H102.708C102.757 30.9477 102.804 30.9284 102.838 30.894C102.873 30.8595 102.893 30.8129 102.893 30.7642C102.893 30.7155 102.873 30.6688 102.838 30.6343C102.804 30.5999 102.757 30.5806 102.708 30.5806H97.01C96.985 30.5805 96.9601 30.5856 96.9372 30.5958C96.9143 30.6059 96.8938 30.6207 96.8771 30.6393L95.1821 32.4091C95.156 32.4345 95.1383 32.4672 95.1312 32.5028C95.1241 32.5384 95.1279 32.5753 95.1423 32.6086C95.1567 32.642 95.1809 32.6703 95.2117 32.6897C95.2426 32.7091 95.2786 32.7189 95.3151 32.7176V32.7176Z" fill="#263238"/>
<path d="M96.6491 59.7754C96.6994 59.7739 96.7471 59.7528 96.782 59.7167L98.4216 58.0019H104.042C104.091 58.0019 104.138 57.9826 104.172 57.9482C104.207 57.9137 104.227 57.867 104.227 57.8184C104.227 57.7697 104.207 57.723 104.172 57.6885C104.138 57.6541 104.091 57.6348 104.042 57.6348H98.3403C98.29 57.6363 98.2422 57.6574 98.2074 57.6935L96.5161 59.4633C96.4988 59.4804 96.4851 59.5007 96.4757 59.5231C96.4663 59.5454 96.4615 59.5694 96.4615 59.5937C96.4615 59.6179 96.4663 59.6419 96.4757 59.6643C96.4851 59.6867 96.4988 59.707 96.5161 59.724C96.5525 59.7569 96.5999 59.7752 96.6491 59.7754Z" fill="#263238"/>
<path d="M101.526 87.6812H103.395C103.647 87.6853 103.889 87.784 104.072 87.9575C104.255 88.1311 104.365 88.3667 104.381 88.6175L104.473 90.4791C104.48 90.6002 104.462 90.7214 104.42 90.8353C104.378 90.9492 104.313 91.0532 104.229 91.141C104.145 91.2288 104.043 91.2985 103.931 91.3457C103.819 91.3929 103.698 91.4166 103.576 91.4154H101.707C101.454 91.4122 101.211 91.3139 101.028 91.1403C100.844 90.9667 100.733 90.7305 100.718 90.4791L100.625 88.6175C100.619 88.4962 100.637 88.3749 100.68 88.261C100.722 88.1472 100.788 88.0432 100.872 87.9554C100.956 87.8677 101.058 87.7981 101.171 87.7509C101.283 87.7037 101.404 87.68 101.526 87.6812Z" fill="#6E29FF"/>
<path d="M91.0478 87.6811H92.9163C93.172 87.6846 93.4168 87.7849 93.6007 87.9616C93.7846 88.1383 93.8938 88.3781 93.906 88.6321L93.9946 90.4937C94.0017 90.6145 93.9837 90.7354 93.942 90.849C93.9002 90.9627 93.8354 91.0665 93.7517 91.1543C93.6679 91.242 93.567 91.3118 93.455 91.3592C93.3431 91.4066 93.2226 91.4307 93.1009 91.43H91.2103C90.9576 91.4259 90.7158 91.3272 90.533 91.1537C90.3503 90.9802 90.2401 90.7445 90.2243 90.4937L90.132 88.6321C90.1226 88.5083 90.1395 88.3839 90.1817 88.2669C90.2238 88.15 90.2902 88.0433 90.3766 87.9536C90.463 87.8639 90.5674 87.7932 90.683 87.7463C90.7987 87.6994 90.9229 87.6772 91.0478 87.6811V87.6811Z" fill="#263238"/>
<path opacity="0.3" d="M80.5636 87.6812H82.4358C82.6885 87.6853 82.9303 87.784 83.1131 87.9575C83.2958 88.131 83.406 88.3667 83.4218 88.6175L83.5141 90.4791C83.5212 90.5999 83.5033 90.7208 83.4615 90.8344C83.4197 90.948 83.3549 91.0519 83.2712 91.1397C83.1874 91.2274 83.0865 91.2971 82.9746 91.3446C82.8627 91.392 82.7421 91.4161 82.6205 91.4154H80.7483C80.4935 91.4119 80.2497 91.312 80.0665 91.136C79.8833 90.96 79.7745 90.7211 79.7623 90.4681L79.67 88.6065C79.6645 88.4866 79.6835 88.3669 79.726 88.2545C79.7685 88.1422 79.8335 88.0397 79.9171 87.9531C80.0007 87.8666 80.1011 87.7978 80.2123 87.7511C80.3234 87.7043 80.4429 87.6805 80.5636 87.6812V87.6812Z" fill="#6E29FF"/>
<path d="M145.954 71.2976H145.998C146.022 71.2924 146.045 71.2825 146.064 71.2686C146.084 71.2546 146.101 71.2368 146.114 71.2163C146.126 71.1957 146.135 71.1728 146.139 71.1489C146.142 71.125 146.141 71.1007 146.135 71.0773C144.887 65.8596 142.239 60.5134 139.119 60.3409C137.032 60.2234 135.843 61.9565 134.466 63.9576C133.469 65.4006 132.343 67.0346 130.692 68.2683C129.555 69.1165 128.395 69.3368 127.243 68.9256C124.676 68.004 122.221 63.8511 120.832 58.0901C120.827 58.0659 120.816 58.0432 120.801 58.0231C120.787 58.0031 120.768 57.9861 120.747 57.9731C120.726 57.9602 120.702 57.9515 120.677 57.9476C120.653 57.9438 120.628 57.9447 120.603 57.9505C120.579 57.9563 120.556 57.9668 120.536 57.9814C120.516 57.9959 120.499 58.0143 120.486 58.0355C120.473 58.0566 120.464 58.0801 120.46 58.1046C120.456 58.1291 120.457 58.1541 120.463 58.1782C121.9 64.1449 124.385 68.294 127.11 69.2707C128.388 69.726 129.665 69.4874 130.906 68.5621C132.605 67.2953 133.75 65.6246 134.761 64.1559C136.135 62.1658 137.213 60.5979 139.089 60.697C142.003 60.8586 144.532 66.0652 145.736 71.1507C145.741 71.1747 145.75 71.1975 145.763 71.2179C145.777 71.2383 145.794 71.2558 145.814 71.2695C145.834 71.2832 145.857 71.2927 145.881 71.2975C145.905 71.3023 145.93 71.3024 145.954 71.2976Z" fill="#00DFAB"/>
<path opacity="0.1" d="M118.905 73.8384H163.643C164.025 73.841 164.404 73.7657 164.756 73.6172C165.107 73.4687 165.425 73.2501 165.689 72.9748C165.952 72.6996 166.156 72.3736 166.289 72.0169C166.421 71.6603 166.478 71.2805 166.457 70.901L165.803 57.9468C165.759 57.1592 165.416 56.4176 164.843 55.8722C164.269 55.3268 163.509 55.0184 162.716 55.0093H117.997C117.615 55.0068 117.236 55.082 116.884 55.2306C116.532 55.3791 116.215 55.5977 115.951 55.8729C115.687 56.1481 115.483 56.4741 115.351 56.8308C115.219 57.1875 115.162 57.5673 115.183 57.9468L115.818 70.8973C115.861 71.6856 116.204 72.4281 116.777 72.9742C117.351 73.5204 118.111 73.8293 118.905 73.8384ZM162.734 55.3875C163.43 55.3955 164.097 55.6649 164.601 56.1417C165.105 56.6185 165.409 57.2673 165.452 57.9578L166.087 70.9083C166.109 71.2397 166.062 71.572 165.949 71.8844C165.836 72.1968 165.659 72.4826 165.429 72.7239C165.2 72.9652 164.923 73.1567 164.615 73.2866C164.308 73.4165 163.977 73.4818 163.643 73.4786H118.905C118.209 73.4706 117.543 73.2012 117.038 72.7244C116.534 72.2476 116.23 71.5988 116.187 70.9083L115.549 57.9578C115.528 57.6264 115.576 57.2942 115.69 56.9821C115.804 56.6699 115.981 56.3844 116.21 56.1432C116.44 55.9021 116.717 55.7106 117.025 55.5806C117.332 55.4506 117.663 55.3849 117.997 55.3875H162.734Z" fill="#263238"/>
<path opacity="0.1" d="M153.964 58.6924H161.194C161.304 58.6926 161.413 58.6704 161.514 58.6273C161.615 58.5842 161.706 58.521 161.782 58.4416C161.858 58.3622 161.916 58.2682 161.954 58.1655C161.992 58.0628 162.009 57.9535 162.003 57.8443C161.991 57.6208 161.893 57.4103 161.731 57.2555C161.568 57.1007 161.353 57.0132 161.128 57.0108H153.901C153.79 57.0101 153.681 57.0319 153.58 57.0748C153.478 57.1177 153.386 57.1808 153.31 57.2603C153.234 57.3398 153.175 57.4339 153.137 57.5368C153.099 57.6398 153.082 57.7494 153.088 57.8589C153.101 58.0821 153.199 58.2921 153.361 58.4467C153.524 58.6013 153.739 58.6891 153.964 58.6924V58.6924ZM161.128 57.3779C161.257 57.3804 161.381 57.4313 161.475 57.5204C161.568 57.6095 161.625 57.7303 161.633 57.8589C161.638 57.9192 161.63 57.9797 161.609 58.0366C161.589 58.0935 161.557 58.1456 161.515 58.1894C161.473 58.232 161.423 58.2659 161.368 58.2893C161.313 58.3126 161.254 58.3248 161.194 58.3253H153.964C153.834 58.3219 153.711 58.2708 153.617 58.1819C153.524 58.093 153.467 57.9726 153.458 57.8443C153.454 57.7838 153.463 57.7232 153.484 57.6663C153.505 57.6094 153.537 57.5575 153.58 57.5138C153.621 57.47 153.67 57.4353 153.726 57.4118C153.781 57.3884 153.841 57.3769 153.901 57.3779H161.128Z" fill="#263238"/>
<path d="M160.522 69.6118H162.398L162.49 71.4771H160.614L160.522 69.6118Z" fill="#6E29FF"/>
<path opacity="0.3" d="M158.466 93.468H162.291C162.457 93.4693 162.621 93.4368 162.773 93.3726C162.925 93.3085 163.063 93.2139 163.177 93.0949C163.291 92.9759 163.38 92.8348 163.437 92.6805C163.494 92.5262 163.519 92.3618 163.51 92.1975L163.322 88.3899C163.301 88.0485 163.152 87.7274 162.903 87.4911C162.654 87.2548 162.325 87.1207 161.981 87.1158H158.152C157.986 87.1144 157.822 87.147 157.67 87.2114C157.517 87.2759 157.38 87.3708 157.266 87.4903C157.152 87.6098 157.064 87.7513 157.007 87.9061C156.951 88.0608 156.927 88.2255 156.937 88.3899L157.121 92.1975C157.144 92.5386 157.294 92.8588 157.544 93.0943C157.793 93.3297 158.122 93.4632 158.466 93.468V93.468Z" fill="#FF981F"/>
<path opacity="0.1" d="M143.786 91.3896H153.657C153.801 91.3909 153.943 91.3628 154.075 91.3072C154.207 91.2516 154.326 91.1697 154.425 91.0664C154.524 90.9632 154.601 90.8408 154.65 90.7069C154.7 90.5731 154.721 90.4305 154.713 90.2881C154.699 89.9935 154.572 89.7154 154.359 89.5106C154.145 89.3059 153.861 89.1899 153.565 89.1865H143.698C143.554 89.1859 143.412 89.2143 143.28 89.27C143.148 89.3257 143.029 89.4076 142.93 89.5107C142.83 89.6138 142.753 89.7359 142.703 89.8695C142.653 90.0032 142.631 90.1456 142.638 90.2881C142.652 90.5827 142.779 90.8608 142.992 91.0655C143.206 91.2703 143.49 91.3862 143.786 91.3896V91.3896ZM153.565 89.5537C153.764 89.5568 153.955 89.6339 154.099 89.7698C154.244 89.9057 154.333 90.0906 154.348 90.2881C154.352 90.3813 154.338 90.4745 154.305 90.5622C154.273 90.6498 154.223 90.7301 154.159 90.7985C154.094 90.8654 154.016 90.9184 153.93 90.9544C153.843 90.9904 153.751 91.0085 153.657 91.0078H143.786C143.587 91.0063 143.396 90.9296 143.251 90.7933C143.107 90.657 143.019 90.4712 143.007 90.2734C143.001 90.1799 143.014 90.0861 143.046 89.9982C143.079 89.9102 143.13 89.8301 143.196 89.763C143.26 89.6951 143.338 89.6411 143.424 89.6045C143.511 89.5678 143.604 89.5493 143.698 89.55L153.565 89.5537Z" fill="#263238"/>
<path d="M160.264 91.39C160.288 91.3891 160.312 91.3834 160.334 91.3733C160.356 91.3632 160.376 91.3488 160.392 91.3311C160.409 91.3134 160.422 91.2926 160.43 91.2699C160.438 91.2473 160.442 91.2232 160.441 91.1991L160.36 89.5725C160.36 89.5482 160.355 89.5241 160.345 89.5019C160.335 89.4797 160.321 89.4598 160.303 89.4435C160.285 89.4272 160.263 89.4149 160.24 89.4074C160.217 89.3999 160.192 89.3973 160.168 89.3999C160.144 89.4008 160.12 89.4065 160.098 89.4167C160.076 89.4268 160.056 89.4411 160.04 89.4588C160.023 89.4766 160.01 89.4974 160.002 89.52C159.994 89.5427 159.99 89.5667 159.991 89.5908L160.072 91.2175C160.075 91.2655 160.097 91.3105 160.132 91.3428C160.168 91.3751 160.216 91.392 160.264 91.39Z" fill="#6E29FF"/>
<path d="M160.969 90.3137C161.019 90.3122 161.067 90.2912 161.102 90.255C161.119 90.2379 161.133 90.2176 161.142 90.1952C161.151 90.1729 161.156 90.1489 161.156 90.1246C161.156 90.1004 161.151 90.0764 161.142 90.054C161.133 90.0317 161.119 90.0114 161.102 89.9943L160.311 89.2599C160.276 89.2261 160.228 89.2077 160.178 89.2085C160.13 89.2117 160.084 89.2326 160.049 89.2673L159.333 90.0016C159.299 90.0372 159.281 90.0846 159.282 90.1335C159.284 90.1824 159.304 90.2287 159.34 90.2623C159.376 90.2959 159.424 90.314 159.473 90.3127C159.522 90.3113 159.569 90.2905 159.602 90.255L160.19 89.6381L160.847 90.2623C160.88 90.2928 160.923 90.3109 160.969 90.3137V90.3137Z" fill="#6E29FF"/>
<path opacity="0.4" d="M133.222 87.1158H137.047C137.392 87.1207 137.721 87.2546 137.971 87.4909C138.22 87.7271 138.37 88.0482 138.391 88.3899L138.576 92.1975C138.586 92.3616 138.561 92.5259 138.504 92.6802C138.448 92.8345 138.36 92.9756 138.246 93.0947C138.132 93.2138 137.995 93.3084 137.842 93.3726C137.69 93.4368 137.526 93.4693 137.361 93.468H133.532C133.188 93.4631 132.86 93.3295 132.611 93.094C132.363 92.8584 132.213 92.5383 132.191 92.1975L132.003 88.3899C131.993 88.2253 132.018 88.0606 132.075 87.9058C132.132 87.751 132.22 87.6096 132.334 87.4901C132.449 87.3707 132.586 87.2758 132.739 87.2114C132.892 87.147 133.056 87.1145 133.222 87.1158V87.1158Z" fill="#263238"/>
<path opacity="0.1" d="M118.857 91.3896H128.724C128.868 91.3903 129.01 91.3619 129.142 91.3061C129.274 91.2504 129.393 91.1685 129.492 91.0654C129.591 90.9623 129.668 90.8403 129.719 90.7066C129.769 90.573 129.791 90.4305 129.784 90.2881C129.77 89.9935 129.643 89.7154 129.43 89.5106C129.216 89.3059 128.932 89.1899 128.635 89.1865H118.765C118.621 89.1864 118.48 89.2151 118.348 89.271C118.216 89.327 118.097 89.4089 117.998 89.5119C117.899 89.6148 117.822 89.7367 117.771 89.8701C117.721 90.0035 117.698 90.1457 117.705 90.2881C117.72 90.583 117.847 90.8611 118.062 91.0658C118.276 91.2704 118.56 91.3863 118.857 91.3896V91.3896ZM128.635 89.5537C128.834 89.5569 129.025 89.6341 129.169 89.7701C129.313 89.9061 129.401 90.0909 129.415 90.2881C129.419 90.3813 129.405 90.4745 129.372 90.5621C129.34 90.6498 129.29 90.7301 129.226 90.7984C129.161 90.8655 129.083 90.9187 128.997 90.9547C128.911 90.9907 128.818 91.0087 128.724 91.0077H118.857C118.657 91.0063 118.466 90.9298 118.32 90.7936C118.175 90.6573 118.087 90.4715 118.074 90.2734C118.067 90.1792 118.08 90.0845 118.111 89.9953C118.143 89.9062 118.193 89.8245 118.257 89.7555C118.322 89.6865 118.401 89.6316 118.488 89.5943C118.576 89.5571 118.67 89.5382 118.765 89.539L128.635 89.5537Z" fill="#263238"/>
<path d="M135.327 91.2024C135.351 91.2015 135.375 91.1958 135.397 91.1857C135.419 91.1756 135.438 91.1612 135.455 91.1435C135.471 91.1258 135.484 91.105 135.493 91.0823C135.501 91.0597 135.505 91.0356 135.504 91.0115L135.423 89.3849C135.423 89.3604 135.418 89.3362 135.408 89.3138C135.398 89.2914 135.384 89.2713 135.365 89.2547C135.347 89.2382 135.326 89.2255 135.303 89.2176C135.28 89.2096 135.255 89.2066 135.23 89.2086C135.181 89.2115 135.135 89.2335 135.102 89.2699C135.069 89.3063 135.051 89.3542 135.053 89.4032L135.134 91.0262C135.135 91.0503 135.141 91.074 135.151 91.0959C135.161 91.1178 135.176 91.1375 135.194 91.1539C135.212 91.1703 135.232 91.183 135.255 91.1913C135.278 91.1996 135.302 91.2034 135.327 91.2024V91.2024Z" fill="white"/>
<path d="M135.334 91.3896C135.383 91.3878 135.429 91.3682 135.463 91.3345L136.18 90.6002C136.197 90.5831 136.211 90.5628 136.22 90.5404C136.23 90.5181 136.234 90.4941 136.234 90.4698C136.234 90.4456 136.23 90.4216 136.22 90.3992C136.211 90.3769 136.197 90.3566 136.18 90.3395C136.163 90.3223 136.142 90.3086 136.12 90.2993C136.097 90.29 136.073 90.2852 136.049 90.2852C136.024 90.2852 136 90.29 135.978 90.2993C135.955 90.3086 135.935 90.3223 135.918 90.3395L135.33 90.9564L134.673 90.3321C134.656 90.3149 134.636 90.3013 134.613 90.292C134.591 90.2826 134.566 90.2778 134.542 90.2778C134.518 90.2778 134.494 90.2826 134.471 90.292C134.449 90.3013 134.428 90.3149 134.411 90.3321C134.394 90.3489 134.38 90.3689 134.371 90.391C134.361 90.413 134.357 90.4367 134.357 90.4607C134.357 90.4846 134.361 90.5083 134.371 90.5304C134.38 90.5524 134.394 90.5724 134.411 90.5892L135.201 91.3419C135.238 91.3737 135.285 91.3907 135.334 91.3896V91.3896Z" fill="white"/>
<path d="M184.226 27.3128C185.703 29.2258 185.976 31.8622 185.891 33.2098C185.788 34.8804 187.985 34.9575 187.368 37.8656C186.84 40.3845 188.38 41.1703 188.343 43.142C188.262 47.7134 184.137 49.0647 176.445 47.7134C168.753 46.3622 173.373 39.3784 172.346 36.6282C171.32 33.878 172.132 27.4303 174.193 27.7204C173.967 22.8663 181.26 23.4978 184.226 27.3128Z" fill="#263238"/>
<path d="M181.625 47.8748C181.677 48.8038 181.776 49.6409 181.898 50.5185C182.02 51.3961 182.179 52.2479 182.375 53.1071C182.57 53.9663 182.792 54.8329 183.065 55.6774C183.344 56.5554 183.681 57.414 184.073 58.2477L184.158 58.4313C184.356 58.8578 184.71 59.1929 185.148 59.3677C185.586 59.5425 186.075 59.5438 186.514 59.3712C187.02 59.1644 187.513 58.929 187.991 58.6663C188.46 58.4166 188.892 58.1375 189.328 57.8658C189.764 57.5941 190.174 57.2893 190.58 56.9809C190.986 56.6725 191.378 56.3567 191.765 55.9968C191.928 55.8257 192.033 55.6081 192.064 55.3748C192.096 55.1414 192.053 54.9041 191.941 54.6963C191.83 54.4885 191.656 54.3208 191.443 54.2169C191.231 54.1129 190.991 54.0779 190.757 54.1169H190.72C190.248 54.2234 189.771 54.3629 189.306 54.4841L187.921 54.888L186.573 55.2808C186.138 55.4057 185.702 55.5122 185.314 55.5966L187.759 56.7202C187.519 56.0372 187.323 55.3065 187.138 54.5575C186.954 53.8084 186.817 53.0337 186.68 52.2553C186.544 51.4768 186.429 50.6874 186.311 49.8943C186.193 49.1012 186.112 48.286 186.027 47.548V47.5076C185.978 46.9233 185.697 46.3823 185.247 46.0036C184.797 45.6248 184.214 45.4394 183.627 45.4881C183.039 45.5368 182.495 45.8156 182.114 46.2632C181.733 46.7108 181.547 47.2905 181.596 47.8748H181.625Z" fill="#B55B52"/>
<path d="M192.058 52.8506L192.966 52.5311C193.078 52.4919 193.196 52.4752 193.314 52.4819C193.432 52.4887 193.547 52.5187 193.654 52.5703C193.76 52.6219 193.855 52.6941 193.933 52.7826C194.01 52.871 194.07 52.974 194.107 53.0856L194.454 54.1173C194.521 54.3164 194.514 54.5327 194.435 54.7272C194.356 54.9217 194.21 55.0817 194.022 55.1785L192.885 55.7733C192.885 55.7733 191.039 57.1833 190.112 56.3204L189.606 54.8517L190.976 53.5262C191.284 53.2266 191.653 52.9962 192.058 52.8506V52.8506Z" fill="#B55B52"/>
<path d="M182.076 42.8223C184.798 43.3326 185.374 44.4379 187.379 48.5466C186.773 51.2491 181.607 53.6247 181.607 53.6247C181.607 53.6247 177.589 46.3178 182.076 42.8223Z" fill="#FF981F"/>
<path d="M177.404 135.525C175.698 133.263 175.558 132.639 174.483 131.45C173.893 130.768 173.224 130.157 172.489 129.632C171.773 129.055 172.201 128.222 172.858 127.869C173.372 127.598 173.937 127.355 174.557 126.996L177.371 129.279C177.094 130.576 177.674 133.278 178.848 135.077C179.708 136.366 178.087 136.428 177.404 135.525Z" fill="#FF981F"/>
<path d="M185.714 63.396C185.714 63.396 188.336 81.689 190.289 94.1695C190.687 96.5974 190.448 99.0865 189.595 101.396C186.253 110.248 177.59 129.496 177.59 129.496C177.191 129.885 174.795 127.62 174.562 126.996C174.562 126.996 177.557 102.67 182.213 97.2171C172.712 77.7271 172.86 63.396 172.86 63.396H185.714Z" fill="#161351"/>
<g opacity="0.2">
<path d="M172.868 63.9395L179.885 64.4278C179.885 64.4278 181.243 84.52 181.535 95.7851C173.747 79.2105 172.95 66.6419 172.868 63.9395Z" fill="black"/>
<path d="M181.575 98.0908C181.671 103.867 181.963 111.383 182.535 118.326C180.759 122.391 179.16 125.986 178.285 127.939C177.443 125.519 176.505 122.63 175.659 119.567C176.837 112.499 178.902 102.306 181.575 98.0908Z" fill="black"/>
</g>
<path d="M178.831 128.545C178.617 128.857 178.244 129.419 177.985 129.845C177.962 129.878 177.932 129.907 177.898 129.929C177.863 129.95 177.825 129.965 177.784 129.971C177.744 129.978 177.703 129.976 177.663 129.967C177.623 129.957 177.586 129.939 177.553 129.915C176.37 129.075 175.259 128.141 174.23 127.12C174.181 127.074 174.146 127.015 174.131 126.95C174.116 126.884 174.121 126.816 174.145 126.753L174.71 125.475C174.731 125.434 174.761 125.398 174.798 125.37C174.836 125.343 174.879 125.324 174.924 125.315C174.97 125.307 175.017 125.309 175.062 125.321C175.107 125.334 175.148 125.356 175.183 125.387L178.728 128.108C178.796 128.155 178.845 128.226 178.864 128.307C178.883 128.387 178.871 128.472 178.831 128.545Z" fill="#6E29FF"/>
<path opacity="0.3" d="M178.831 128.545C178.617 128.857 178.244 129.419 177.985 129.845C177.962 129.878 177.932 129.907 177.898 129.929C177.863 129.95 177.825 129.965 177.784 129.971C177.744 129.978 177.703 129.976 177.663 129.967C177.623 129.957 177.586 129.939 177.553 129.915C176.37 129.075 175.259 128.141 174.23 127.12C174.181 127.074 174.146 127.015 174.131 126.95C174.116 126.884 174.121 126.816 174.145 126.753L174.71 125.475C174.731 125.434 174.761 125.398 174.798 125.37C174.836 125.343 174.879 125.324 174.924 125.315C174.97 125.307 175.017 125.309 175.062 125.321C175.107 125.334 175.148 125.356 175.183 125.387L178.728 128.108C178.796 128.155 178.845 128.226 178.864 128.307C178.883 128.387 178.871 128.472 178.831 128.545Z" fill="white"/>
<path d="M187.194 136.428C184.513 136.957 183.479 137.122 181.951 137.372C180.643 137.581 180.4 137.798 179.366 137.981C178.494 138.132 178.184 137.339 178.058 136.377C177.992 135.896 177.874 134.71 177.737 133.939L181.891 133.718C182.881 134.614 185.521 134.908 187.113 134.82C188.623 134.702 188.261 136.215 187.194 136.428Z" fill="#FF981F"/>
<path d="M181.859 63.396C181.859 63.396 180.481 86.8956 180.226 97.5439C179.964 108.725 180.178 126.184 182.217 133.623C181.659 133.99 179.074 133.99 177.726 133.601C177.726 133.601 169.333 109.918 172.494 98.0396C166.131 71.8742 169.909 65.6946 170.969 63.407L181.859 63.396Z" fill="#161351"/>
<path d="M181.862 132.092C182.033 132.594 182.236 133.085 182.472 133.561C182.495 133.595 182.509 133.634 182.514 133.675C182.519 133.716 182.513 133.758 182.499 133.796C182.484 133.835 182.46 133.869 182.429 133.897C182.398 133.924 182.36 133.943 182.32 133.953C180.884 134.321 178.587 134.185 177.852 134.126C177.781 134.119 177.713 134.094 177.654 134.054C177.595 134.013 177.548 133.958 177.516 133.895L176.855 132.521C176.831 132.484 176.817 132.44 176.815 132.396C176.813 132.351 176.824 132.307 176.845 132.267C176.866 132.228 176.897 132.194 176.935 132.171C176.973 132.147 177.017 132.134 177.062 132.132L181.456 131.816C181.544 131.815 181.63 131.84 181.703 131.89C181.776 131.939 181.832 132.01 181.862 132.092Z" fill="#6E29FF"/>
<path opacity="0.3" d="M181.862 132.092C182.033 132.594 182.236 133.085 182.472 133.561C182.495 133.595 182.509 133.634 182.514 133.675C182.519 133.716 182.513 133.758 182.499 133.796C182.484 133.835 182.46 133.869 182.429 133.897C182.398 133.924 182.36 133.943 182.32 133.953C180.884 134.321 178.587 134.185 177.852 134.126C177.781 134.119 177.713 134.094 177.654 134.054C177.595 134.013 177.548 133.958 177.516 133.895L176.855 132.521C176.831 132.484 176.817 132.44 176.815 132.396C176.813 132.351 176.824 132.307 176.845 132.267C176.866 132.228 176.897 132.194 176.935 132.171C176.973 132.147 177.017 132.134 177.062 132.132L181.456 131.816C181.544 131.815 181.63 131.84 181.703 131.89C181.776 131.939 181.832 132.01 181.862 132.092Z" fill="white"/>
<path d="M171.071 42.6277C171.658 42.5689 172.275 42.5175 172.918 42.4882C175.146 42.3301 177.384 42.3301 179.612 42.4882C180.351 42.5543 181.09 42.646 181.828 42.7452C183.101 42.9297 184.27 43.5492 185.134 44.4973C185.998 45.4454 186.503 46.6629 186.562 47.9408C186.607 49.3838 186.293 51.5612 185.99 54.9944C185.591 59.4703 186.688 61.7468 185.728 63.3955C183.848 65.1726 175.218 64.2841 170.983 63.3955C169.709 61.7652 172.201 57.5206 168.147 47.0706C167.319 44.9813 168.885 42.848 171.071 42.6277Z" fill="#FF981F"/>
<path d="M179.834 46.061C179.912 46.3364 180.071 46.5274 180.203 46.4943C180.336 46.4613 180.362 46.2116 180.285 45.9399C180.207 45.6681 180.045 45.4735 179.915 45.5066C179.786 45.5396 179.753 45.7893 179.834 46.061Z" fill="white"/>
<path d="M180.374 48.3268C180.41 48.6096 180.54 48.8262 180.665 48.8078C180.791 48.7895 180.861 48.5545 180.828 48.2718C180.794 47.989 180.662 47.7761 180.54 47.7908C180.418 47.8054 180.34 48.0441 180.374 48.3268Z" fill="white"/>
<path d="M174.329 35.2222C174.395 37.4253 174.68 41.0604 173.28 42.4887C173.28 42.4887 175.322 42.1839 179.654 44.8497C180.909 43.0578 179.979 42.4887 179.979 42.4887C179.646 42.4405 179.33 42.3157 179.055 42.1242C178.779 41.9327 178.553 41.6798 178.394 41.3858C178.235 41.0918 178.147 40.7648 178.137 40.4309C178.128 40.0971 178.197 39.7656 178.339 39.4631L174.329 35.2222Z" fill="#B55B52"/>
<path d="M178.727 44.3134C177.297 44.5153 176.851 46.656 176.851 46.656C176.851 46.656 173.424 44.2473 172.338 42.5473C172.769 42.3065 173.187 42.043 173.59 41.7578C173.59 41.7578 177.91 43.4946 178.727 44.3134Z" fill="white"/>
<path d="M180.101 44.082C180.101 44.082 181.235 44.328 181.803 45.8958C182.128 42.7711 180.64 42.4811 180.64 42.4811C180.246 42.2654 179.786 42.2001 179.348 42.2975C179.663 42.461 179.91 42.7289 180.048 43.0547C180.185 43.3805 180.204 43.7438 180.101 44.082V44.082Z" fill="white"/>
<path opacity="0.2" d="M176.837 38.1303L177.402 38.4717L178.34 39.4631C178.097 39.9676 178.065 40.5473 178.251 41.0751C177.18 40.6638 176.102 39.8303 175.818 38.9307C175.775 38.7971 175.774 38.6537 175.816 38.5196C175.857 38.3856 175.938 38.2672 176.049 38.1803C176.16 38.0934 176.294 38.0421 176.435 38.0331C176.576 38.0242 176.716 38.0581 176.837 38.1303V38.1303Z" fill="black"/>
<path d="M175.034 30.0263C174.004 33.3934 173.498 34.7997 174.484 37.179C175.961 40.7664 180.222 41.4824 182.213 38.5376C184 35.8829 185.385 30.8268 182.737 28.1611C182.189 27.5693 181.491 27.1344 180.716 26.9014C179.942 26.6685 179.119 26.6461 178.333 26.8364C177.546 27.0268 176.826 27.4231 176.246 27.984C175.666 28.545 175.247 29.2502 175.034 30.0263Z" fill="#B55B52"/>
<path opacity="0.4" d="M178.636 28.0471C179.503 30.3457 177.447 33.206 174.503 32.9857C173.133 30.3824 173.964 28.3923 174.695 27.5808C175.427 26.7693 177.642 26.6298 178.636 28.0471Z" fill="#263238"/>
<path d="M174.714 28.0251C175.109 30.812 184.208 29.0862 184.703 31.8805C184.725 28.2307 180.623 23.3545 174.714 28.0251Z" fill="#263238"/>
<path d="M172.881 32.9198C172.861 33.2571 172.912 33.5948 173.032 33.9111C173.151 34.2274 173.336 34.5151 173.575 34.7557C174.188 35.3212 174.934 34.6713 175.133 33.7313C175.31 32.8868 175.207 31.5723 174.395 31.3813C173.582 31.1904 172.903 32.0129 172.881 32.9198Z" fill="#B55B52"/>
<path d="M168.834 50.3793C168.834 50.574 168.834 50.6657 168.834 50.7979V51.1651C168.834 51.4001 168.868 51.6314 168.894 51.8628C168.943 52.3216 169.017 52.7775 169.115 53.2287C169.308 54.1488 169.601 55.0452 169.99 55.9018C170.391 56.7986 170.915 57.6353 171.549 58.3876C172.198 59.1649 172.972 59.831 173.838 60.3593L173.971 60.4401C174.087 60.508 174.211 60.5598 174.34 60.5943C174.968 60.7743 175.633 60.7743 176.261 60.5943C176.676 60.4777 177.078 60.3151 177.457 60.1097C178.07 59.7678 178.646 59.3656 179.178 58.909C179.667 58.4904 180.131 58.0429 180.566 57.5688C180.997 57.1027 181.4 56.6123 181.774 56.1C181.938 55.8948 182.022 55.6384 182.013 55.3766C182.004 55.1149 181.901 54.865 181.723 54.6718C181.545 54.4786 181.304 54.3547 181.043 54.3224C180.781 54.2901 180.517 54.3514 180.297 54.4954L180.256 54.5212L178.779 55.384C178.288 55.6631 177.797 55.9385 177.302 56.1771C176.861 56.4044 176.403 56.5959 175.932 56.7499C175.774 56.8061 175.608 56.837 175.441 56.8417C175.334 56.8417 175.341 56.7756 175.596 56.8417L176.08 57.0767C175.625 56.7168 175.225 56.2924 174.894 55.8173C174.721 55.5748 174.567 55.3194 174.433 55.0536C174.285 54.7821 174.155 54.5012 174.045 54.2127C173.812 53.6101 173.633 52.9884 173.509 52.3548C173.443 52.0317 173.395 51.7049 173.351 51.3781C173.332 51.2128 173.314 51.0513 173.299 50.8897L173.269 50.4822V50.2876C173.253 49.7033 173.003 49.1495 172.576 48.748C172.149 48.3466 171.579 48.1303 170.991 48.1469C170.403 48.1634 169.846 48.4114 169.443 48.8363C169.039 49.2612 168.822 49.8281 168.838 50.4124L168.834 50.3793Z" fill="#B55B52"/>
<path d="M182.667 57.855H190.666C191.022 57.8605 191.369 57.749 191.655 57.5379C191.941 57.3268 192.149 57.0278 192.246 56.6874L193.225 51.6423C193.35 51.0034 192.855 50.4857 192.095 50.4857H184.1C183.745 50.4783 183.398 50.5877 183.112 50.7969C182.826 51.0061 182.618 51.3033 182.519 51.6423L181.537 56.6874C181.415 57.3373 181.921 57.855 182.667 57.855Z" fill="#161351"/>
<path d="M182.914 57.5282H190.669C190.941 57.5345 191.208 57.4527 191.43 57.2952C191.652 57.1376 191.816 56.9127 191.898 56.6544L192.855 51.7451C192.873 51.6613 192.871 51.5745 192.851 51.4913C192.83 51.408 192.791 51.3304 192.737 51.2641C192.651 51.1724 192.546 51.1006 192.429 51.0536C192.312 51.0067 192.187 50.9858 192.061 50.9924H184.306C184.034 50.9871 183.768 51.0688 183.547 51.2255C183.325 51.3822 183.16 51.6056 183.076 51.8626L182.124 56.7718C182.104 56.8554 182.105 56.9422 182.125 57.0256C182.144 57.1091 182.183 57.1868 182.238 57.2529C182.324 57.3448 182.429 57.4171 182.546 57.4647C182.662 57.5122 182.788 57.5339 182.914 57.5282V57.5282ZM192.079 51.0842C192.192 51.0779 192.304 51.096 192.409 51.1372C192.513 51.1785 192.607 51.2418 192.685 51.3229C192.731 51.3794 192.763 51.4453 192.78 51.5158C192.796 51.5864 192.797 51.6597 192.781 51.7305L191.828 56.636C191.748 56.8712 191.593 57.0745 191.388 57.2159C191.183 57.3574 190.937 57.4295 190.687 57.4218H182.932C182.82 57.4283 182.708 57.4099 182.604 57.368C182.5 57.3261 182.407 57.2617 182.331 57.1794C182.284 57.1244 182.25 57.0592 182.233 56.9891C182.216 56.919 182.215 56.8459 182.231 56.7755L183.158 51.881C183.236 51.644 183.388 51.4385 183.593 51.2949C183.798 51.1513 184.044 51.0774 184.295 51.0842H192.079Z" fill="white"/>
<path d="M182.497 53.0448L183.435 52.8098C183.55 52.7815 183.669 52.7761 183.786 52.7941C183.903 52.8121 184.015 52.8531 184.116 52.9146C184.216 52.9761 184.304 53.057 184.373 53.1525C184.442 53.248 184.491 53.3562 184.517 53.4707L184.761 54.5319C184.808 54.7361 184.78 54.9502 184.683 55.1359C184.585 55.3217 184.424 55.4668 184.229 55.5453L183.04 56.03C183.04 56.03 181.05 57.2527 180.223 56.309L179.853 54.7962L181.33 53.6066C181.673 53.3357 182.071 53.1438 182.497 53.0448Z" fill="#B55B52"/>
<path d="M170.934 42.6465C167.696 42.8374 166.699 46.1971 167.777 52.307C168.302 54.6019 174.771 51.4662 174.771 51.4662C174.771 51.4662 174.996 44.9377 170.934 42.6465Z" fill="#FF981F"/>
<path d="M79.4362 107.894C80.6142 100.551 77.3867 90.9196 73.2951 91.6283C69.9052 92.2158 78.7346 105.651 79.4362 107.894Z" fill="#00625B"/>
<path d="M80.7253 111.64C76.8774 106.202 79.2482 95.0247 83.3102 94.7714C87.3722 94.518 81.0576 108.904 80.7253 111.64Z" fill="#008B76"/>
<path d="M80.5335 114.823C80.9729 103.073 73.7758 97.1653 70.5631 98.5679C67.2581 100.015 78.0187 108.32 80.5335 114.823Z" fill="#00625B"/>
<path d="M81.5016 122.141C77.6537 113.868 80.9514 100.94 87.0702 102.339C92.1441 103.499 82.41 118.66 81.5016 122.141Z" fill="#00625B"/>
<path d="M81.2387 124.616C81.6633 116.685 84.0821 106.572 89.0525 107.509C93.794 108.39 82.7158 117.68 81.2387 124.616Z" fill="#008B76"/>
<path d="M82.457 128.497C81.2384 116.795 71.1646 110.263 71.268 114.702C71.3751 119.442 79.0708 122.53 82.457 128.497Z" fill="#00625B"/>
<path d="M81.4785 126.019C80.0642 121.833 83.3877 116.149 86.8773 117.364C89.7687 118.374 82.387 124.491 81.4785 126.019Z" fill="#00625B"/>
<path d="M81.3855 124.454C82.9069 115.48 75.13 100.037 68.1138 103.356C61.297 106.584 78.062 114.144 81.3855 124.454Z" fill="#008B76"/>
<path d="M77.9145 138H84.6353C85.222 138.001 85.7935 137.815 86.2656 137.468C86.7377 137.122 87.0853 136.634 87.2571 136.076C88.1356 133.406 88.5381 130.604 88.4462 127.796C88.3991 126.911 88.2756 126.031 88.0769 125.167C88.0385 124.994 87.9424 124.84 87.8042 124.728C87.6661 124.617 87.494 124.555 87.3162 124.554H75.2151C75.0375 124.555 74.8657 124.616 74.728 124.728C74.5903 124.839 74.4951 124.994 74.4581 125.167C74.2593 126.031 74.1358 126.911 74.0888 127.796C73.9974 130.603 74.3986 133.405 75.2742 136.076C75.4479 136.636 75.7986 137.126 76.2741 137.472C76.7497 137.819 77.3249 138.004 77.9145 138Z" fill="#6E29FF"/>
<path opacity="0.5" d="M74.1121 127.796H88.4473C88.4003 126.911 88.2767 126.031 88.078 125.167C88.0396 124.994 87.9435 124.84 87.8053 124.728C87.6672 124.617 87.4951 124.555 87.3173 124.554H75.2162C75.0386 124.555 74.8668 124.616 74.7291 124.728C74.5914 124.839 74.4962 124.994 74.4592 125.167C74.2679 126.032 74.1518 126.911 74.1121 127.796V127.796Z" fill="white"/>
<path d="M78.5664 65.2246L77.543 62.3613H78.1699L78.8945 64.4805L79.5957 62.3613H80.209L79.1836 65.2246H78.5664ZM80.6875 63.7832L80.1895 63.6934C80.2454 63.4928 80.3418 63.3444 80.4785 63.248C80.6152 63.1517 80.8184 63.1035 81.0879 63.1035C81.3327 63.1035 81.515 63.1328 81.6348 63.1914C81.7546 63.2487 81.8385 63.3223 81.8867 63.4121C81.9362 63.5007 81.9609 63.6641 81.9609 63.9023L81.9551 64.543C81.9551 64.7253 81.9635 64.86 81.9805 64.9473C81.9987 65.0332 82.0319 65.1257 82.0801 65.2246H81.5371C81.5228 65.1882 81.5052 65.1341 81.4844 65.0625C81.4753 65.0299 81.4688 65.0085 81.4648 64.998C81.3711 65.0892 81.2708 65.1576 81.1641 65.2031C81.0573 65.2487 80.9434 65.2715 80.8223 65.2715C80.6087 65.2715 80.4401 65.2135 80.3164 65.0977C80.194 64.9818 80.1328 64.8353 80.1328 64.6582C80.1328 64.541 80.1608 64.4368 80.2168 64.3457C80.2728 64.2533 80.3509 64.1829 80.4512 64.1348C80.5527 64.0853 80.6986 64.0423 80.8887 64.0059C81.1452 63.9577 81.3229 63.9128 81.4219 63.8711V63.8164C81.4219 63.7109 81.3958 63.6361 81.3438 63.5918C81.2917 63.5462 81.1934 63.5234 81.0488 63.5234C80.9512 63.5234 80.875 63.543 80.8203 63.582C80.7656 63.6198 80.7214 63.6868 80.6875 63.7832ZM81.4219 64.2285C81.3516 64.252 81.2402 64.2799 81.0879 64.3125C80.9355 64.3451 80.8359 64.377 80.7891 64.4082C80.7174 64.459 80.6816 64.5234 80.6816 64.6016C80.6816 64.6784 80.7103 64.7448 80.7676 64.8008C80.8249 64.8568 80.8978 64.8848 80.9863 64.8848C81.0853 64.8848 81.1797 64.8522 81.2695 64.7871C81.3359 64.7376 81.3796 64.6771 81.4004 64.6055C81.4147 64.5586 81.4219 64.4694 81.4219 64.3379V64.2285ZM82.4531 65.3613L83.0801 65.4375C83.0905 65.5104 83.1146 65.5605 83.1523 65.5879C83.2044 65.627 83.2865 65.6465 83.3984 65.6465C83.5417 65.6465 83.6491 65.625 83.7207 65.582C83.7689 65.5534 83.8053 65.5072 83.8301 65.4434C83.847 65.3978 83.8555 65.3138 83.8555 65.1914V64.8887C83.6914 65.1126 83.4844 65.2246 83.2344 65.2246C82.9557 65.2246 82.735 65.1068 82.5723 64.8711C82.4447 64.6849 82.3809 64.4531 82.3809 64.1758C82.3809 63.8281 82.4642 63.5625 82.6309 63.3789C82.7988 63.1953 83.0072 63.1035 83.2559 63.1035C83.5124 63.1035 83.724 63.2161 83.8906 63.4414V63.1504H84.4043V65.0117C84.4043 65.2565 84.3841 65.4395 84.3438 65.5605C84.3034 65.6816 84.2467 65.7767 84.1738 65.8457C84.1009 65.9147 84.0033 65.9688 83.8809 66.0078C83.7598 66.0469 83.6061 66.0664 83.4199 66.0664C83.0684 66.0664 82.819 66.0059 82.6719 65.8848C82.5247 65.765 82.4512 65.6126 82.4512 65.4277C82.4512 65.4095 82.4518 65.3874 82.4531 65.3613ZM82.9434 64.1445C82.9434 64.3646 82.9857 64.526 83.0703 64.6289C83.1562 64.7305 83.2617 64.7812 83.3867 64.7812C83.5208 64.7812 83.6341 64.7292 83.7266 64.625C83.819 64.5195 83.8652 64.3639 83.8652 64.1582C83.8652 63.9434 83.821 63.7839 83.7324 63.6797C83.6439 63.5755 83.5319 63.5234 83.3965 63.5234C83.265 63.5234 83.1562 63.5749 83.0703 63.6777C82.9857 63.7793 82.9434 63.9349 82.9434 64.1445ZM85.3594 63.7832L84.8613 63.6934C84.9173 63.4928 85.0137 63.3444 85.1504 63.248C85.2871 63.1517 85.4902 63.1035 85.7598 63.1035C86.0046 63.1035 86.1868 63.1328 86.3066 63.1914C86.4264 63.2487 86.5104 63.3223 86.5586 63.4121C86.6081 63.5007 86.6328 63.6641 86.6328 63.9023L86.627 64.543C86.627 64.7253 86.6354 64.86 86.6523 64.9473C86.6706 65.0332 86.7038 65.1257 86.752 65.2246H86.209C86.1947 65.1882 86.1771 65.1341 86.1562 65.0625C86.1471 65.0299 86.1406 65.0085 86.1367 64.998C86.043 65.0892 85.9427 65.1576 85.8359 65.2031C85.7292 65.2487 85.6152 65.2715 85.4941 65.2715C85.2806 65.2715 85.112 65.2135 84.9883 65.0977C84.8659 64.9818 84.8047 64.8353 84.8047 64.6582C84.8047 64.541 84.8327 64.4368 84.8887 64.3457C84.9447 64.2533 85.0228 64.1829 85.123 64.1348C85.2246 64.0853 85.3704 64.0423 85.5605 64.0059C85.8171 63.9577 85.9948 63.9128 86.0938 63.8711V63.8164C86.0938 63.7109 86.0677 63.6361 86.0156 63.5918C85.9635 63.5462 85.8652 63.5234 85.7207 63.5234C85.623 63.5234 85.5469 63.543 85.4922 63.582C85.4375 63.6198 85.3932 63.6868 85.3594 63.7832ZM86.0938 64.2285C86.0234 64.252 85.9121 64.2799 85.7598 64.3125C85.6074 64.3451 85.5078 64.377 85.4609 64.4082C85.3893 64.459 85.3535 64.5234 85.3535 64.6016C85.3535 64.6784 85.3822 64.7448 85.4395 64.8008C85.4967 64.8568 85.5697 64.8848 85.6582 64.8848C85.7572 64.8848 85.8516 64.8522 85.9414 64.7871C86.0078 64.7376 86.0514 64.6771 86.0723 64.6055C86.0866 64.5586 86.0938 64.4694 86.0938 64.3379V64.2285ZM86.9824 64.6328L87.5332 64.5488C87.5566 64.6556 87.6042 64.737 87.6758 64.793C87.7474 64.8477 87.8477 64.875 87.9766 64.875C88.1185 64.875 88.2253 64.849 88.2969 64.7969C88.3451 64.7604 88.3691 64.7116 88.3691 64.6504C88.3691 64.6087 88.3561 64.5742 88.3301 64.5469C88.3027 64.5208 88.2415 64.4967 88.1465 64.4746C87.7038 64.377 87.4232 64.2878 87.3047 64.207C87.1406 64.0951 87.0586 63.9395 87.0586 63.7402C87.0586 63.5605 87.1296 63.4095 87.2715 63.2871C87.4134 63.1647 87.6335 63.1035 87.9316 63.1035C88.2155 63.1035 88.4264 63.1497 88.5645 63.2422C88.7025 63.3346 88.7975 63.4714 88.8496 63.6523L88.332 63.748C88.3099 63.6673 88.2676 63.6055 88.2051 63.5625C88.1439 63.5195 88.056 63.498 87.9414 63.498C87.7969 63.498 87.6934 63.5182 87.6309 63.5586C87.5892 63.5872 87.5684 63.6243 87.5684 63.6699C87.5684 63.709 87.5866 63.7422 87.623 63.7695C87.6725 63.806 87.8431 63.8574 88.1348 63.9238C88.4277 63.9902 88.6322 64.0716 88.748 64.168C88.8626 64.2656 88.9199 64.4017 88.9199 64.5762C88.9199 64.7663 88.8405 64.9297 88.6816 65.0664C88.5228 65.2031 88.2878 65.2715 87.9766 65.2715C87.694 65.2715 87.4701 65.2142 87.3047 65.0996C87.1406 64.985 87.0332 64.8294 86.9824 64.6328Z" fill="#3C4043"/>
<path d="M77.0703 37.0371L77.6309 37.2148C77.5449 37.5273 77.4017 37.7598 77.2012 37.9121C77.002 38.0632 76.7487 38.1387 76.4414 38.1387C76.0612 38.1387 75.7487 38.0091 75.5039 37.75C75.2591 37.4896 75.1367 37.1341 75.1367 36.6836C75.1367 36.207 75.2598 35.8372 75.5059 35.5742C75.752 35.3099 76.0755 35.1777 76.4766 35.1777C76.8268 35.1777 77.1113 35.2812 77.3301 35.4883C77.4603 35.6107 77.5579 35.7865 77.623 36.0156L77.0508 36.1523C77.0169 36.0039 76.946 35.8867 76.8379 35.8008C76.7311 35.7148 76.6009 35.6719 76.4473 35.6719C76.235 35.6719 76.0625 35.748 75.9297 35.9004C75.7982 36.0527 75.7324 36.2995 75.7324 36.6406C75.7324 37.0026 75.7975 37.2604 75.9277 37.4141C76.0579 37.5677 76.2272 37.6445 76.4355 37.6445C76.5892 37.6445 76.7214 37.5957 76.832 37.498C76.9427 37.4004 77.0221 37.2467 77.0703 37.0371ZM78.5352 36.6484L78.0371 36.5586C78.0931 36.3581 78.1895 36.2096 78.3262 36.1133C78.4629 36.0169 78.666 35.9688 78.9355 35.9688C79.1803 35.9688 79.3626 35.998 79.4824 36.0566C79.6022 36.1139 79.6862 36.1875 79.7344 36.2773C79.7839 36.3659 79.8086 36.5293 79.8086 36.7676L79.8027 37.4082C79.8027 37.5905 79.8112 37.7253 79.8281 37.8125C79.8464 37.8984 79.8796 37.9909 79.9277 38.0898H79.3848C79.3704 38.0534 79.3529 37.9993 79.332 37.9277C79.3229 37.8952 79.3164 37.8737 79.3125 37.8633C79.2188 37.9544 79.1185 38.0228 79.0117 38.0684C78.9049 38.1139 78.791 38.1367 78.6699 38.1367C78.4564 38.1367 78.2878 38.0788 78.1641 37.9629C78.0417 37.847 77.9805 37.7005 77.9805 37.5234C77.9805 37.4062 78.0085 37.3021 78.0645 37.2109C78.1204 37.1185 78.1986 37.0482 78.2988 37C78.4004 36.9505 78.5462 36.9076 78.7363 36.8711C78.9928 36.8229 79.1706 36.778 79.2695 36.7363V36.6816C79.2695 36.5762 79.2435 36.5013 79.1914 36.457C79.1393 36.4115 79.041 36.3887 78.8965 36.3887C78.7988 36.3887 78.7227 36.4082 78.668 36.4473C78.6133 36.485 78.569 36.5521 78.5352 36.6484ZM79.2695 37.0938C79.1992 37.1172 79.0879 37.1452 78.9355 37.1777C78.7832 37.2103 78.6836 37.2422 78.6367 37.2734C78.5651 37.3242 78.5293 37.3887 78.5293 37.4668C78.5293 37.5436 78.5579 37.61 78.6152 37.666C78.6725 37.722 78.7454 37.75 78.834 37.75C78.9329 37.75 79.0273 37.7174 79.1172 37.6523C79.1836 37.6029 79.2272 37.5423 79.248 37.4707C79.2624 37.4238 79.2695 37.3346 79.2695 37.2031V37.0938ZM82.2383 38.0898H81.6895V37.0312C81.6895 36.8073 81.6777 36.6628 81.6543 36.5977C81.6309 36.5312 81.5924 36.4798 81.5391 36.4434C81.487 36.4069 81.4238 36.3887 81.3496 36.3887C81.2546 36.3887 81.1693 36.4147 81.0938 36.4668C81.0182 36.5189 80.9661 36.5879 80.9375 36.6738C80.9102 36.7598 80.8965 36.9186 80.8965 37.1504V38.0898H80.3477V36.0156H80.8574V36.3203C81.0384 36.0859 81.2663 35.9688 81.541 35.9688C81.6621 35.9688 81.7728 35.9909 81.873 36.0352C81.9733 36.0781 82.0488 36.1335 82.0996 36.2012C82.1517 36.2689 82.1875 36.3457 82.207 36.4316C82.2279 36.5176 82.2383 36.6406 82.2383 36.8008V38.0898ZM84.6992 38.0898H84.1895V37.7852C84.1048 37.9036 84.0046 37.9922 83.8887 38.0508C83.7741 38.1081 83.6582 38.1367 83.541 38.1367C83.3027 38.1367 83.0983 38.041 82.9277 37.8496C82.7585 37.6569 82.6738 37.3887 82.6738 37.0449C82.6738 36.6934 82.7565 36.4264 82.9219 36.2441C83.0872 36.0605 83.2962 35.9688 83.5488 35.9688C83.7806 35.9688 83.9811 36.0651 84.1504 36.2578V35.2266H84.6992V38.0898ZM83.2344 37.0078C83.2344 37.2292 83.265 37.3893 83.3262 37.4883C83.4147 37.6315 83.5384 37.7031 83.6973 37.7031C83.8236 37.7031 83.931 37.6497 84.0195 37.543C84.1081 37.4349 84.1523 37.2741 84.1523 37.0605C84.1523 36.8223 84.1094 36.651 84.0234 36.5469C83.9375 36.4414 83.8275 36.3887 83.6934 36.3887C83.5632 36.3887 83.4538 36.4408 83.3652 36.5449C83.278 36.6478 83.2344 36.8021 83.2344 37.0078ZM85.2422 35.7344V35.2266H85.791V35.7344H85.2422ZM85.2422 38.0898V36.0156H85.791V38.0898H85.2422ZM88.2578 38.0898H87.748V37.7852C87.6634 37.9036 87.5632 37.9922 87.4473 38.0508C87.3327 38.1081 87.2168 38.1367 87.0996 38.1367C86.8613 38.1367 86.6569 38.041 86.4863 37.8496C86.3171 37.6569 86.2324 37.3887 86.2324 37.0449C86.2324 36.6934 86.3151 36.4264 86.4805 36.2441C86.6458 36.0605 86.8548 35.9688 87.1074 35.9688C87.3392 35.9688 87.5397 36.0651 87.709 36.2578V35.2266H88.2578V38.0898ZM86.793 37.0078C86.793 37.2292 86.8236 37.3893 86.8848 37.4883C86.9733 37.6315 87.097 37.7031 87.2559 37.7031C87.3822 37.7031 87.4896 37.6497 87.5781 37.543C87.6667 37.4349 87.7109 37.2741 87.7109 37.0605C87.7109 36.8223 87.668 36.651 87.582 36.5469C87.4961 36.4414 87.3861 36.3887 87.252 36.3887C87.1217 36.3887 87.0124 36.4408 86.9238 36.5449C86.8366 36.6478 86.793 36.8021 86.793 37.0078ZM89.2109 36.6484L88.7129 36.5586C88.7689 36.3581 88.8652 36.2096 89.002 36.1133C89.1387 36.0169 89.3418 35.9688 89.6113 35.9688C89.8561 35.9688 90.0384 35.998 90.1582 36.0566C90.278 36.1139 90.362 36.1875 90.4102 36.2773C90.4596 36.3659 90.4844 36.5293 90.4844 36.7676L90.4785 37.4082C90.4785 37.5905 90.487 37.7253 90.5039 37.8125C90.5221 37.8984 90.5553 37.9909 90.6035 38.0898H90.0605C90.0462 38.0534 90.0286 37.9993 90.0078 37.9277C89.9987 37.8952 89.9922 37.8737 89.9883 37.8633C89.8945 37.9544 89.7943 38.0228 89.6875 38.0684C89.5807 38.1139 89.4668 38.1367 89.3457 38.1367C89.1322 38.1367 88.9635 38.0788 88.8398 37.9629C88.7174 37.847 88.6562 37.7005 88.6562 37.5234C88.6562 37.4062 88.6842 37.3021 88.7402 37.2109C88.7962 37.1185 88.8743 37.0482 88.9746 37C89.0762 36.9505 89.222 36.9076 89.4121 36.8711C89.6686 36.8229 89.8464 36.778 89.9453 36.7363V36.6816C89.9453 36.5762 89.9193 36.5013 89.8672 36.457C89.8151 36.4115 89.7168 36.3887 89.5723 36.3887C89.4746 36.3887 89.3984 36.4082 89.3438 36.4473C89.2891 36.485 89.2448 36.5521 89.2109 36.6484ZM89.9453 37.0938C89.875 37.1172 89.7637 37.1452 89.6113 37.1777C89.459 37.2103 89.3594 37.2422 89.3125 37.2734C89.2409 37.3242 89.2051 37.3887 89.2051 37.4668C89.2051 37.5436 89.2337 37.61 89.291 37.666C89.3483 37.722 89.4212 37.75 89.5098 37.75C89.6087 37.75 89.7031 37.7174 89.793 37.6523C89.8594 37.6029 89.903 37.5423 89.9238 37.4707C89.9382 37.4238 89.9453 37.3346 89.9453 37.2031V37.0938ZM91.9785 36.0156V36.4531H91.6035V37.2891C91.6035 37.4583 91.6068 37.5573 91.6133 37.5859C91.6211 37.6133 91.6374 37.6361 91.6621 37.6543C91.6882 37.6725 91.7194 37.6816 91.7559 37.6816C91.8066 37.6816 91.8802 37.6641 91.9766 37.6289L92.0234 38.0547C91.8958 38.1094 91.7513 38.1367 91.5898 38.1367C91.4909 38.1367 91.4017 38.1204 91.3223 38.0879C91.2428 38.054 91.1842 38.0111 91.1465 37.959C91.11 37.9056 91.0846 37.834 91.0703 37.7441C91.0586 37.6803 91.0527 37.5514 91.0527 37.3574V36.4531H90.8008V36.0156H91.0527V35.6035L91.6035 35.2832V36.0156H91.9785ZM92.2324 37.0234C92.2324 36.8411 92.2773 36.6647 92.3672 36.4941C92.457 36.3236 92.584 36.1934 92.748 36.1035C92.9134 36.0137 93.0977 35.9688 93.3008 35.9688C93.6146 35.9688 93.8717 36.071 94.0723 36.2754C94.2728 36.4785 94.373 36.7357 94.373 37.0469C94.373 37.3607 94.2715 37.6211 94.0684 37.8281C93.8665 38.0339 93.612 38.1367 93.3047 38.1367C93.1146 38.1367 92.9329 38.0938 92.7598 38.0078C92.5879 37.9219 92.457 37.7962 92.3672 37.6309C92.2773 37.4642 92.2324 37.2617 92.2324 37.0234ZM92.7949 37.0527C92.7949 37.2585 92.8438 37.416 92.9414 37.5254C93.0391 37.6348 93.1595 37.6895 93.3027 37.6895C93.446 37.6895 93.5658 37.6348 93.6621 37.5254C93.7598 37.416 93.8086 37.2572 93.8086 37.0488C93.8086 36.8457 93.7598 36.6895 93.6621 36.5801C93.5658 36.4707 93.446 36.416 93.3027 36.416C93.1595 36.416 93.0391 36.4707 92.9414 36.5801C92.8438 36.6895 92.7949 36.847 92.7949 37.0527ZM94.6113 37.498L95.1621 37.4141C95.1855 37.5208 95.2331 37.6022 95.3047 37.6582C95.3763 37.7129 95.4766 37.7402 95.6055 37.7402C95.7474 37.7402 95.8542 37.7142 95.9258 37.6621C95.974 37.6257 95.998 37.5768 95.998 37.5156C95.998 37.474 95.985 37.4395 95.959 37.4121C95.9316 37.3861 95.8704 37.362 95.7754 37.3398C95.3327 37.2422 95.0521 37.153 94.9336 37.0723C94.7695 36.9603 94.6875 36.8047 94.6875 36.6055C94.6875 36.4258 94.7585 36.2747 94.9004 36.1523C95.0423 36.0299 95.2624 35.9688 95.5605 35.9688C95.8444 35.9688 96.0553 36.015 96.1934 36.1074C96.3314 36.1999 96.4264 36.3366 96.4785 36.5176L95.9609 36.6133C95.9388 36.5326 95.8965 36.4707 95.834 36.4277C95.7728 36.3848 95.6849 36.3633 95.5703 36.3633C95.4258 36.3633 95.3223 36.3835 95.2598 36.4238C95.2181 36.4525 95.1973 36.4896 95.1973 36.5352C95.1973 36.5742 95.2155 36.6074 95.252 36.6348C95.3014 36.6712 95.472 36.7227 95.7637 36.7891C96.0566 36.8555 96.2611 36.9368 96.377 37.0332C96.4915 37.1309 96.5488 37.2669 96.5488 37.4414C96.5488 37.6315 96.4694 37.7949 96.3105 37.9316C96.1517 38.0684 95.9167 38.1367 95.6055 38.1367C95.3229 38.1367 95.099 38.0794 94.9336 37.9648C94.7695 37.8503 94.6621 37.6947 94.6113 37.498Z" fill="#3C4043"/>
</svg>
