<svg width="24" height="48" viewBox="0 0 24 48" fill="none" xmlns="http://www.w3.org/2000/svg">
<path d="M16 26C16 24.9 16.9 24 18 24C19.1 24 20 24.9 20 26C20 27.1 19.1 28 18 28C16.9 28 16 27.1 16 26ZM20.78 29.58C19.93 29.21 18.99 29 18 29C17.33 29 16.69 29.1 16.08 29.28C16.66 29.83 17 30.6 17 31.43V32H22V31.43C22 30.62 21.52 29.9 20.78 29.58ZM6 28C7.1 28 8 27.1 8 26C8 24.9 7.1 24 6 24C4.9 24 4 24.9 4 26C4 27.1 4.9 28 6 28ZM7.92 29.28C7.31 29.1 6.67 29 6 29C5.01 29 4.07 29.21 3.22 29.58C2.48 29.9 2 30.62 2 31.43V32H7V31.43C7 30.6 7.34 29.83 7.92 29.28ZM10 26C10 24.9 10.9 24 12 24C13.1 24 14 24.9 14 26C14 27.1 13.1 28 12 28C10.9 28 10 27.1 10 26ZM16 32H8V31.43C8 30.62 8.48 29.9 9.22 29.58C10.07 29.21 11.01 29 12 29C12.99 29 13.93 29.21 14.78 29.58C15.52 29.9 16 30.62 16 31.43V32ZM15 38C15 36.9 15.9 36 17 36C18.1 36 19 36.9 19 38C19 39.1 18.1 40 17 40C15.9 40 15 39.1 15 38ZM21 44H13V43.43C13 42.62 13.48 41.9 14.22 41.58C15.07 41.21 16.01 41 17 41C17.99 41 18.93 41.21 19.78 41.58C20.52 41.9 21 42.62 21 43.43V44ZM5 38C5 36.9 5.9 36 7 36C8.1 36 9 36.9 9 38C9 39.1 8.1 40 7 40C5.9 40 5 39.1 5 38ZM11 44H3V43.43C3 42.62 3.48 41.9 4.22 41.58C5.07 41.21 6.01 41 7 41C7.99 41 8.93 41.21 9.78 41.58C10.52 41.9 11 42.62 11 43.43V44ZM12.75 35V33H11.25V35H9L12 38L15 35H12.75Z" fill="#3C4043"/>
</svg>
