<svg width="41" height="40" viewBox="0 0 41 40" fill="none" xmlns="http://www.w3.org/2000/svg">
<path d="M27.1663 6.66659C27.1663 4.83325 28.6663 3.33325 30.4997 3.33325C32.333 3.33325 33.833 4.83325 33.833 6.66659C33.833 8.49992 32.333 9.99992 30.4997 9.99992C28.6663 9.99992 27.1663 8.49992 27.1663 6.66659ZM35.133 12.6333C33.7163 12.0166 32.1497 11.6666 30.4997 11.6666C29.383 11.6666 28.3163 11.8333 27.2997 12.1333C28.2663 13.0499 28.833 14.3333 28.833 15.7166V16.6666H37.1663V15.7166C37.1663 14.3666 36.3663 13.1666 35.133 12.6333ZM10.4997 9.99992C12.333 9.99992 13.833 8.49992 13.833 6.66659C13.833 4.83325 12.333 3.33325 10.4997 3.33325C8.66634 3.33325 7.16634 4.83325 7.16634 6.66659C7.16634 8.49992 8.66634 9.99992 10.4997 9.99992ZM13.6997 12.1333C12.683 11.8333 11.6163 11.6666 10.4997 11.6666C8.84967 11.6666 7.28301 12.0166 5.86634 12.6333C4.63301 13.1666 3.83301 14.3666 3.83301 15.7166V16.6666H12.1663V15.7166C12.1663 14.3333 12.733 13.0499 13.6997 12.1333ZM17.1663 6.66659C17.1663 4.83325 18.6663 3.33325 20.4997 3.33325C22.333 3.33325 23.833 4.83325 23.833 6.66659C23.833 8.49992 22.333 9.99992 20.4997 9.99992C18.6663 9.99992 17.1663 8.49992 17.1663 6.66659ZM27.1663 16.6666H13.833V15.7166C13.833 14.3666 14.633 13.1666 15.8663 12.6333C17.283 12.0166 18.8497 11.6666 20.4997 11.6666C22.1497 11.6666 23.7163 12.0166 25.133 12.6333C26.3663 13.1666 27.1663 14.3666 27.1663 15.7166V16.6666ZM25.4997 26.6666C25.4997 24.8333 26.9997 23.3333 28.833 23.3333C30.6663 23.3333 32.1663 24.8333 32.1663 26.6666C32.1663 28.4999 30.6663 29.9999 28.833 29.9999C26.9997 29.9999 25.4997 28.4999 25.4997 26.6666ZM35.4997 36.6666H22.1663V35.7166C22.1663 34.3666 22.9663 33.1666 24.1997 32.6333C25.6163 32.0166 27.183 31.6666 28.833 31.6666C30.483 31.6666 32.0497 32.0166 33.4663 32.6333C34.6997 33.1666 35.4997 34.3666 35.4997 35.7166V36.6666ZM8.83301 26.6666C8.83301 24.8333 10.333 23.3333 12.1663 23.3333C13.9997 23.3333 15.4997 24.8333 15.4997 26.6666C15.4997 28.4999 13.9997 29.9999 12.1663 29.9999C10.333 29.9999 8.83301 28.4999 8.83301 26.6666ZM18.833 36.6666H5.49967V35.7166C5.49967 34.3666 6.29967 33.1666 7.53301 32.6333C8.94967 32.0166 10.5163 31.6666 12.1663 31.6666C13.8163 31.6666 15.383 32.0166 16.7997 32.6333C18.033 33.1666 18.833 34.3666 18.833 35.7166V36.6666ZM21.7497 21.6666V18.3333H19.2497V21.6666H15.4997L20.4997 26.6666L25.4997 21.6666H21.7497Z" fill="#161351"/>
</svg>
