<svg width="24" height="48" viewBox="0 0 24 48" fill="none" xmlns="http://www.w3.org/2000/svg">
<path d="M15.7549 38.2549H14.9649L14.6849 37.9849C15.6649 36.8449 16.2549 35.3649 16.2549 33.7549C16.2549 30.1649 13.3449 27.2549 9.75488 27.2549C6.16488 27.2549 3.25488 30.1649 3.25488 33.7549C3.25488 37.3449 6.16488 40.2549 9.75488 40.2549C11.3649 40.2549 12.8449 39.6649 13.9849 38.6849L14.2549 38.9649V39.7549L19.2549 44.7449L20.7449 43.2549L15.7549 38.2549ZM9.75488 38.2549C7.26488 38.2549 5.25488 36.2449 5.25488 33.7549C5.25488 31.2649 7.26488 29.2549 9.75488 29.2549C12.2449 29.2549 14.2549 31.2649 14.2549 33.7549C14.2549 36.2449 12.2449 38.2549 9.75488 38.2549Z" fill="#3C4043"/>
</svg>
