<svg width="36" height="36" viewBox="0 0 36 36" fill="none" xmlns="http://www.w3.org/2000/svg">
<path fill-rule="evenodd" clip-rule="evenodd" d="M24.3107 7.34016C28.6385 11.6679 28.9696 18.4788 25.3041 23.1866C25.327 23.2068 25.3494 23.228 25.3714 23.2499L31.7353 29.6138C32.3211 30.1996 32.3211 31.1494 31.7353 31.7352C31.1495 32.321 30.1998 32.321 29.614 31.7352L23.25 25.3712C23.2281 25.3493 23.207 25.3268 23.1867 25.3039C18.479 28.9696 11.668 28.6385 7.34016 24.3107C2.65387 19.6244 2.65387 12.0265 7.34016 7.34016C12.0264 2.65387 19.6244 2.65387 24.3107 7.34016ZM9.46148 22.1894C12.9762 25.7041 18.6747 25.7041 22.1894 22.1894C25.7041 18.6747 25.7041 12.9762 22.1894 9.46148C18.6747 5.94676 12.9762 5.94676 9.46148 9.46148C5.94676 12.9762 5.94676 18.6747 9.46148 22.1894Z" fill="#161351"/>
</svg>
