<svg width="24" height="48" viewBox="0 0 24 48" fill="none" xmlns="http://www.w3.org/2000/svg">
<path d="M6.25 43H10.25C10.25 44.1 9.35 45 8.25 45C7.15 45 6.25 44.1 6.25 43ZM4.25 42H12.25V40H4.25V42ZM15.75 32.5C15.75 36.32 13.09 38.36 11.98 39H4.52C3.41 38.36 0.75 36.32 0.75 32.5C0.75 28.36 4.11 25 8.25 25C12.39 25 15.75 28.36 15.75 32.5ZM13.75 32.5C13.75 29.47 11.28 27 8.25 27C5.22 27 2.75 29.47 2.75 32.5C2.75 34.97 4.24 36.39 5.1 37H11.4C12.26 36.39 13.75 34.97 13.75 32.5ZM20.62 30.37L19.25 31L20.62 31.63L21.25 33L21.88 31.63L23.25 31L21.88 30.37L21.25 29L20.62 30.37ZM18.25 29L19.19 26.94L21.25 26L19.19 25.06L18.25 23L17.31 25.06L15.25 26L17.31 26.94L18.25 29Z" fill="#332A25"/>
</svg>
