<svg width="40" height="40" viewBox="0 0 40 40" fill="none" xmlns="http://www.w3.org/2000/svg">
<path d="M23.333 10.8334V7.50008H16.6663V10.8334H23.333ZM6.66634 14.1667V32.5001H33.333V14.1667H6.66634ZM33.333 10.8334C35.183 10.8334 36.6663 12.3167 36.6663 14.1667V32.5001C36.6663 34.3501 35.183 35.8334 33.333 35.8334H6.66634C4.81634 35.8334 3.33301 34.3501 3.33301 32.5001L3.34967 14.1667C3.34967 12.3167 4.81634 10.8334 6.66634 10.8334H13.333V7.50008C13.333 5.65008 14.8163 4.16675 16.6663 4.16675H23.333C25.183 4.16675 26.6663 5.65008 26.6663 7.50008V10.8334H33.333Z" fill="#161351"/>
</svg>
