<svg width="40" height="40" viewBox="0 0 40 40" fill="none" xmlns="http://www.w3.org/2000/svg">
<path d="M28.3497 23.7664H27.0163L26.5663 23.3164C28.1997 21.4164 29.183 18.9664 29.183 16.2664C29.183 10.2831 24.333 5.43311 18.3497 5.43311C12.3663 5.43311 7.51634 10.4331 7.51634 16.2664H3.33301L9.73301 22.9331L16.6663 16.2664H10.8497C10.8497 12.0998 14.2163 8.76644 18.3497 8.76644C22.483 8.76644 25.8497 12.1164 25.8497 16.2664C25.8497 20.3998 22.483 23.7664 18.3497 23.7664C17.2663 23.7664 16.2497 23.5331 15.3163 23.1331L12.8497 25.5998C14.4663 26.5498 16.333 27.0998 18.3497 27.0998C21.033 27.0998 23.483 26.1164 25.383 24.4831L25.833 24.9331V26.2498L34.183 34.5664L36.6663 32.0998L28.3497 23.7664Z" fill="#161351"/>
</svg>
