<svg width="24" height="48" viewBox="0 0 24 48" fill="none" xmlns="http://www.w3.org/2000/svg">
<path d="M17.01 38H16.21L15.94 37.73C16.92 36.59 17.51 35.12 17.51 33.5C17.51 29.91 14.6 27 11.01 27C7.42 27 4.51 30 4.51 33.5H2L5.84 37.5L10 33.5H6.51C6.51 31 8.53 29 11.01 29C13.49 29 15.51 31.01 15.51 33.5C15.51 35.98 13.49 38 11.01 38C10.36 38 9.75 37.86 9.19 37.62L7.71 39.1C8.68 39.67 9.8 40 11.01 40C12.62 40 14.09 39.41 15.23 38.43L15.5 38.7V39.49L20.51 44.48L22 43L17.01 38Z" fill="#3C4043"/>
</svg>
